<svg xmlns="http://www.w3.org/2000/svg" version="1.1" xmlns:xlink="http://www.w3.org/1999/xlink" width="512" height="512" x="0" y="0" viewBox="0 0 128 128" style="enable-background:new 0 0 512 512" xml:space="preserve" class="">
  <g>
    <path d="M108.88 84.58a6.54 6.54 0 0 0-1.88-4.85c-2.07-2-5.66-2.86-12-2.74a104.14 104.14 0 0 0-19.37 2.68A101.56 101.56 0 0 0 63.83 83c-3 1-5.07 1.71-7.48 1.71h-.09a4.64 4.64 0 0 1-4-1.9 5 5 0 0 1-.35-4.67A31.41 31.41 0 0 0 53.7 64.5c-.66-6.45-3.87-10.16-8.82-10.2a5.51 5.51 0 0 0-4.21 1.58c-1.81 1.88-1.84 4.74-1.71 7.75.11 2.74-2.87 5.53-4.65 7.2-4 3.78-7.08 9.3-7.75 14.06-.1.71-.17 1.36-.24 2a8.13 8.13 0 0 1-.65 3.08A68.14 68.14 0 0 1 19.38 95a2 2 0 0 0-.79 1.32c0 .25-.81 6.14 5.15 13.71 4.27 5.43 10.37 7.88 14.3 7.88h.14a3.74 3.74 0 0 0 3.16-1.26c1-1.39 4.87-5.59 6.4-6.41 3.87-2.09 7.77-4 11.28-5.55 8.3-.16 29.49-.3 34.29.89a10 10 0 0 0 2.46.3c3.61 0 7.37-1.81 8.53-5.49a8 8 0 0 0-.38-6.51 7.32 7.32 0 0 0-1.44-1.81c5.15-1.72 6.38-4.9 6.4-7.49zm-8.39 14.61c-.7 2.21-3.84 3.1-6.21 2.51-3.94-1-16.13-1.14-25.2-1.11l.94-.35a128.58 128.58 0 0 1 26.46-6.94c2 .58 3.34 1.44 3.93 2.51a4.26 4.26 0 0 1 .08 3.38zM98.33 89c-16.07 2.46-24.6 5.64-29.7 7.54l-1.51.46a172.06 172.06 0 0 0-21.28 9.68c-2.33 1.25-6.2 5.67-7.43 7.19-1.63.23-7.39-1.08-11.53-6.35-3.71-4.71-4.28-8.4-4.34-9.91 1.88-1.41 5.44-4.14 6.31-5.26 1-1.35 1.23-3 1.47-5.08.06-.56.13-1.17.22-1.84.55-3.86 3.17-8.56 6.53-11.7 2.13-2 6.1-5.72 5.9-10.29-.06-1.4-.17-4 .6-4.8.09-.09.35-.36 1.27-.36 2.79 0 4.43 2.24 4.87 6.61a27.21 27.21 0 0 1-1.51 11.85 8.94 8.94 0 0 0 .8 8.35 8.64 8.64 0 0 0 7.26 3.64c3.12 0 5.53-.79 8.87-1.91a96.7 96.7 0 0 1 11.46-3.24A99.21 99.21 0 0 1 95.16 81c4.86-.09 7.9.44 9.06 1.59a2.47 2.47 0 0 1 .66 2c-.01.8-.03 3.41-6.55 4.41z" fill="#aaaaaa" opacity="1" data-original="#000000" class=""></path>
    <path d="M37.72 44c.15 0 15.42 2.28 21.72 8.58S68 74.13 68 74.28a2 2 0 0 0 4 0c0-.15 2.28-15.42 8.58-21.72S102.13 44 102.28 44a2 2 0 0 0 0-4c-.15 0-15.42-2.28-21.72-8.58S72 9.87 72 9.72a2 2 0 0 0-4 0c0 .15-2.28 15.42-8.58 21.72S37.87 40 37.72 40a2 2 0 0 0 0 4zm24.55-9.71c3.78-3.78 6.24-10 7.73-15.11 1.49 5.14 4 11.33 7.73 15.11s10 6.24 15.11 7.73c-5.15 1.49-11.33 4-15.11 7.73S71.49 59.7 70 64.84c-1.49-5.14-4-11.33-7.73-15.11s-10-6.24-15.11-7.73c5.15-1.49 11.33-3.95 15.11-7.73z" fill="#aaaaaa" opacity="1" data-original="#000000" class=""></path><path d="M88 26a2 2 0 0 0 1.41-.59l4-4a2 2 0 0 0-2.82-2.82l-4 4A2 2 0 0 0 88 26zM86.59 58.59a2 2 0 0 0 0 2.82l4 4a2 2 0 0 0 2.82-2.82l-4-4a2 2 0 0 0-2.82 0zM50.59 25.41a2 2 0 0 0 2.82-2.82l-4-4a2 2 0 0 0-2.82 2.82z" fill="#aaaaaa" opacity="1" data-original="#000000" class=""></path>
  </g>
</svg>