<?xml version="1.0" encoding="UTF-8"?>
<svg xmlns="http://www.w3.org/2000/svg" xmlns:xlink="http://www.w3.org/1999/xlink" width="80px" height="80px" viewBox="0 0 80 80" version="1.1">
<g id="surface1">
<path style=" stroke:none;fill-rule:nonzero;fill:rgb(100%,100%,100%);fill-opacity:1;" d="M 0 46.597656 L 0 13.191406 L 80 13.191406 L 80 80 L 0 80 Z M 30.996094 55.382812 C 30.546875 55.339844 29.832031 55.339844 29.429688 55.382812 C 29.050781 55.425781 29.429688 55.46875 30.28125 55.46875 C 31.152344 55.46875 31.464844 55.425781 30.996094 55.382812 Z M 41.71875 55.382812 C 41.273438 55.339844 40.558594 55.339844 40.15625 55.382812 C 39.777344 55.425781 40.15625 55.46875 41.003906 55.46875 C 41.878906 55.46875 42.191406 55.425781 41.71875 55.382812 Z M 19.328125 44.597656 C 19.328125 38.703125 19.261719 33.914062 19.171875 33.980469 C 19.0625 34.019531 18.996094 38.789062 18.996094 44.554688 C 18.996094 53.320312 19.0625 55.320312 19.308594 55.320312 C 19.328125 55.320312 19.328125 50.488281 19.328125 44.597656 Z M 59.664062 44.574219 C 59.664062 38.789062 59.597656 34.019531 59.507812 33.980469 C 59.398438 33.914062 59.328125 38.679688 59.328125 44.574219 C 59.328125 50.46875 59.398438 55.234375 59.507812 55.171875 C 59.597656 55.128906 59.664062 50.363281 59.664062 44.574219 Z M 55.574219 52.765625 C 54.90625 51.851562 49.273438 45.339844 49.140625 45.339844 C 49.074219 45.320312 48.066406 46.425781 46.90625 47.765625 C 44.847656 50.148438 44.78125 50.191406 43.867188 50.210938 C 42.816406 50.210938 43.285156 50.746094 39.285156 44.894531 C 38.367188 43.554688 36.78125 41.234375 35.777344 39.746094 C 34.75 38.234375 33.855469 37.019531 33.765625 37.019531 C 33.699219 37.019531 33.230469 37.617188 32.738281 38.363281 C 32.246094 39.085938 29.921875 42.46875 27.574219 45.851562 C 25.230469 49.253906 23.128906 52.277344 22.925781 52.617188 L 22.523438 53.191406 L 55.886719 53.191406 Z M 28.042969 40.210938 C 28.625 39.957031 29.140625 39.488281 29.40625 39.042969 C 29.765625 38.402344 29.765625 38.253906 29.496094 37.765625 C 28.378906 35.765625 25.320312 35.746094 24.289062 37.722656 C 23.777344 38.703125 24 39.148438 25.429688 40.019531 C 26.660156 40.746094 26.839844 40.765625 28.042969 40.210938 Z M 27.105469 33.679688 C 26.816406 33.636719 26.367188 33.636719 26.101562 33.679688 C 25.808594 33.722656 26.035156 33.765625 26.59375 33.765625 C 27.152344 33.765625 27.375 33.722656 27.105469 33.679688 Z M 31.464844 33.679688 C 31.238281 33.636719 30.839844 33.636719 30.570312 33.679688 C 30.28125 33.722656 30.457031 33.765625 30.949219 33.765625 C 31.441406 33.789062 31.664062 33.746094 31.464844 33.679688 Z M 53.808594 33.679688 C 51.261719 33.636719 47.039062 33.636719 44.425781 33.679688 C 41.808594 33.703125 43.886719 33.722656 49.050781 33.722656 C 54.210938 33.722656 56.359375 33.703125 53.808594 33.679688 Z M 53.808594 33.679688 "/>
<path style=" stroke:none;fill-rule:nonzero;fill:rgb(100%,100%,100%);fill-opacity:1;" d="M 49.386719 7.703125 C 49.386719 7.402344 49.230469 7.339844 48.492188 7.402344 C 47.597656 7.488281 47.597656 7.488281 47.597656 6.746094 C 47.597656 5.894531 47.800781 5.703125 49.074219 5.363281 C 50.4375 4.980469 51.171875 5.019531 51.171875 5.488281 C 51.171875 5.679688 51.238281 6.363281 51.308594 6.980469 L 51.464844 8.085938 L 50.414062 8.085938 C 49.585938 8.085938 49.386719 8.019531 49.386719 7.703125 Z M 49.386719 7.703125 "/>
<path style=" stroke:none;fill-rule:nonzero;fill:rgb(100%,100%,100%);fill-opacity:1;" d="M 61.453125 6.402344 C 61.453125 5.488281 61.675781 5.320312 62.90625 5.320312 C 64.132812 5.320312 64.359375 5.488281 64.359375 6.402344 L 64.359375 7.234375 L 61.453125 7.234375 Z M 61.453125 6.402344 "/>
<path style=" stroke:none;fill-rule:nonzero;fill:rgb(88.235294%,87.45098%,88.627451%);fill-opacity:1;" d="M 18.996094 55.980469 L 18.4375 55.828125 L 18.367188 44.617188 L 18.324219 33.402344 L 18.816406 33.234375 C 19.507812 33.019531 59.710938 33.042969 60.066406 33.253906 C 60.269531 33.382812 60.335938 35.894531 60.335938 44.574219 L 60.335938 55.722656 L 59.867188 55.980469 C 59.285156 56.277344 57.140625 56.105469 57.027344 55.765625 C 56.894531 55.402344 44.089844 55.425781 43.957031 55.808594 C 43.84375 56.148438 36.132812 56.105469 36.023438 55.765625 C 35.910156 55.425781 33.363281 55.46875 33.230469 55.808594 C 33.117188 56.148438 25.652344 56.128906 25.519531 55.765625 C 25.40625 55.46875 24.359375 55.445312 24.359375 55.746094 C 24.359375 55.871094 24 55.957031 23.574219 55.957031 C 23.152344 55.957031 22.792969 55.871094 22.792969 55.746094 C 22.792969 55.488281 22.191406 55.46875 22.078125 55.722656 C 21.988281 55.980469 19.6875 56.191406 18.996094 55.980469 Z M 58.660156 44.574219 L 58.660156 34.574219 L 20 34.574219 L 19.933594 37.828125 C 19.886719 40.511719 19.820312 41.0625 19.554688 41.0625 C 19.308594 41.0625 19.21875 41.296875 19.21875 41.914062 C 19.21875 42.53125 19.308594 42.765625 19.554688 42.765625 C 19.820312 42.765625 19.886719 43.0625 19.886719 44.253906 C 19.886719 45.445312 19.820312 45.746094 19.554688 45.746094 C 19.308594 45.746094 19.21875 46 19.21875 46.808594 C 19.21875 47.617188 19.308594 47.871094 19.554688 47.871094 C 19.84375 47.871094 19.886719 48.382812 19.886719 51.128906 C 19.886719 52.9375 19.957031 54.46875 20.042969 54.53125 C 20.113281 54.617188 28.847656 54.660156 39.417969 54.636719 L 58.660156 54.574219 Z M 58.660156 44.574219 "/>
<path style=" stroke:none;fill-rule:nonzero;fill:rgb(88.235294%,87.45098%,88.627451%);fill-opacity:1;" d="M 21.742188 53.679688 C 21.585938 53.636719 21.453125 53.46875 21.453125 53.339844 C 21.453125 53.191406 23.710938 49.828125 26.480469 45.851562 C 29.230469 41.871094 31.910156 37.980469 32.425781 37.191406 C 33.003906 36.277344 33.496094 35.746094 33.742188 35.746094 C 34.121094 35.746094 34.636719 36.445312 39.957031 44.253906 C 43.285156 49.105469 43.621094 49.574219 43.867188 49.574219 C 44.023438 49.554688 45.050781 48.511719 46.144531 47.210938 C 47.261719 45.914062 48.335938 44.722656 48.535156 44.53125 C 49.25 43.914062 49.09375 43.765625 55.152344 50.789062 C 56.289062 52.105469 57.207031 53.277344 57.207031 53.382812 C 57.207031 53.488281 57.050781 53.636719 56.847656 53.703125 C 56.425781 53.851562 22.144531 53.851562 21.742188 53.679688 Z M 55.195312 52.851562 C 55.195312 52.703125 53.273438 50.382812 51.976562 48.914062 C 51.597656 48.488281 51.128906 47.980469 50.949219 47.746094 C 50.769531 47.53125 50.257812 46.9375 49.855469 46.425781 L 49.074219 45.53125 L 48.132812 46.53125 C 47.597656 47.105469 47.171875 47.617188 47.152344 47.722656 C 47.152344 47.808594 46.972656 48.042969 46.769531 48.253906 C 46.546875 48.488281 45.988281 49.0625 45.519531 49.554688 C 44.761719 50.382812 44.601562 50.445312 43.730469 50.382812 L 42.792969 50.320312 L 40.269531 46.703125 C 38.882812 44.722656 36.894531 41.808594 35.820312 40.253906 L 33.878906 37.445312 L 33.363281 37.957031 C 33.074219 38.253906 32.847656 38.597656 32.847656 38.722656 C 32.847656 38.828125 32.761719 38.9375 32.671875 38.9375 C 32.558594 38.9375 32.335938 39.191406 32.15625 39.53125 C 31.976562 39.851562 31.777344 40.148438 31.710938 40.210938 C 31.417969 40.46875 29.71875 42.980469 29.71875 43.171875 C 29.71875 43.296875 29.632812 43.402344 29.496094 43.402344 C 29.386719 43.402344 29.273438 43.554688 29.273438 43.722656 C 29.273438 43.894531 29.183594 44.042969 29.050781 44.042969 C 28.9375 44.042969 28.828125 44.148438 28.828125 44.253906 C 28.828125 44.382812 28.625 44.679688 28.378906 44.9375 C 28.132812 45.191406 27.933594 45.53125 27.933594 45.679688 C 27.933594 45.828125 27.84375 45.957031 27.710938 45.957031 C 27.597656 45.957031 27.484375 46.105469 27.484375 46.277344 C 27.484375 46.445312 27.398438 46.597656 27.285156 46.597656 C 27.171875 46.597656 27.015625 46.828125 26.949219 47.128906 C 26.859375 47.425781 26.703125 47.660156 26.59375 47.660156 C 26.457031 47.660156 26.367188 47.808594 26.367188 47.980469 C 26.367188 48.148438 26.28125 48.296875 26.167969 48.296875 C 26.054688 48.296875 25.855469 48.597656 25.71875 48.9375 C 25.609375 49.296875 25.40625 49.574219 25.273438 49.574219 C 25.160156 49.574219 24.984375 49.789062 24.894531 50.0625 C 24.804688 50.320312 24.671875 50.574219 24.601562 50.636719 C 24.515625 50.703125 24.089844 51.253906 23.621094 51.871094 L 22.792969 52.980469 L 38.996094 52.980469 C 47.910156 52.980469 55.195312 52.914062 55.195312 52.851562 Z M 55.195312 52.851562 "/>
<path style=" stroke:none;fill-rule:nonzero;fill:rgb(88.235294%,87.45098%,88.627451%);fill-opacity:1;" d="M 24.761719 40.660156 C 24.179688 40.320312 23.621094 39.828125 23.484375 39.597656 C 22.925781 38.617188 23.417969 36.746094 24.402344 36.128906 C 26.054688 35.085938 28.289062 35.253906 29.609375 36.511719 C 30.613281 37.445312 30.792969 38.488281 30.144531 39.574219 C 29.117188 41.296875 26.636719 41.789062 24.761719 40.660156 Z M 27.730469 40.0625 C 29.5625 39.382812 29.855469 37.746094 28.269531 36.808594 C 26.996094 36.0625 25.339844 36.382812 24.582031 37.554688 C 24 38.445312 24.246094 39.148438 25.40625 39.871094 C 26.4375 40.511719 26.546875 40.511719 27.730469 40.0625 Z M 27.730469 40.0625 "/>
<path style=" stroke:none;fill-rule:nonzero;fill:rgb(88.235294%,87.45098%,88.627451%);fill-opacity:1;" d="M 0 13.402344 C 0 12.980469 0.15625 12.980469 40 12.980469 C 79.84375 12.980469 80 12.980469 80 13.402344 C 80 13.828125 79.84375 13.828125 40 13.828125 C 0.15625 13.828125 0 13.828125 0 13.402344 Z M 0 13.402344 "/>
<path style=" stroke:none;fill-rule:nonzero;fill:rgb(88.235294%,87.45098%,88.627451%);fill-opacity:1;" d="M 45.808594 9.363281 C 45.808594 9.253906 45.652344 9.148438 45.476562 9.148438 C 45.25 9.148438 45.140625 8.914062 45.140625 8.402344 C 45.140625 8 45.25 7.660156 45.363281 7.660156 C 45.496094 7.660156 45.585938 7.46875 45.585938 7.210938 C 45.585938 6.980469 45.71875 6.636719 45.898438 6.46875 C 46.257812 6.128906 47.597656 6.0625 47.597656 6.382812 C 47.597656 6.511719 47.710938 6.597656 47.820312 6.597656 C 47.957031 6.597656 48.042969 6.445312 48.042969 6.277344 C 48.042969 6.042969 48.269531 5.957031 48.894531 5.980469 C 49.363281 6 49.519531 6.0625 49.230469 6.105469 C 48.960938 6.148438 48.648438 6.320312 48.535156 6.445312 C 48.359375 6.636719 48.558594 6.703125 49.296875 6.703125 C 50.324219 6.703125 50.4375 6.617188 50.011719 6.210938 C 49.808594 6.019531 49.855469 5.957031 50.234375 5.957031 C 50.570312 5.957031 50.726562 6.085938 50.726562 6.382812 C 50.726562 6.617188 50.882812 6.808594 51.0625 6.808594 C 51.308594 6.808594 51.398438 7.042969 51.398438 7.660156 C 51.398438 8.46875 51.351562 8.511719 50.726562 8.511719 C 50.324219 8.511719 49.988281 8.636719 49.921875 8.828125 C 49.742188 9.253906 48.515625 9.234375 48.023438 8.808594 C 47.640625 8.488281 47.597656 8.511719 47.464844 9.019531 C 47.351562 9.488281 47.195312 9.574219 46.570312 9.574219 C 46.144531 9.574219 45.808594 9.488281 45.808594 9.363281 Z M 45.808594 9.363281 "/>
<path style=" stroke:none;fill-rule:nonzero;fill:rgb(88.235294%,87.45098%,88.627451%);fill-opacity:1;" d="M 55.554688 9.128906 C 55.238281 8.765625 55.195312 8.320312 55.238281 6.425781 L 55.308594 4.148438 L 57.207031 4.148438 C 59.105469 4.148438 59.105469 4.148438 59.171875 4.722656 C 59.238281 5.210938 59.351562 5.296875 60.066406 5.363281 C 60.847656 5.425781 60.894531 5.46875 60.960938 6.234375 C 61.027344 6.894531 61.117188 7.019531 61.40625 6.914062 C 61.609375 6.851562 62.191406 6.722656 62.726562 6.660156 C 63.664062 6.53125 63.957031 6.296875 63.417969 6.105469 C 63.238281 6.042969 63.285156 5.980469 63.53125 5.980469 C 63.84375 5.957031 63.910156 6.148438 63.910156 7.234375 L 63.910156 8.488281 L 62.792969 8.636719 C 61.921875 8.746094 61.675781 8.851562 61.675781 9.171875 C 61.675781 9.511719 61.429688 9.554688 58.816406 9.554688 C 56.222656 9.554688 55.910156 9.511719 55.554688 9.128906 Z M 55.554688 9.128906 "/>
<path style=" stroke:none;fill-rule:nonzero;fill:rgb(88.235294%,87.45098%,88.627451%);fill-opacity:1;" d="M 34.859375 8.402344 C 34.859375 7.894531 34.972656 7.660156 35.195312 7.660156 C 35.375 7.660156 35.53125 7.511719 35.53125 7.339844 C 35.53125 7.171875 35.328125 7.019531 35.082031 7.019531 C 34.726562 7.019531 34.636719 6.871094 34.636719 6.277344 C 34.636719 5.574219 34.679688 5.53125 35.417969 5.53125 C 35.957031 5.53125 36.199219 5.636719 36.199219 5.851562 C 36.199219 6.0625 36.425781 6.171875 36.847656 6.171875 C 37.585938 6.171875 37.765625 6.46875 37.765625 7.679688 C 37.765625 8.46875 37.71875 8.511719 37.09375 8.511719 C 36.648438 8.511719 36.425781 8.617188 36.425781 8.828125 C 36.425781 9.042969 36.179688 9.148438 35.640625 9.148438 C 34.90625 9.148438 34.859375 9.105469 34.859375 8.402344 Z M 34.859375 8.402344 "/>
<path style=" stroke:none;fill-rule:nonzero;fill:rgb(88.235294%,87.45098%,88.627451%);fill-opacity:1;" d="M 40.378906 7.296875 C 40.289062 7.234375 40.222656 6.789062 40.222656 6.339844 L 40.222656 5.53125 L 42.457031 5.53125 L 42.457031 7.445312 L 41.496094 7.445312 C 40.960938 7.445312 40.445312 7.382812 40.378906 7.296875 Z M 40.378906 7.296875 "/>
<path style=" stroke:none;fill-rule:nonzero;fill:rgb(81.176471%,82.352941%,81.176471%);fill-opacity:1;" d="M 18.949219 55.789062 C 18.726562 55.746094 18.546875 55.53125 18.546875 55.296875 C 18.546875 54.9375 18.679688 54.871094 19.261719 54.9375 C 19.730469 54.980469 20.023438 55.128906 20.066406 55.339844 C 20.132812 55.703125 19.597656 55.9375 18.949219 55.789062 Z M 18.949219 55.789062 "/>
<path style=" stroke:none;fill-rule:nonzero;fill:rgb(81.176471%,82.352941%,81.176471%);fill-opacity:1;" d="M 22.570312 55.402344 C 22.570312 54.914062 22.636719 54.894531 24.023438 54.894531 C 25.429688 54.894531 25.476562 54.914062 25.476562 55.425781 C 25.476562 55.9375 25.429688 55.957031 24.023438 55.9375 C 22.636719 55.914062 22.570312 55.894531 22.570312 55.402344 Z M 22.570312 55.402344 "/>
<path style=" stroke:none;fill-rule:nonzero;fill:rgb(81.176471%,82.352941%,81.176471%);fill-opacity:1;" d="M 31.957031 55.382812 C 31.957031 54.9375 32.042969 54.894531 32.960938 54.894531 C 33.878906 54.894531 33.964844 54.9375 33.964844 55.425781 C 33.964844 55.914062 33.898438 55.957031 32.960938 55.914062 C 32.066406 55.894531 31.957031 55.828125 31.957031 55.382812 Z M 31.957031 55.382812 "/>
<path style=" stroke:none;fill-rule:nonzero;fill:rgb(81.176471%,82.352941%,81.176471%);fill-opacity:1;" d="M 42.679688 55.382812 C 42.679688 54.9375 42.769531 54.894531 43.6875 54.894531 C 44.601562 54.894531 44.691406 54.9375 44.691406 55.425781 C 44.691406 55.914062 44.625 55.957031 43.6875 55.914062 C 42.792969 55.894531 42.679688 55.828125 42.679688 55.382812 Z M 42.679688 55.382812 "/>
<path style=" stroke:none;fill-rule:nonzero;fill:rgb(81.176471%,82.352941%,81.176471%);fill-opacity:1;" d="M 44.917969 55.425781 L 44.917969 54.894531 L 58.101562 54.894531 L 58.101562 55.957031 L 44.917969 55.957031 Z M 44.917969 55.425781 "/>
<path style=" stroke:none;fill-rule:nonzero;fill:rgb(81.176471%,82.352941%,81.176471%);fill-opacity:1;" d="M 21.453125 53.445312 C 21.453125 53.339844 21.789062 52.828125 22.191406 52.320312 L 22.90625 51.382812 L 22.972656 52.085938 C 23.015625 52.445312 23.128906 52.765625 23.261719 52.765625 C 23.375 52.765625 23.464844 52.957031 23.464844 53.191406 C 23.464844 53.554688 23.308594 53.617188 22.457031 53.617188 C 21.898438 53.617188 21.453125 53.53125 21.453125 53.445312 Z M 21.453125 53.445312 "/>
<path style=" stroke:none;fill-rule:nonzero;fill:rgb(81.176471%,82.352941%,81.176471%);fill-opacity:1;" d="M 43.128906 50 C 43.128906 49.425781 43.171875 49.382812 43.554688 49.617188 C 43.910156 49.828125 44.089844 49.722656 44.828125 48.9375 C 45.320312 48.425781 45.878906 47.851562 46.101562 47.617188 C 46.300781 47.402344 46.480469 47.171875 46.480469 47.085938 C 46.503906 46.980469 47.039062 46.339844 47.710938 45.636719 C 48.761719 44.574219 49.003906 44.402344 49.339844 44.597656 C 49.542969 44.722656 49.742188 45 49.789062 45.191406 C 49.855469 45.445312 49.699219 45.53125 49.183594 45.53125 C 48.558594 45.53125 48.492188 45.597656 48.492188 46.171875 C 48.492188 46.703125 48.402344 46.808594 47.933594 46.808594 C 47.484375 46.808594 47.375 46.914062 47.375 47.339844 C 47.375 47.765625 47.261719 47.871094 46.816406 47.871094 C 46.347656 47.871094 46.257812 47.980469 46.257812 48.511719 C 46.257812 49.042969 46.167969 49.148438 45.699219 49.148438 C 45.230469 49.148438 45.140625 49.253906 45.140625 49.765625 C 45.140625 50.425781 44.828125 50.636719 43.777344 50.636719 C 43.195312 50.636719 43.128906 50.554688 43.128906 50 Z M 43.128906 50 "/>
<path style=" stroke:none;fill-rule:nonzero;fill:rgb(81.176471%,82.352941%,81.176471%);fill-opacity:1;" d="M 23.6875 50.210938 C 23.6875 50.105469 23.800781 50 23.933594 50 C 24.042969 50 24.113281 49.914062 24.042969 49.828125 C 23.976562 49.722656 24.15625 49.402344 24.425781 49.128906 C 24.691406 48.851562 24.917969 48.554688 24.917969 48.46875 C 24.917969 48.210938 25.675781 47.445312 25.945312 47.445312 C 26.078125 47.445312 26.144531 47.789062 26.101562 48.253906 C 26.054688 48.894531 25.945312 49.0625 25.542969 49.105469 C 25.140625 49.171875 25.027344 49.320312 25.027344 49.808594 C 25.027344 50.363281 24.960938 50.425781 24.359375 50.425781 C 24 50.425781 23.6875 50.339844 23.6875 50.210938 Z M 23.6875 50.210938 "/>
<path style=" stroke:none;fill-rule:nonzero;fill:rgb(81.176471%,82.352941%,81.176471%);fill-opacity:1;" d="M 27.261719 45.042969 C 27.261719 44.894531 27.464844 44.554688 27.710938 44.296875 C 27.957031 44.042969 28.15625 43.746094 28.15625 43.617188 C 28.15625 43.511719 28.269531 43.402344 28.378906 43.402344 C 28.515625 43.402344 28.601562 43.253906 28.601562 43.085938 C 28.601562 42.914062 28.714844 42.765625 28.828125 42.765625 C 28.960938 42.765625 29.050781 42.660156 29.050781 42.53125 C 29.050781 42.296875 30.726562 39.871094 31.195312 39.425781 C 31.621094 39.019531 31.730469 39.085938 31.730469 39.789062 C 31.730469 40.574219 31.308594 41.488281 30.90625 41.488281 C 30.75 41.488281 30.613281 41.679688 30.613281 41.914062 C 30.613281 42.191406 30.457031 42.339844 30.167969 42.339844 C 29.808594 42.339844 29.71875 42.488281 29.71875 43.085938 C 29.71875 43.554688 29.609375 43.828125 29.429688 43.828125 C 29.273438 43.828125 29.003906 44.171875 28.847656 44.574219 C 28.625 45.191406 28.46875 45.320312 27.910156 45.320312 C 27.53125 45.320312 27.261719 45.210938 27.261719 45.042969 Z M 27.261719 45.042969 "/>
<path style=" stroke:none;fill-rule:nonzero;fill:rgb(81.176471%,82.352941%,81.176471%);fill-opacity:1;" d="M 24.738281 40.511719 C 23.820312 39.9375 23.464844 39.296875 23.464844 38.234375 C 23.464844 37.339844 24.445312 35.957031 25.074219 35.957031 C 25.386719 35.957031 25.273438 37.210938 24.9375 37.382812 C 24.78125 37.46875 24.601562 37.914062 24.535156 38.339844 C 24.46875 38.980469 24.535156 39.171875 24.847656 39.277344 C 25.074219 39.339844 25.25 39.46875 25.25 39.574219 C 25.25 39.679688 25.652344 39.894531 26.144531 40.019531 C 26.769531 40.210938 27.039062 40.402344 27.039062 40.679688 C 27.039062 41.253906 25.789062 41.171875 24.738281 40.511719 Z M 24.738281 40.511719 "/>
<path style=" stroke:none;fill-rule:nonzero;fill:rgb(81.176471%,82.352941%,81.176471%);fill-opacity:1;" d="M 53.074219 12.765625 C 53.207031 12.0625 53.160156 11.914062 52.871094 11.914062 C 52.671875 11.914062 52.515625 11.789062 52.515625 11.636719 C 52.515625 11.488281 52.3125 11.210938 52.066406 11 C 51.664062 10.679688 51.621094 10.679688 51.621094 10.980469 C 51.621094 11.277344 51.441406 11.320312 50.457031 11.191406 C 49.808594 11.128906 49.050781 11.0625 48.78125 11.0625 C 48.46875 11.0625 48.269531 10.9375 48.269531 10.746094 C 48.269531 10.574219 48.179688 10.425781 48.042969 10.425781 C 47.933594 10.425781 47.820312 10.277344 47.820312 10.105469 C 47.820312 9.894531 47.597656 9.789062 47.152344 9.789062 C 46.546875 9.789062 46.503906 9.722656 46.523438 9.0625 C 46.546875 8.382812 46.59375 8.339844 47.554688 8.210938 C 48.179688 8.128906 48.671875 8.171875 48.847656 8.320312 C 49.074219 8.511719 49.160156 8.511719 49.160156 8.320312 C 49.160156 8.191406 49.320312 8.085938 49.496094 8.085938 C 49.675781 8.085938 49.832031 7.980469 49.832031 7.851562 C 49.832031 7.722656 50.035156 7.660156 50.28125 7.722656 C 50.570312 7.789062 50.726562 7.722656 50.726562 7.53125 C 50.726562 7.363281 50.570312 7.234375 50.367188 7.234375 C 50.121094 7.234375 50.078125 7.105469 50.167969 6.828125 C 50.300781 6.445312 49.988281 6.085938 49.496094 6.0625 C 49.386719 6.0625 48.648438 5.980469 47.886719 5.871094 L 46.480469 5.703125 L 46.480469 4.277344 L 49.273438 4.402344 C 51.308594 4.488281 52.066406 4.46875 52.066406 4.296875 C 52.066406 3.894531 55.351562 4.128906 55.800781 4.554688 C 55.886719 4.636719 55.957031 5.46875 55.933594 6.425781 C 55.933594 7.660156 56.023438 8.253906 56.269531 8.53125 C 56.601562 8.914062 57.230469 8.871094 57.140625 8.46875 C 57.117188 8.339844 57.207031 8.210938 57.363281 8.148438 C 57.496094 8.105469 57.652344 8.253906 57.699219 8.511719 C 57.765625 8.957031 57.765625 8.957031 58.191406 8.574219 C 58.660156 8.148438 60.113281 8.148438 60.113281 8.554688 C 60.113281 8.679688 59.957031 8.703125 59.753906 8.636719 C 59.574219 8.574219 59.484375 8.597656 59.554688 8.722656 C 59.621094 8.851562 59.84375 8.9375 60.023438 8.9375 C 60.3125 8.9375 60.359375 8.511719 60.289062 6.234375 L 60.222656 3.511719 L 61.789062 3.320312 C 62.90625 3.191406 63.351562 3.191406 63.417969 3.382812 C 63.464844 3.511719 63.6875 3.617188 63.933594 3.617188 C 64.289062 3.617188 64.359375 3.765625 64.359375 4.46875 C 64.359375 4.9375 64.46875 5.320312 64.582031 5.320312 C 64.714844 5.320312 64.804688 5.660156 64.804688 6.0625 C 64.804688 6.789062 64.78125 6.808594 63.976562 6.808594 C 63.328125 6.808594 63.21875 6.746094 63.464844 6.597656 C 63.753906 6.402344 63.753906 6.363281 63.464844 6.171875 C 62.769531 5.722656 62.167969 6.042969 62.234375 6.808594 C 62.257812 7.105469 62.191406 7.445312 62.078125 7.597656 C 61.964844 7.746094 61.964844 7.894531 62.121094 7.980469 C 62.234375 8.042969 62.347656 8.042969 62.347656 7.957031 C 62.347656 7.871094 62.546875 8.019531 62.792969 8.296875 C 63.039062 8.574219 63.238281 8.679688 63.238281 8.554688 C 63.238281 8.402344 63.574219 8.296875 64.023438 8.296875 C 64.761719 8.296875 64.804688 8.339844 64.804688 9.042969 C 64.804688 9.636719 64.714844 9.789062 64.359375 9.789062 C 64.023438 9.789062 63.910156 9.9375 63.910156 10.320312 C 63.910156 10.746094 63.800781 10.851562 63.351562 10.851562 C 63.039062 10.851562 62.792969 10.957031 62.792969 11.0625 C 62.792969 11.191406 62.636719 11.277344 62.457031 11.277344 C 62.28125 11.277344 62.121094 11.382812 62.121094 11.488281 C 62.121094 11.617188 61.765625 11.703125 61.339844 11.703125 C 60.871094 11.703125 60.558594 11.597656 60.558594 11.445312 C 60.558594 11.253906 60.492188 11.234375 60.378906 11.402344 C 60.289062 11.53125 59.957031 11.703125 59.621094 11.789062 C 59.128906 11.894531 58.996094 12.042969 58.996094 12.46875 C 58.996094 13.488281 58.59375 13.617188 55.640625 13.617188 L 52.917969 13.617188 Z M 53.074219 12.765625 "/>
<path style=" stroke:none;fill-rule:nonzero;fill:rgb(81.176471%,82.352941%,81.176471%);fill-opacity:1;" d="M 31.285156 11.488281 C 31.285156 11.382812 30.882812 11.277344 30.390625 11.277344 L 29.496094 11.277344 L 29.496094 10.296875 C 29.496094 9.511719 29.585938 9.296875 29.945312 9.210938 C 30.660156 9.042969 30.480469 8.511719 29.71875 8.511719 C 29.09375 8.511719 29.050781 8.445312 29.050781 7.765625 C 29.050781 7.277344 29.160156 7.019531 29.363281 7.019531 C 29.585938 7.019531 29.71875 6.636719 29.832031 5.765625 C 29.988281 4.382812 30.144531 4.253906 31.800781 4.253906 L 32.625 4.253906 L 32.625 5.53125 C 32.625 6.980469 32.9375 7.234375 33.160156 5.957031 C 33.296875 5.128906 33.320312 5.105469 34.191406 5.105469 C 34.816406 5.105469 35.082031 5.191406 35.082031 5.402344 C 35.082031 5.574219 35.238281 5.746094 35.417969 5.828125 C 35.621094 5.894531 35.753906 6.234375 35.753906 6.703125 C 35.753906 7.105469 35.867188 7.445312 35.976562 7.445312 C 36.113281 7.445312 36.199219 7.765625 36.199219 8.148438 C 36.199219 8.722656 36.066406 8.9375 35.597656 9.171875 C 35.238281 9.339844 34.816406 9.636719 34.613281 9.828125 C 34.414062 10.042969 34.144531 10.210938 34.011719 10.210938 C 33.878906 10.210938 33.699219 10.425781 33.609375 10.679688 C 33.519531 10.957031 33.296875 11.277344 33.09375 11.425781 C 32.671875 11.746094 31.285156 11.789062 31.285156 11.488281 Z M 31.285156 11.488281 "/>
<path style=" stroke:none;fill-rule:nonzero;fill:rgb(81.176471%,82.352941%,81.176471%);fill-opacity:1;" d="M 42.636719 10.277344 C 40.960938 10.191406 40.894531 10.171875 40.894531 9.679688 C 40.894531 9.234375 40.78125 9.148438 40.222656 9.148438 C 39.710938 9.148438 39.554688 9.0625 39.554688 8.722656 C 39.554688 8.445312 39.398438 8.296875 39.105469 8.296875 C 38.816406 8.296875 38.660156 8.445312 38.660156 8.722656 C 38.660156 9.0625 38.503906 9.148438 37.878906 9.148438 C 37.140625 9.148438 37.09375 9.105469 37.09375 8.402344 C 37.09375 7.746094 37.160156 7.660156 37.652344 7.660156 C 38.054688 7.660156 38.210938 7.554688 38.210938 7.234375 C 38.210938 7 38.367188 6.808594 38.546875 6.808594 C 38.75 6.808594 38.816406 6.679688 38.75 6.488281 C 38.660156 6.320312 38.480469 6.171875 38.300781 6.171875 C 38.078125 6.171875 37.988281 5.894531 37.988281 5.320312 C 37.988281 4.53125 38.054688 4.445312 38.660156 4.339844 C 39.039062 4.253906 39.328125 4.128906 39.328125 4.019531 C 39.328125 3.914062 39.6875 3.828125 40.113281 3.828125 C 40.648438 3.828125 40.894531 3.9375 40.894531 4.148438 C 40.894531 4.382812 41.140625 4.46875 41.789062 4.46875 L 42.679688 4.46875 L 42.679688 5.636719 C 42.679688 6.53125 42.613281 6.808594 42.347656 6.808594 C 42.121094 6.808594 42.011719 7.019531 42.011719 7.445312 C 42.011719 7.9375 41.921875 8.085938 41.5625 8.085938 C 41.320312 8.085938 41.117188 8.234375 41.117188 8.402344 C 41.117188 8.789062 41.429688 8.808594 42.035156 8.488281 C 42.324219 8.363281 43.128906 8.320312 44.269531 8.425781 L 46.035156 8.574219 L 46.035156 10.425781 L 45.207031 10.382812 C 44.738281 10.363281 43.574219 10.296875 42.636719 10.277344 Z M 41.789062 6.488281 C 41.789062 6.320312 41.585938 6.171875 41.339844 6.171875 C 40.894531 6.171875 40.761719 6.402344 41.050781 6.660156 C 41.320312 6.9375 41.789062 6.808594 41.789062 6.488281 Z M 41.789062 6.488281 "/>
<path style=" stroke:none;fill-rule:nonzero;fill:rgb(81.176471%,82.352941%,81.176471%);fill-opacity:1;" d="M 21.742188 9.957031 C 21.386719 9.488281 21.003906 7.980469 21.003906 6.9375 C 21.003906 6.402344 20.917969 5.957031 20.78125 5.957031 C 20.535156 5.957031 20.492188 4.679688 20.738281 4.339844 C 20.828125 4.210938 21.09375 4.042969 21.320312 3.980469 C 21.542969 3.894531 21.675781 3.765625 21.609375 3.679688 C 21.40625 3.511719 19.6875 4.617188 19.507812 5 C 19.441406 5.191406 19.082031 5.320312 18.636719 5.320312 C 18.210938 5.320312 17.878906 5.425781 17.878906 5.53125 C 17.878906 5.660156 17.742188 5.746094 17.5625 5.746094 C 17.386719 5.746094 17.207031 5.894531 17.117188 6.0625 C 17.027344 6.296875 16.625 6.382812 15.554688 6.382812 C 14.75 6.382812 14.035156 6.296875 13.964844 6.171875 C 13.898438 6.0625 13.542969 5.957031 13.160156 5.957031 C 12.582031 5.957031 12.515625 5.894531 12.515625 5.277344 C 12.515625 4.085938 12.9375 3.0625 13.742188 2.210938 C 14.167969 1.765625 14.523438 1.320312 14.523438 1.234375 C 14.523438 1.148438 14.882812 1.0625 15.308594 1.0625 C 15.84375 1.0625 16.089844 0.957031 16.089844 0.746094 C 16.089844 0.511719 16.359375 0.425781 17.207031 0.425781 C 17.832031 0.425781 18.324219 0.339844 18.324219 0.210938 C 18.324219 0.0859375 19.039062 0 20 0 L 21.675781 0 L 21.675781 1.0625 C 21.675781 1.980469 21.742188 2.128906 22.121094 2.128906 C 22.457031 2.128906 22.570312 2.277344 22.570312 2.746094 C 22.570312 3.277344 22.660156 3.363281 23.441406 3.488281 C 25.140625 3.746094 26.234375 5.722656 25.808594 7.808594 C 25.585938 8.914062 25.339844 9.320312 24.515625 9.789062 C 23.710938 10.253906 22.054688 10.363281 21.742188 9.957031 Z M 21.742188 9.957031 "/>
<path style=" stroke:none;fill-rule:nonzero;fill:rgb(80.392157%,81.176471%,81.176471%);fill-opacity:1;" d="M 19.464844 55.679688 L 18.546875 55.511719 L 18.59375 44.511719 L 18.660156 33.511719 L 60 33.511719 L 60.066406 44.597656 L 60.113281 55.679688 L 59.285156 55.828125 C 57.964844 56.019531 43.171875 55.957031 43.6875 55.746094 C 44.042969 55.597656 44.066406 55.554688 43.753906 55.554688 C 43.554688 55.53125 43.328125 55.617188 43.238281 55.722656 C 43.171875 55.851562 40.871094 55.9375 37.808594 55.914062 C 34.816406 55.914062 32.714844 55.828125 32.960938 55.746094 C 33.320312 55.597656 33.339844 55.554688 33.027344 55.554688 C 32.828125 55.53125 32.582031 55.617188 32.515625 55.746094 C 32.425781 55.871094 30.769531 55.9375 28.335938 55.9375 C 26.011719 55.914062 24.425781 55.828125 24.601562 55.722656 C 24.804688 55.617188 24.625 55.574219 24.089844 55.597656 C 23.640625 55.617188 23.328125 55.722656 23.398438 55.808594 C 23.53125 56 20.738281 55.914062 19.464844 55.679688 Z M 55.820312 55.617188 C 55.640625 55.46875 51.152344 55.488281 50.996094 55.636719 C 50.925781 55.703125 52.023438 55.746094 53.40625 55.746094 C 54.792969 55.746094 55.886719 55.679688 55.820312 55.617188 Z M 58.949219 44.703125 C 58.972656 39.148438 58.925781 34.53125 58.816406 34.425781 C 58.613281 34.234375 20.289062 34.128906 19.957031 34.320312 C 19.6875 34.46875 19.6875 54.234375 19.957031 54.636719 C 20.113281 54.851562 24.15625 54.894531 39.507812 54.851562 L 58.882812 54.789062 Z M 58.949219 44.703125 "/>
<path style=" stroke:none;fill-rule:nonzero;fill:rgb(80.392157%,81.176471%,81.176471%);fill-opacity:1;" d="M 22.414062 53.363281 C 21.988281 53.171875 21.964844 53.0625 22.191406 52.574219 C 22.523438 51.828125 23.6875 50.171875 24.113281 49.828125 C 24.402344 49.597656 24.402344 49.574219 24.132812 49.703125 C 23.84375 49.851562 23.84375 49.828125 24.132812 49.46875 C 24.3125 49.234375 24.714844 48.828125 25.027344 48.554688 C 25.339844 48.277344 25.453125 48.105469 25.320312 48.191406 C 25.117188 48.277344 25.074219 48.210938 25.160156 48 C 25.230469 47.808594 25.386719 47.660156 25.496094 47.660156 C 25.609375 47.660156 25.699219 47.511719 25.699219 47.339844 C 25.699219 47.171875 25.808594 47.019531 25.945312 47.019531 C 26.054688 47.019531 26.101562 46.9375 26.035156 46.808594 C 25.964844 46.703125 26.011719 46.597656 26.121094 46.597656 C 26.257812 46.597656 26.367188 46.445312 26.367188 46.277344 C 26.367188 46.105469 26.480469 45.957031 26.59375 45.957031 C 26.726562 45.957031 26.816406 45.808594 26.816406 45.636719 C 26.816406 45.46875 26.90625 45.320312 27.015625 45.320312 C 27.128906 45.320312 27.261719 45.128906 27.328125 44.871094 C 27.398438 44.617188 27.554688 44.488281 27.6875 44.574219 C 27.84375 44.660156 27.867188 44.574219 27.777344 44.339844 C 27.6875 44.085938 27.710938 44.019531 27.886719 44.128906 C 28.132812 44.253906 28.269531 44.019531 28.179688 43.574219 C 28.179688 43.46875 28.246094 43.402344 28.378906 43.402344 C 28.492188 43.402344 28.601562 43.253906 28.601562 43.085938 C 28.601562 42.914062 28.671875 42.765625 28.78125 42.765625 C 28.871094 42.765625 29.074219 42.46875 29.230469 42.128906 C 29.40625 41.765625 29.632812 41.53125 29.742188 41.617188 C 29.855469 41.679688 29.945312 41.660156 29.921875 41.554688 C 29.832031 41.105469 29.964844 40.851562 30.28125 40.851562 C 30.480469 40.851562 30.546875 40.722656 30.480469 40.53125 C 30.390625 40.363281 30.503906 40.171875 30.703125 40.085938 C 30.90625 40.019531 30.996094 39.871094 30.925781 39.765625 C 30.859375 39.660156 30.925781 39.574219 31.039062 39.574219 C 31.171875 39.574219 31.285156 39.445312 31.285156 39.296875 C 31.285156 39.148438 31.484375 38.808594 31.730469 38.554688 C 31.976562 38.296875 32.179688 38 32.179688 37.871094 C 32.179688 37.765625 32.289062 37.660156 32.425781 37.660156 C 32.535156 37.660156 32.601562 37.574219 32.535156 37.46875 C 32.46875 37.363281 32.558594 37.210938 32.738281 37.148438 C 32.917969 37.085938 33.050781 36.957031 33.050781 36.871094 C 33.027344 36.789062 33.074219 36.53125 33.160156 36.339844 C 33.585938 35.402344 33.542969 35.339844 40.714844 45.746094 C 42.121094 47.789062 43.441406 49.597656 43.597656 49.722656 C 43.910156 49.980469 44.535156 49.789062 44.46875 49.488281 C 44.445312 49.339844 44.691406 49.0625 46.210938 47.574219 C 46.480469 47.296875 46.703125 46.980469 46.703125 46.871094 C 46.703125 46.53125 47.507812 45.9375 47.710938 46.105469 C 47.800781 46.210938 47.820312 46.171875 47.730469 46.019531 C 47.640625 45.871094 47.886719 45.445312 48.246094 45.0625 C 48.691406 44.617188 48.9375 44.46875 48.9375 44.679688 C 48.9375 44.9375 48.984375 44.9375 49.140625 44.722656 C 49.273438 44.511719 49.585938 44.746094 50.300781 45.574219 C 50.839844 46.191406 51.375 46.808594 51.507812 46.957031 C 51.621094 47.085938 52.492188 48.085938 53.40625 49.171875 C 54.324219 50.277344 55.53125 51.617188 56.042969 52.171875 C 56.582031 52.722656 56.960938 53.277344 56.871094 53.382812 C 56.691406 53.703125 23.082031 53.679688 22.414062 53.363281 Z M 22.414062 53.363281 "/>
<path style=" stroke:none;fill-rule:nonzero;fill:rgb(80.392157%,81.176471%,81.176471%);fill-opacity:1;" d="M 26.347656 40.957031 C 26.28125 40.914062 26.011719 40.828125 25.71875 40.789062 C 25.453125 40.746094 25.027344 40.554688 24.804688 40.363281 C 24.558594 40.171875 24.359375 40.0625 24.359375 40.128906 C 24.359375 40.191406 24.222656 40.105469 24.066406 39.957031 C 23.621094 39.554688 23.441406 38.679688 23.730469 38.363281 C 23.867188 38.191406 23.886719 38.085938 23.753906 38.085938 C 23.375 38.085938 23.710938 37.019531 24.179688 36.789062 C 24.402344 36.679688 24.535156 36.488281 24.46875 36.382812 C 24.402344 36.296875 24.871094 36.042969 25.496094 35.851562 C 27.933594 35.0625 30.167969 36.296875 30.167969 38.445312 C 30.167969 39.339844 29.519531 40.234375 28.535156 40.660156 C 27.640625 41.042969 26.570312 41.191406 26.347656 40.957031 Z M 26.347656 40.957031 "/>
<path style=" stroke:none;fill-rule:nonzero;fill:rgb(80.392157%,81.176471%,81.176471%);fill-opacity:1;" d="M 0 6.808594 L 0 0 L 80 0 L 80 13.617188 L 68.179688 13.617188 C 58.121094 13.597656 56.3125 13.554688 56.089844 13.296875 C 55.800781 12.957031 55.082031 12.851562 55.285156 13.171875 C 55.351562 13.277344 55.128906 13.402344 54.792969 13.46875 C 54.457031 13.53125 41.988281 13.597656 27.105469 13.617188 L 0 13.617188 Z M 56.199219 12.574219 C 56.445312 12.46875 56.761719 12.488281 56.917969 12.597656 C 57.050781 12.703125 57.40625 12.722656 57.71875 12.660156 C 58.121094 12.554688 58.28125 12.382812 58.28125 11.980469 C 58.28125 11.402344 58.636719 11.0625 59.238281 11.0625 C 59.441406 11.0625 59.664062 10.914062 59.753906 10.746094 C 59.886719 10.382812 60.984375 10.511719 61.273438 10.9375 C 61.386719 11.085938 61.453125 11.019531 61.453125 10.765625 C 61.453125 10.511719 61.5625 10.425781 61.789062 10.511719 C 62.167969 10.636719 62.210938 10.46875 61.898438 10 C 61.765625 9.789062 61.675781 9.765625 61.675781 9.957031 C 61.675781 10.339844 61.296875 10.277344 60.78125 9.789062 C 60.269531 9.296875 60.179688 8.980469 60.648438 9.339844 C 61.050781 9.660156 62.167969 9.554688 62.300781 9.210938 C 62.347656 9.019531 62.144531 8.9375 61.699219 8.9375 C 61.296875 8.9375 61.003906 8.828125 60.984375 8.679688 C 60.984375 8.46875 60.9375 8.46875 60.847656 8.679688 C 60.601562 9.277344 60.335938 8.871094 60.3125 7.828125 C 60.289062 7.210938 60.222656 6.957031 60.179688 7.296875 C 60.113281 7.636719 59.933594 7.871094 59.710938 7.894531 C 59.375 7.914062 59.375 7.9375 59.730469 8.019531 C 59.933594 8.0625 60.113281 8.253906 60.113281 8.445312 C 60.113281 8.636719 59.976562 8.722656 59.777344 8.636719 C 59.597656 8.574219 59.464844 8.636719 59.507812 8.789062 C 59.53125 8.9375 59.417969 9.019531 59.261719 8.980469 C 58.726562 8.871094 59.128906 9.445312 59.6875 9.597656 C 60.199219 9.746094 60.199219 9.746094 59.730469 9.765625 C 59.441406 9.789062 59.105469 9.597656 58.949219 9.363281 C 58.792969 9.128906 58.546875 8.9375 58.390625 8.9375 C 58.234375 8.9375 58.101562 8.851562 58.101562 8.722656 C 58.101562 8.617188 58.210938 8.511719 58.324219 8.511719 C 58.660156 8.511719 58.613281 6.019531 58.28125 5.894531 C 58.054688 5.808594 58.054688 5.722656 58.300781 5.574219 C 58.480469 5.445312 58.546875 5.210938 58.480469 5.019531 C 58.300781 4.617188 57.898438 4.574219 57.832031 4.957031 C 57.832031 5.085938 57.789062 5.320312 57.765625 5.425781 C 57.71875 5.554688 57.699219 6.382812 57.675781 7.296875 C 57.652344 8.851562 57.632812 8.9375 57.160156 8.9375 C 56.78125 8.9375 56.738281 8.871094 56.9375 8.746094 C 57.183594 8.597656 57.183594 8.511719 56.894531 8.234375 C 56.671875 8.019531 56.535156 7.53125 56.535156 6.9375 C 56.535156 6.019531 56.289062 5.679688 55.976562 6.171875 C 55.777344 6.488281 54.949219 5.914062 55.082031 5.554688 C 55.261719 5.128906 54.769531 4.894531 54.035156 5.042969 C 53.585938 5.128906 53.40625 5.0625 53.40625 4.871094 C 53.386719 4.679688 53.320312 4.703125 53.160156 4.957031 C 53.027344 5.171875 53.003906 5.445312 53.117188 5.597656 C 53.230469 5.746094 53.273438 6.277344 53.230469 6.808594 C 53.140625 8.234375 53.09375 8.488281 52.960938 8.46875 C 52.894531 8.46875 52.648438 8.46875 52.402344 8.511719 L 51.957031 8.53125 L 52.402344 8.722656 C 52.78125 8.871094 52.78125 8.914062 52.46875 8.914062 C 52.246094 8.9375 52.066406 9.085938 52.066406 9.253906 C 52.066406 9.617188 51.507812 9.679688 51.285156 9.363281 C 51.21875 9.253906 51.285156 9.148438 51.441406 9.148438 C 51.664062 9.148438 51.710938 8.765625 51.621094 7.445312 C 51.507812 5.851562 51.53125 5.746094 51.957031 5.746094 C 52.402344 5.722656 52.402344 5.722656 51.976562 5.425781 C 51.464844 5.042969 50.59375 5 50.367188 5.339844 C 50.28125 5.511719 50.167969 5.488281 50.035156 5.296875 C 49.921875 5.128906 49.832031 5.105469 49.832031 5.234375 C 49.832031 5.363281 50.035156 5.636719 50.28125 5.851562 C 50.523438 6.0625 50.726562 6.445312 50.726562 6.703125 C 50.726562 7.105469 50.546875 7.191406 49.496094 7.363281 C 48.269531 7.554688 48.246094 7.554688 48.601562 8.019531 C 48.960938 8.488281 48.960938 8.488281 49.386719 8.085938 C 49.789062 7.703125 50.503906 7.488281 50.503906 7.746094 C 50.503906 7.789062 50.570312 7.980469 50.636719 8.171875 C 50.726562 8.363281 50.546875 8.597656 50.101562 8.808594 C 49.742188 8.980469 49.386719 9.085938 49.339844 9.042969 C 49.273438 8.980469 49.050781 9.128906 48.828125 9.363281 C 48.46875 9.722656 48.46875 9.789062 48.761719 9.679688 C 49.050781 9.574219 49.09375 9.636719 49.003906 9.980469 C 48.917969 10.296875 48.984375 10.425781 49.25 10.425781 C 49.675781 10.425781 49.699219 10.320312 49.386719 9.789062 C 49.230469 9.511719 49.25 9.382812 49.476562 9.296875 C 49.898438 9.148438 50.726562 9.828125 50.75 10.339844 C 50.75 10.679688 50.792969 10.679688 50.949219 10.277344 C 51.0625 10 51.351562 9.789062 51.574219 9.789062 C 52.066406 9.789062 53.183594 10.636719 53.183594 11.019531 C 53.183594 11.171875 53.339844 11.277344 53.519531 11.277344 C 53.742188 11.277344 53.878906 11.511719 53.898438 11.980469 L 53.921875 12.660156 L 54.011719 11.980469 C 54.101562 11.382812 54.191406 11.277344 54.679688 11.277344 C 55.171875 11.277344 55.238281 11.339844 55.152344 11.914062 C 55.039062 12.703125 55.351562 12.894531 56.199219 12.574219 Z M 32.847656 10.382812 C 32.847656 10.320312 32.917969 10.105469 32.984375 9.914062 C 33.09375 9.660156 32.984375 9.574219 32.558594 9.574219 C 32.179688 9.574219 31.976562 9.425781 31.886719 9.105469 C 31.777344 8.722656 31.710938 8.679688 31.398438 8.9375 C 31.0625 9.191406 31.0625 9.253906 31.351562 9.46875 C 31.53125 9.574219 31.753906 10 31.820312 10.363281 C 31.976562 10.980469 32.023438 11.019531 32.425781 10.789062 C 32.648438 10.660156 32.847656 10.46875 32.847656 10.382812 Z M 31.285156 10.554688 C 31.285156 10.320312 30.546875 9.789062 30.367188 9.894531 C 29.945312 10.148438 30.167969 10.636719 30.726562 10.636719 C 31.039062 10.636719 31.285156 10.597656 31.285156 10.554688 Z M 45.363281 9.46875 C 45.363281 9.296875 45.160156 9.148438 44.917969 9.148438 C 44.425781 9.148438 44.3125 9.46875 44.761719 9.636719 C 45.230469 9.828125 45.363281 9.789062 45.363281 9.46875 Z M 23.777344 9.253906 C 25.273438 8.660156 25.855469 7.085938 25.117188 5.597656 C 24.445312 4.277344 22.613281 3.488281 22.257812 4.382812 C 22.191406 4.554688 21.988281 4.679688 21.808594 4.679688 C 21.652344 4.679688 21.453125 4.828125 21.363281 5 C 21.296875 5.191406 21.363281 5.320312 21.542969 5.320312 C 21.742188 5.320312 21.808594 5.46875 21.742188 5.722656 C 21.675781 5.9375 21.765625 6.339844 21.898438 6.597656 C 22.078125 6.914062 22.078125 7.019531 21.921875 6.9375 C 21.609375 6.746094 21.609375 7.191406 21.921875 8.042969 C 22.078125 8.46875 22.257812 8.660156 22.414062 8.574219 C 22.59375 8.46875 22.59375 8.53125 22.414062 8.746094 C 22.191406 9 22.191406 9.128906 22.390625 9.320312 C 22.726562 9.636719 22.792969 9.636719 23.777344 9.253906 Z M 33.878906 9.277344 C 34.054688 9.105469 34.191406 8.871094 34.191406 8.746094 C 34.191406 8.402344 33.609375 8.46875 33.296875 8.828125 C 33.140625 9 32.917969 9.085938 32.761719 9 C 32.625 8.914062 32.648438 9.019531 32.828125 9.210938 C 33.183594 9.660156 33.453125 9.660156 33.878906 9.277344 Z M 43.21875 9.234375 C 43.328125 8.980469 43.261719 8.914062 42.996094 9.019531 C 42.816406 9.085938 42.59375 9.148438 42.546875 9.148438 C 42.480469 9.148438 42.503906 9.253906 42.570312 9.363281 C 42.769531 9.679688 43.0625 9.617188 43.21875 9.234375 Z M 34.972656 8.488281 C 35.0625 8.363281 35.285156 8.320312 35.464844 8.382812 C 35.640625 8.445312 35.710938 8.402344 35.640625 8.296875 C 35.574219 8.171875 35.308594 8.085938 35.0625 8.085938 C 34.816406 8.085938 34.660156 8.171875 34.726562 8.277344 C 34.816406 8.382812 34.726562 8.53125 34.59375 8.574219 C 34.390625 8.660156 34.367188 8.703125 34.570312 8.703125 C 34.703125 8.722656 34.90625 8.617188 34.972656 8.488281 Z M 61.898438 8.636719 C 61.898438 8.277344 61.5625 7.871094 61.273438 7.871094 C 61.003906 7.871094 60.984375 7.808594 61.183594 7.617188 C 61.339844 7.46875 61.453125 7.148438 61.453125 6.894531 C 61.453125 6.617188 61.808594 6.0625 62.234375 5.617188 C 62.679688 5.171875 62.972656 4.957031 62.90625 5.148438 C 62.816406 5.363281 62.90625 5.511719 63.171875 5.574219 C 63.507812 5.660156 63.574219 5.53125 63.597656 4.914062 C 63.597656 4.488281 63.574219 4.277344 63.53125 4.425781 C 63.375 4.808594 63.0625 4.746094 62.90625 4.253906 C 62.769531 3.871094 62.726562 3.851562 62.300781 4.128906 C 61.964844 4.363281 61.71875 4.382812 61.40625 4.234375 C 61.183594 4.128906 60.984375 4.0625 60.984375 4.085938 C 60.894531 4.277344 60.871094 7.808594 60.9375 8.042969 C 61.003906 8.171875 61.230469 8.296875 61.429688 8.296875 C 61.742188 8.296875 61.742188 8.339844 61.453125 8.511719 C 61.160156 8.679688 61.183594 8.722656 61.519531 8.722656 C 61.71875 8.722656 61.898438 8.679688 61.898438 8.636719 Z M 59.328125 6.660156 C 59.464844 6.128906 60 6 60.179688 6.445312 C 60.269531 6.636719 60.3125 6.636719 60.3125 6.425781 C 60.335938 6.277344 60.179688 6.105469 59.976562 6.019531 C 59.417969 5.828125 58.996094 6.53125 59.015625 7.53125 C 59.0625 8.234375 59.082031 8.277344 59.152344 7.765625 C 59.195312 7.425781 59.285156 6.914062 59.328125 6.660156 Z M 63.105469 7.636719 C 62.949219 7.402344 62.191406 7.382812 62.035156 7.636719 C 61.832031 7.914062 62.078125 8.042969 62.679688 7.914062 C 62.996094 7.871094 63.171875 7.746094 63.105469 7.636719 Z M 36.984375 7.253906 C 36.917969 7 36.691406 6.808594 36.515625 6.808594 C 36.066406 6.808594 36.132812 7.617188 36.601562 7.703125 C 37.117188 7.828125 37.160156 7.765625 36.984375 7.253906 Z M 47.820312 7.425781 C 47.820312 7.320312 47.664062 7.234375 47.484375 7.234375 C 47.308594 7.234375 47.152344 7.382812 47.152344 7.554688 C 47.152344 7.746094 47.285156 7.808594 47.484375 7.746094 C 47.664062 7.660156 47.820312 7.53125 47.820312 7.425781 Z M 40.3125 7.382812 C 40.738281 6.980469 40.515625 6.554688 40 6.808594 C 39.753906 6.9375 39.621094 7.171875 39.6875 7.339844 C 39.84375 7.722656 39.957031 7.746094 40.3125 7.382812 Z M 35.082031 6.894531 C 35.082031 6.703125 34.882812 6.511719 34.613281 6.445312 C 34.347656 6.382812 34.210938 6.210938 34.28125 6.042969 C 34.347656 5.871094 34.324219 5.746094 34.210938 5.746094 C 34.101562 5.746094 33.964844 5.957031 33.878906 6.234375 C 33.652344 7.019531 33.609375 6.980469 34.925781 7.210938 C 35.015625 7.210938 35.082031 7.085938 35.082031 6.894531 Z M 31.6875 6.488281 C 31.867188 6.148438 31.867188 5.957031 31.710938 5.957031 C 31.574219 5.957031 31.574219 5.808594 31.730469 5.511719 C 32.066406 4.957031 31.933594 4.828125 31.195312 5.019531 C 30.792969 5.105469 30.613281 5.296875 30.613281 5.617188 C 30.613281 5.851562 30.546875 6.277344 30.480469 6.554688 C 30.28125 7.253906 31.351562 7.210938 31.6875 6.488281 Z M 41.855469 6.402344 C 41.921875 6.128906 41.855469 6.019531 41.652344 6.085938 C 40.558594 6.402344 40.558594 6.402344 40.894531 6.597656 C 41.40625 6.914062 41.71875 6.851562 41.855469 6.402344 Z M 50.28125 6.636719 C 50.28125 6.042969 49.003906 5.914062 48.515625 6.46875 C 48.359375 6.636719 48.582031 6.722656 49.296875 6.765625 C 49.832031 6.789062 50.28125 6.746094 50.28125 6.636719 Z M 63.6875 6.382812 C 63.6875 6.0625 63.238281 5.914062 62.660156 6.042969 C 61.988281 6.210938 61.964844 6.53125 62.636719 6.636719 C 63.21875 6.746094 63.6875 6.617188 63.6875 6.382812 Z M 40 5.234375 C 40 5.617188 40.671875 5.789062 40.671875 5.402344 C 40.671875 5.234375 40.582031 5.148438 40.445312 5.210938 C 40.3125 5.277344 40.222656 5.128906 40.222656 4.851562 C 40.222656 4.511719 40.15625 4.445312 40.023438 4.636719 C 39.867188 4.894531 39.484375 5.019531 38.839844 5.085938 C 38.503906 5.128906 38.660156 5.53125 38.996094 5.53125 C 39.171875 5.53125 39.328125 5.660156 39.328125 5.808594 C 39.351562 5.9375 39.484375 5.828125 39.664062 5.53125 C 39.84375 5.234375 39.976562 5.105469 40 5.234375 Z M 15.53125 5.320312 C 15.820312 5.320312 16.113281 5.445312 16.15625 5.597656 C 16.222656 5.722656 16.402344 5.554688 16.558594 5.191406 C 16.894531 4.363281 17.945312 3.722656 18.457031 4 C 18.972656 4.277344 20.78125 3.085938 20.804688 2.46875 C 20.917969 0.636719 20.984375 0.746094 19.957031 0.722656 C 19.308594 0.703125 18.996094 0.789062 18.996094 0.980469 C 18.996094 1.128906 19.171875 1.296875 19.398438 1.339844 C 19.6875 1.425781 19.640625 1.445312 19.285156 1.46875 C 18.996094 1.46875 18.769531 1.402344 18.769531 1.277344 C 18.769531 1.171875 18.324219 1.0625 17.789062 1.0625 C 16.984375 1.0625 16.78125 1.148438 16.691406 1.511719 C 16.582031 1.894531 16.445312 1.9375 15.886719 1.808594 C 15.507812 1.722656 15.195312 1.765625 15.195312 1.871094 C 15.195312 1.980469 14.90625 2.363281 14.546875 2.703125 C 13.808594 3.445312 13.542969 3.894531 13.320312 4.746094 C 13.183594 5.277344 13.230469 5.320312 13.832031 5.320312 C 14.191406 5.320312 14.570312 5.425781 14.660156 5.574219 C 14.792969 5.765625 14.859375 5.765625 14.925781 5.574219 C 14.972656 5.425781 15.238281 5.320312 15.53125 5.320312 Z M 15.53125 5.320312 "/>
<path style=" stroke:none;fill-rule:nonzero;fill:rgb(80.392157%,81.176471%,81.176471%);fill-opacity:1;" d="M 54.414062 9.382812 C 54.234375 8.789062 54.480469 8.425781 54.839844 8.703125 C 55.238281 9.019531 55.417969 8.765625 55.417969 7.9375 C 55.417969 7.019531 55.664062 7.042969 56.132812 8.042969 C 56.535156 8.894531 56.445312 9.105469 55.664062 9.253906 C 55.375 9.296875 55.015625 9.445312 54.859375 9.574219 C 54.636719 9.746094 54.523438 9.703125 54.414062 9.382812 Z M 54.414062 9.382812 "/>
<path style=" stroke:none;fill-rule:nonzero;fill:rgb(80.392157%,81.176471%,81.176471%);fill-opacity:1;" d="M 16.984375 2.234375 C 16.984375 2.0625 17.183594 1.914062 17.429688 1.914062 C 17.675781 1.914062 17.878906 2.0625 17.878906 2.234375 C 17.878906 2.402344 17.675781 2.554688 17.429688 2.554688 C 17.183594 2.554688 16.984375 2.402344 16.984375 2.234375 Z M 16.984375 2.234375 "/>
<path style=" stroke:none;fill-rule:nonzero;fill:rgb(0%,0%,0%);fill-opacity:1;" d="M 20.828125 10.703125 C 19.957031 10.53125 18.390625 8.9375 18.101562 7.894531 C 17.117188 4.402344 21.160156 1.636719 24.378906 3.597656 C 25.632812 4.339844 26.167969 5.363281 26.167969 6.914062 C 26.167969 9.617188 23.867188 11.253906 20.828125 10.703125 Z M 24.023438 9.0625 C 26.121094 7.53125 25.074219 4.320312 22.414062 4.105469 C 20.558594 3.957031 19.152344 5.171875 19.152344 6.894531 C 19.152344 9.296875 21.964844 10.554688 24.023438 9.0625 Z M 24.023438 9.0625 "/>
<path style=" stroke:none;fill-rule:nonzero;fill:rgb(0%,0%,0%);fill-opacity:1;" d="M 32.402344 8.746094 C 32.402344 8.445312 33.964844 5.019531 34.210938 4.789062 C 34.546875 4.46875 34.972656 5.085938 35.710938 7.085938 C 36.179688 8.339844 36.3125 8.9375 36.132812 8.9375 C 35.976562 8.9375 35.730469 8.660156 35.597656 8.296875 C 35.375 7.722656 35.261719 7.660156 34.347656 7.660156 C 33.429688 7.660156 33.320312 7.722656 33.09375 8.296875 C 32.894531 8.894531 32.402344 9.191406 32.402344 8.746094 Z M 35.308594 7.128906 C 35.308594 6.9375 34.414062 5.320312 34.324219 5.320312 C 34.28125 5.320312 34.078125 5.746094 33.898438 6.277344 L 33.542969 7.234375 L 34.4375 7.234375 C 34.90625 7.234375 35.308594 7.191406 35.308594 7.128906 Z M 35.308594 7.128906 "/>
<path style=" stroke:none;fill-rule:nonzero;fill:rgb(0%,0%,0%);fill-opacity:1;" d="M 37.09375 7.277344 L 37.09375 5.617188 L 38.035156 5.597656 C 38.546875 5.574219 39.105469 5.660156 39.261719 5.789062 C 39.621094 6.0625 39.664062 8.9375 39.328125 8.9375 C 39.195312 8.9375 39.105469 8.339844 39.105469 7.554688 C 39.105469 6.445312 39.015625 6.128906 38.75 6.019531 C 38.011719 5.765625 37.652344 6.253906 37.585938 7.636719 C 37.496094 9.511719 37.09375 9.234375 37.09375 7.277344 Z M 37.09375 7.277344 "/>
<path style=" stroke:none;fill-rule:nonzero;fill:rgb(0%,0%,0%);fill-opacity:1;" d="M 40.601562 8.789062 C 40.269531 8.46875 40.492188 8.253906 41.027344 8.382812 C 41.675781 8.554688 42.457031 8.363281 42.457031 8.0625 C 42.457031 7.9375 41.988281 7.660156 41.429688 7.425781 C 40.515625 7.019531 40.425781 6.9375 40.492188 6.320312 C 40.558594 5.722656 40.648438 5.636719 41.296875 5.574219 C 42.011719 5.511719 42.679688 5.808594 42.679688 6.210938 C 42.679688 6.320312 42.480469 6.296875 42.210938 6.171875 C 41.742188 5.914062 40.671875 6.042969 40.671875 6.339844 C 40.671875 6.445312 41.183594 6.722656 41.789062 6.957031 C 43.015625 7.445312 43.21875 7.957031 42.503906 8.574219 C 42.101562 8.9375 40.871094 9.0625 40.601562 8.789062 Z M 40.601562 8.789062 "/>
<path style=" stroke:none;fill-rule:nonzero;fill:rgb(0%,0%,0%);fill-opacity:1;" d="M 44.15625 8.679688 C 43.933594 7.894531 43.351562 5.746094 43.351562 5.636719 C 43.351562 5.574219 43.441406 5.53125 43.554688 5.53125 C 43.640625 5.53125 43.867188 6.105469 44.023438 6.808594 C 44.179688 7.511719 44.378906 8.019531 44.492188 7.980469 C 44.582031 7.914062 44.78125 7.339844 44.917969 6.679688 C 45.25 5.210938 45.609375 5.277344 46.011719 6.871094 C 46.347656 8.210938 46.59375 8.277344 46.816406 7.042969 C 46.949219 6.277344 47.574219 5.128906 47.574219 5.636719 C 47.574219 6.128906 46.546875 8.808594 46.324219 8.871094 C 46.191406 8.914062 46.011719 8.554688 45.945312 8.042969 C 45.699219 6.46875 45.429688 6.382812 45.027344 7.722656 C 44.671875 8.871094 44.335938 9.253906 44.15625 8.679688 Z M 44.15625 8.679688 "/>
<path style=" stroke:none;fill-rule:nonzero;fill:rgb(0%,0%,0%);fill-opacity:1;" d="M 48.402344 8.53125 C 47.777344 7.871094 47.710938 6.789062 48.269531 6.105469 C 49.09375 5.105469 50.726562 5.53125 50.726562 6.765625 C 50.726562 7.191406 50.613281 7.234375 49.632812 7.234375 C 48.3125 7.234375 48.113281 7.425781 48.691406 8.105469 C 49.09375 8.574219 49.183594 8.597656 49.855469 8.363281 C 50.703125 8.042969 51.015625 8.210938 50.414062 8.636719 C 49.789062 9.0625 48.847656 9 48.402344 8.53125 Z M 50.28125 6.488281 C 50.28125 5.9375 49.183594 5.851562 48.648438 6.363281 L 48.179688 6.808594 L 49.230469 6.808594 C 50.011719 6.808594 50.28125 6.722656 50.28125 6.488281 Z M 50.28125 6.488281 "/>
<path style=" stroke:none;fill-rule:nonzero;fill:rgb(0%,0%,0%);fill-opacity:1;" d="M 51.574219 7.363281 L 51.507812 5.765625 L 52.269531 5.636719 C 52.691406 5.554688 53.117188 5.597656 53.25 5.722656 C 53.429688 5.894531 53.320312 5.957031 52.917969 5.957031 C 52.222656 5.957031 52.066406 6.277344 52.066406 7.789062 C 52.066406 9.53125 51.664062 9.171875 51.574219 7.363281 Z M 51.574219 7.363281 "/>
<path style=" stroke:none;fill-rule:nonzero;fill:rgb(0%,0%,0%);fill-opacity:1;" d="M 55.554688 8.597656 C 55.484375 8.402344 55.417969 7.746094 55.417969 7.128906 C 55.417969 6.425781 55.308594 5.9375 55.152344 5.871094 C 54.925781 5.765625 54.925781 5.722656 55.152344 5.617188 C 55.285156 5.554688 55.417969 5.320312 55.417969 5.085938 C 55.417969 4.871094 55.53125 4.679688 55.640625 4.679688 C 55.777344 4.679688 55.867188 4.808594 55.867188 4.980469 C 55.867188 5.128906 56.023438 5.382812 56.222656 5.554688 C 56.535156 5.789062 56.535156 5.828125 56.222656 6 C 55.730469 6.253906 55.753906 8.019531 56.246094 8.554688 C 56.582031 8.914062 56.582031 8.9375 56.15625 8.9375 C 55.886719 8.9375 55.621094 8.789062 55.554688 8.597656 Z M 55.554688 8.597656 "/>
<path style=" stroke:none;fill-rule:nonzero;fill:rgb(0%,0%,0%);fill-opacity:1;" d="M 57.207031 7.234375 C 57.207031 6.234375 57.296875 5.53125 57.429688 5.53125 C 57.5625 5.53125 57.652344 6.234375 57.652344 7.234375 C 57.652344 8.234375 57.5625 8.9375 57.429688 8.9375 C 57.296875 8.9375 57.207031 8.234375 57.207031 7.234375 Z M 57.207031 7.234375 "/>
<path style=" stroke:none;fill-rule:nonzero;fill:rgb(0%,0%,0%);fill-opacity:1;" d="M 58.703125 8.789062 C 58.613281 8.722656 58.546875 8.0625 58.546875 7.320312 C 58.546875 6.46875 58.457031 5.957031 58.28125 5.871094 C 58.054688 5.765625 58.054688 5.722656 58.28125 5.617188 C 58.414062 5.554688 58.546875 5.320312 58.546875 5.085938 C 58.546875 4.511719 58.882812 4.597656 59.195312 5.253906 C 59.375 5.636719 59.398438 5.871094 59.21875 6.042969 C 58.859375 6.382812 58.949219 8.105469 59.375 8.554688 C 59.710938 8.914062 59.710938 8.9375 59.285156 8.9375 C 59.039062 8.9375 58.769531 8.871094 58.703125 8.789062 Z M 58.703125 8.789062 "/>
<path style=" stroke:none;fill-rule:nonzero;fill:rgb(0%,0%,0%);fill-opacity:1;" d="M 60.335938 6.808594 C 60.335938 5.53125 60.425781 4.679688 60.558594 4.679688 C 60.691406 4.679688 60.78125 5.53125 60.78125 6.808594 C 60.78125 8.085938 60.691406 8.9375 60.558594 8.9375 C 60.425781 8.9375 60.335938 8.085938 60.335938 6.808594 Z M 60.335938 6.808594 "/>
<path style=" stroke:none;fill-rule:nonzero;fill:rgb(0%,0%,0%);fill-opacity:1;" d="M 61.789062 8.296875 C 61.609375 7.957031 61.453125 7.402344 61.453125 7.0625 C 61.453125 6.363281 62.257812 5.53125 62.972656 5.53125 C 63.53125 5.53125 64.359375 6.296875 64.359375 6.851562 C 64.359375 7.171875 64.15625 7.234375 63.128906 7.234375 C 61.765625 7.234375 61.5625 7.511719 62.367188 8.191406 C 62.75 8.53125 62.90625 8.554688 63.507812 8.339844 C 63.910156 8.210938 64.269531 8.148438 64.335938 8.191406 C 64.558594 8.425781 63.554688 8.914062 62.859375 8.9375 C 62.28125 8.9375 62.054688 8.808594 61.789062 8.296875 Z M 63.867188 6.554688 C 63.6875 6.042969 63.082031 5.871094 62.457031 6.128906 C 62.144531 6.277344 61.945312 6.488281 62.011719 6.597656 C 62.210938 6.914062 63.976562 6.871094 63.867188 6.554688 Z M 63.867188 6.554688 "/>
</g>
</svg>
