<?xml version="1.0" encoding="UTF-8"?>
<svg xmlns="http://www.w3.org/2000/svg" xmlns:xlink="http://www.w3.org/1999/xlink" width="80px" height="80px" viewBox="0 0 80 80" version="1.1">
<g id="surface1">
<path style=" stroke:none;fill-rule:nonzero;fill:rgb(98.039216%,98.431373%,98.039216%);fill-opacity:1;" d="M 0 40 L 0 0 L 66.882812 0 L 66.882812 80 L 0 80 Z M 22.925781 48.28125 C 19.03125 48.230469 17.03125 48.101562 16.839844 47.898438 C 16.601562 47.691406 16.582031 47.71875 16.6875 48.050781 C 16.816406 48.410156 17.417969 48.460938 22.773438 48.410156 L 28.710938 48.332031 Z M 37.160156 48.28125 C 36 48.230469 34.109375 48.230469 32.96875 48.28125 C 31.804688 48.308594 32.753906 48.359375 35.054688 48.359375 C 37.355469 48.359375 38.300781 48.308594 37.160156 48.28125 Z M 48.625 48.027344 C 48.882812 47.617188 48.882812 47.589844 48.582031 47.871094 C 48.367188 48.078125 47.074219 48.207031 44.710938 48.28125 L 41.183594 48.359375 L 44.753906 48.410156 C 47.933594 48.460938 48.367188 48.410156 48.625 48.027344 Z M 45.804688 45.460938 C 45.804688 45.332031 45.289062 44.382812 44.667969 43.332031 C 44.066406 42.257812 42.882812 40.230469 42.042969 38.792969 C 41.226562 37.359375 40.496094 36.179688 40.429688 36.179688 C 40.367188 36.179688 39.632812 37.4375 38.796875 38.921875 C 37.3125 41.589844 37.246094 41.667969 36.386719 41.742188 L 35.527344 41.820312 L 34.300781 39.207031 C 33.613281 37.769531 32.667969 35.71875 32.171875 34.617188 C 30.042969 29.792969 28.28125 26.179688 28.152344 26.359375 C 28.066406 26.460938 27.527344 27.640625 26.925781 28.972656 C 25.976562 31.128906 23.226562 37.078125 20.539062 42.820312 C 20.042969 43.871094 19.589844 44.949219 19.503906 45.207031 C 19.375 45.617188 20.085938 45.640625 32.582031 45.640625 C 39.847656 45.640625 45.804688 45.5625 45.804688 45.460938 Z M 24.128906 29.5625 C 24.96875 28.617188 25.074219 27.640625 24.515625 26.539062 C 24 25.539062 23.484375 25.128906 22.796875 25.128906 C 22 25.128906 21.054688 25.898438 20.730469 26.820312 C 20.472656 27.589844 20.472656 27.820312 20.730469 28.589844 C 21.117188 29.691406 22.257812 30.589844 23.011719 30.382812 C 23.3125 30.28125 23.804688 29.921875 24.128906 29.5625 Z M 24.128906 29.5625 "/>
<path style=" stroke:none;fill-rule:nonzero;fill:rgb(90.980392%,90.196078%,90.588235%);fill-opacity:1;" d="M 16.042969 48.820312 C 15.890625 48.359375 15.847656 21.792969 16 21.617188 C 16.042969 21.539062 23.460938 21.460938 32.472656 21.4375 C 43.871094 21.382812 48.925781 21.460938 49.140625 21.640625 C 49.417969 21.871094 49.460938 23.949219 49.460938 35.230469 C 49.484375 44.921875 49.417969 48.617188 49.226562 48.871094 C 49.011719 49.179688 46.34375 49.230469 32.582031 49.230469 C 17.71875 49.230469 16.171875 49.179688 16.042969 48.820312 Z M 30.324219 47.691406 C 30.324219 47.28125 39.460938 47.359375 40.023438 47.769531 C 40.386719 48.027344 40.515625 48.027344 40.582031 47.769531 C 40.667969 47.511719 41.570312 47.4375 44.195312 47.4375 C 46.730469 47.4375 47.742188 47.359375 47.914062 47.128906 C 48.152344 46.769531 48.257812 24.769531 48.042969 23.667969 L 47.914062 23.078125 L 32.601562 23.128906 L 17.3125 23.207031 L 17.246094 34.972656 C 17.226562 43.410156 17.269531 46.847656 17.441406 47.078125 C 17.632812 47.359375 18.859375 47.4375 23.460938 47.4375 C 27.074219 47.4375 29.269531 47.539062 29.355469 47.691406 C 29.417969 47.847656 29.675781 47.949219 29.914062 47.949219 C 30.128906 47.949219 30.324219 47.847656 30.324219 47.691406 Z M 30.324219 47.691406 "/>
<path style=" stroke:none;fill-rule:nonzero;fill:rgb(90.980392%,90.196078%,90.588235%);fill-opacity:1;" d="M 18.367188 46.050781 C 18.300781 45.847656 18.539062 45.078125 18.882812 44.332031 C 19.226562 43.5625 20.195312 41.460938 21.011719 39.617188 C 21.847656 37.792969 23.140625 35.027344 23.871094 33.460938 C 24.601562 31.921875 25.804688 29.308594 26.515625 27.691406 C 27.828125 24.691406 28.128906 24.207031 28.453125 24.589844 C 28.667969 24.847656 31.613281 31.101562 33.011719 34.230469 C 34.925781 38.5625 36.171875 41.050781 36.410156 40.949219 C 36.539062 40.898438 37.417969 39.488281 38.386719 37.820312 C 39.332031 36.152344 40.238281 34.742188 40.367188 34.691406 C 40.667969 34.5625 40.730469 34.640625 42.710938 38.078125 C 46.515625 44.617188 47.117188 45.71875 47.011719 46.050781 C 46.839844 46.589844 18.539062 46.589844 18.367188 46.050781 Z M 45.011719 44.667969 C 43.570312 42.050781 40.558594 36.921875 40.453125 36.921875 C 40.386719 36.921875 39.632812 38.128906 38.816406 39.617188 L 37.3125 42.308594 L 36.34375 42.308594 C 35.417969 42.308594 35.355469 42.257812 34.859375 41.207031 C 34.582031 40.617188 33.871094 39.101562 33.289062 37.820312 C 31.933594 34.921875 29.332031 29.207031 28.710938 27.71875 L 28.214844 26.589844 L 27.3125 28.742188 C 26.816406 29.921875 25.355469 33.152344 24.085938 35.898438 C 22.816406 38.640625 21.332031 41.898438 20.773438 43.152344 L 19.742188 45.382812 L 45.417969 45.382812 Z M 45.011719 44.667969 "/>
<path style=" stroke:none;fill-rule:nonzero;fill:rgb(90.980392%,90.196078%,90.588235%);fill-opacity:1;" d="M 21.117188 30.769531 C 19.375 29.460938 19.375 25.792969 21.117188 24.71875 C 21.890625 24.230469 23.589844 24.179688 24.28125 24.589844 C 25.742188 25.539062 26.042969 28.820312 24.773438 30.308594 C 23.890625 31.382812 22.195312 31.589844 21.117188 30.769531 Z M 24.367188 28.539062 C 24.730469 27.792969 24.730469 27.667969 24.429688 26.949219 C 23.71875 25.332031 22.625 24.972656 21.675781 26.027344 C 20.558594 27.257812 20.710938 28.820312 22.042969 29.769531 C 22.644531 30.230469 22.710938 30.230469 23.3125 29.792969 C 23.675781 29.539062 24.152344 28.972656 24.367188 28.539062 Z M 24.367188 28.539062 "/>
<path style=" stroke:none;fill-rule:nonzero;fill:rgb(90.980392%,90.196078%,90.588235%);fill-opacity:1;" d="M 66.085938 41.359375 C 66.171875 41.28125 66.128906 41.050781 66 40.871094 C 65.847656 40.667969 65.847656 40.511719 66.023438 40.382812 C 66.152344 40.308594 66.195312 40.101562 66.128906 39.972656 C 66.042969 39.847656 66.152344 39.742188 66.324219 39.742188 C 66.582031 39.742188 66.667969 40 66.667969 40.640625 C 66.667969 41.308594 66.582031 41.539062 66.300781 41.539062 C 66.109375 41.539062 66.023438 41.460938 66.085938 41.359375 Z M 66.085938 41.359375 "/>
<path style=" stroke:none;fill-rule:nonzero;fill:rgb(90.980392%,90.196078%,90.588235%);fill-opacity:1;" d="M 66.128906 39.257812 C 66.195312 39.128906 66.152344 38.921875 66.023438 38.847656 C 65.847656 38.71875 65.847656 38.5625 66.023438 38.332031 C 66.195312 38.101562 66.195312 37.949219 66.023438 37.820312 C 65.742188 37.617188 65.742188 36.488281 66.023438 36.28125 C 66.152344 36.179688 66.195312 36 66.128906 35.871094 C 66.042969 35.742188 66.152344 35.640625 66.324219 35.640625 C 66.601562 35.640625 66.667969 36 66.667969 37.5625 C 66.667969 39.128906 66.601562 39.488281 66.324219 39.488281 C 66.152344 39.488281 66.042969 39.382812 66.128906 39.257812 Z M 66.128906 39.257812 "/>
<path style=" stroke:none;fill-rule:nonzero;fill:rgb(81.960784%,81.568627%,81.960784%);fill-opacity:1;" d="M 66.214844 61.871094 C 66.195312 51.871094 66.171875 41.820312 66.171875 39.488281 C 66.171875 37.152344 66.171875 27.332031 66.195312 17.640625 C 66.238281 0.179688 66.238281 0 66.667969 0 C 67.097656 0 67.097656 0.179688 67.097656 15.257812 L 67.097656 30.511719 L 68.171875 30.511719 C 68.773438 30.511719 69.246094 30.640625 69.246094 30.769531 C 69.246094 30.921875 69.398438 31.027344 69.570312 31.027344 C 70.109375 31.027344 70.171875 31.617188 69.890625 34.128906 C 69.613281 36.589844 69.375 37.179688 68.625 37.179688 C 68.386719 37.179688 68.128906 37.308594 68.066406 37.4375 C 68 37.589844 67.742188 37.691406 67.503906 37.691406 C 67.140625 37.691406 67.097656 37.871094 67.097656 39.742188 C 67.097656 41.742188 67.117188 41.792969 67.613281 41.792969 C 67.957031 41.792969 68.195312 41.972656 68.28125 42.332031 C 68.386719 42.71875 68.496094 42.792969 68.667969 42.589844 C 68.796875 42.4375 69.460938 42.308594 70.152344 42.308594 L 71.398438 42.308594 L 71.398438 43.332031 C 71.398438 44.027344 71.289062 44.4375 71.074219 44.511719 C 70.859375 44.617188 70.753906 45.027344 70.753906 45.640625 C 70.753906 46.179688 70.6875 46.667969 70.601562 46.742188 C 70.496094 46.792969 70.558594 46.792969 70.710938 46.742188 C 70.882812 46.71875 71.484375 46.667969 72.066406 46.667969 L 73.117188 46.667969 L 73.117188 45.410156 C 73.117188 43.871094 73.503906 43.332031 74.582031 43.332031 C 75.460938 43.359375 76.128906 43.820312 76.128906 44.4375 C 76.128906 44.871094 76.558594 45.128906 77.355469 45.128906 C 77.890625 45.128906 77.914062 45.152344 77.761719 46.488281 C 77.699219 47.207031 77.632812 48.078125 77.632812 48.410156 C 77.632812 48.898438 77.527344 48.972656 76.667969 48.972656 C 75.785156 48.972656 75.699219 48.921875 75.699219 48.332031 C 75.699219 47.769531 75.613281 47.691406 74.839844 47.691406 C 73.976562 47.691406 73.976562 47.691406 73.976562 48.691406 C 73.976562 50.128906 73.570312 50.511719 72.023438 50.511719 C 70.816406 50.511719 70.753906 50.539062 70.753906 51.152344 C 70.753906 51.742188 70.667969 51.792969 69.785156 51.792969 C 68.816406 51.792969 68.816406 51.792969 68.816406 50.898438 C 68.816406 50.078125 68.859375 50 69.460938 50 C 70.109375 50 70.109375 49.972656 70.109375 48.589844 C 70.109375 47.179688 70.109375 47.179688 69.441406 47.179688 C 69.054688 47.179688 68.386719 47.308594 67.933594 47.488281 L 67.097656 47.769531 L 67.097656 63.898438 C 67.097656 79.820312 67.097656 80 66.667969 80 C 66.238281 80 66.238281 79.820312 66.214844 61.871094 Z M 66.214844 61.871094 "/>
<path style=" stroke:none;fill-rule:nonzero;fill:rgb(81.960784%,81.568627%,81.960784%);fill-opacity:1;" d="M 72.6875 52.949219 C 72.6875 52.179688 72.753906 52.050781 73.203125 52.050781 C 73.589844 52.050781 73.742188 51.871094 73.847656 51.28125 C 73.957031 50.617188 74.066406 50.511719 74.625 50.511719 C 75.484375 50.511719 75.914062 51.027344 75.914062 52.027344 C 75.914062 52.640625 75.828125 52.820312 75.484375 52.820312 C 75.203125 52.820312 75.054688 53 75.054688 53.332031 C 75.054688 53.792969 74.902344 53.847656 73.871094 53.847656 L 72.6875 53.847656 Z M 72.6875 52.949219 "/>
<path style=" stroke:none;fill-rule:nonzero;fill:rgb(81.960784%,81.568627%,81.960784%);fill-opacity:1;" d="M 78.28125 51.410156 C 78.28125 50.5625 78.324219 50.511719 79.03125 50.511719 C 79.742188 50.511719 79.785156 50.5625 79.785156 51.410156 C 79.785156 52.257812 79.742188 52.308594 79.03125 52.308594 C 78.324219 52.308594 78.28125 52.257812 78.28125 51.410156 Z M 78.28125 51.410156 "/>
<path style=" stroke:none;fill-rule:nonzero;fill:rgb(81.960784%,81.568627%,81.960784%);fill-opacity:1;" d="M 16.28125 48.539062 C 16.195312 48.460938 16.128906 42.382812 16.128906 35.078125 L 16.128906 21.792969 L 49.246094 21.792969 L 49.203125 35.207031 L 49.140625 48.589844 L 32.773438 48.667969 C 23.785156 48.691406 16.34375 48.640625 16.28125 48.539062 Z M 48.214844 47.359375 C 48.429688 46.949219 48.429688 23.5625 48.214844 23.128906 C 48.066406 22.871094 44.796875 22.820312 32.558594 22.871094 L 17.097656 22.949219 L 17.03125 34.972656 C 17.011719 43.5625 17.054688 47.101562 17.226562 47.332031 C 17.503906 47.742188 23.632812 47.871094 38.710938 47.742188 C 45.828125 47.691406 48.085938 47.617188 48.214844 47.359375 Z M 48.214844 47.359375 "/>
<path style=" stroke:none;fill-rule:nonzero;fill:rgb(81.960784%,81.568627%,81.960784%);fill-opacity:1;" d="M 18.710938 45.792969 C 18.710938 45.617188 20.023438 42.589844 21.632812 39.078125 C 23.246094 35.5625 25.203125 31.257812 25.976562 29.488281 C 26.753906 27.71875 27.570312 25.949219 27.804688 25.539062 C 28.214844 24.847656 28.257812 24.820312 28.539062 25.28125 C 28.710938 25.5625 29.074219 26.28125 29.332031 26.921875 C 29.976562 28.410156 32.539062 34.101562 33.933594 37.050781 C 34.515625 38.332031 35.226562 39.847656 35.503906 40.4375 C 35.785156 41.050781 36.171875 41.539062 36.34375 41.539062 C 36.515625 41.539062 37.441406 40.152344 38.367188 38.460938 C 39.3125 36.792969 40.195312 35.359375 40.34375 35.28125 C 40.515625 35.207031 41.332031 36.359375 42.429688 38.28125 C 43.417969 40 44.773438 42.359375 45.441406 43.511719 C 46.128906 44.691406 46.667969 45.742188 46.667969 45.898438 C 46.667969 46.078125 41.933594 46.152344 32.6875 46.152344 C 21.03125 46.152344 18.710938 46.101562 18.710938 45.792969 Z M 28.28125 43.871094 C 28.386719 43.460938 28.601562 43.332031 29.160156 43.332031 C 29.570312 43.332031 29.890625 43.460938 29.890625 43.589844 C 29.890625 43.742188 30.195312 43.847656 30.539062 43.847656 C 30.902344 43.847656 31.183594 43.972656 31.183594 44.101562 C 31.183594 44.257812 32.042969 44.359375 33.332031 44.359375 C 35.097656 44.359375 35.484375 44.28125 35.484375 43.972656 C 35.484375 43.769531 35.289062 43.589844 35.054688 43.589844 C 34.710938 43.589844 34.625 43.410156 34.625 42.617188 C 34.625 41.5625 33.074219 38.257812 32.945312 39.050781 C 32.859375 39.617188 31.355469 39.640625 30.988281 39.128906 C 30.839844 38.921875 30.753906 38.257812 30.796875 37.640625 C 30.859375 36.640625 30.925781 36.539062 31.460938 36.460938 C 31.785156 36.410156 32.042969 36.332031 32.042969 36.28125 C 32.042969 36.078125 30.023438 31.617188 29.761719 31.257812 C 29.589844 31.050781 29.460938 30.71875 29.460938 30.5625 C 29.460938 30.382812 29.269531 30.257812 29.03125 30.257812 C 28.796875 30.257812 28.601562 30.101562 28.601562 29.898438 C 28.601562 29.691406 28.429688 29.460938 28.238281 29.359375 C 27.804688 29.179688 26.882812 30.257812 26.882812 30.921875 C 26.882812 31.128906 26.773438 31.28125 26.644531 31.28125 C 26.539062 31.28125 26.496094 31.410156 26.558594 31.5625 C 26.644531 31.691406 26.644531 32.511719 26.558594 33.359375 C 26.429688 34.617188 26.34375 34.871094 26 34.871094 C 25.699219 34.871094 25.589844 35.050781 25.589844 35.511719 C 25.589844 36.027344 25.484375 36.152344 25.074219 36.152344 C 24.644531 36.152344 24.558594 36.308594 24.429688 37.257812 C 24.34375 37.847656 24.28125 38.871094 24.300781 39.539062 C 24.300781 40.179688 24.214844 40.792969 24.085938 40.898438 C 23.976562 40.972656 23.871094 41.4375 23.871094 41.898438 C 23.871094 42.640625 23.785156 42.769531 23.203125 42.921875 C 22.839844 43 22.300781 43.078125 22.023438 43.078125 C 21.503906 43.078125 21.417969 43.257812 21.613281 43.898438 C 21.699219 44.152344 22.515625 44.257812 24.925781 44.308594 C 28.023438 44.410156 28.128906 44.382812 28.28125 43.871094 Z M 38.644531 43.589844 C 38.730469 43.050781 38.882812 42.820312 39.160156 42.820312 C 39.484375 42.820312 39.570312 42.617188 39.570312 41.792969 C 39.570312 41.230469 39.675781 40.769531 39.785156 40.769531 C 39.914062 40.769531 40 40.667969 40 40.511719 C 40 40.050781 39.226562 40.257812 38.773438 40.847656 C 38.367188 41.382812 37.847656 43.101562 37.847656 43.949219 C 37.847656 44.691406 38.496094 44.410156 38.644531 43.589844 Z M 42.367188 44 C 42.367188 43.792969 42.28125 43.539062 42.152344 43.460938 C 42.042969 43.382812 41.933594 43.4375 41.933594 43.589844 C 41.933594 43.742188 41.71875 43.972656 41.460938 44.101562 C 41.011719 44.308594 41.03125 44.332031 41.675781 44.332031 C 42.128906 44.359375 42.367188 44.230469 42.367188 44 Z M 42.367188 44 "/>
<path style=" stroke:none;fill-rule:nonzero;fill:rgb(81.960784%,81.568627%,81.960784%);fill-opacity:1;" d="M 29.246094 41.152344 L 29.246094 40.257812 L 31.613281 40.257812 L 31.613281 42.050781 L 29.246094 42.050781 Z M 29.246094 41.152344 "/>
<path style=" stroke:none;fill-rule:nonzero;fill:rgb(81.960784%,81.568627%,81.960784%);fill-opacity:1;" d="M 27.097656 39.617188 C 27.097656 38.769531 27.140625 38.71875 27.847656 38.71875 C 28.558594 38.71875 28.601562 38.769531 28.601562 39.617188 C 28.601562 40.460938 28.558594 40.511719 27.847656 40.511719 C 27.140625 40.511719 27.097656 40.460938 27.097656 39.617188 Z M 27.097656 39.617188 "/>
<path style=" stroke:none;fill-rule:nonzero;fill:rgb(81.960784%,81.568627%,81.960784%);fill-opacity:1;" d="M 21.484375 30.640625 C 20.300781 29.871094 19.785156 28.050781 20.300781 26.539062 C 20.796875 25.128906 21.417969 24.640625 22.6875 24.617188 C 23.914062 24.617188 24.582031 25.050781 25.054688 26.152344 C 26.257812 28.921875 23.742188 32.101562 21.484375 30.640625 Z M 21.484375 30.640625 "/>
<path style=" stroke:none;fill-rule:nonzero;fill:rgb(81.960784%,81.568627%,81.960784%);fill-opacity:1;" d="M 72.300781 42.078125 C 71.742188 40.921875 71.675781 39.101562 72.152344 38.359375 C 72.558594 37.71875 72.558594 37.179688 72.152344 37.179688 C 71.933594 37.179688 71.828125 36.898438 71.828125 36.28125 C 71.828125 35.4375 71.871094 35.382812 72.582031 35.382812 C 73.183594 35.382812 73.332031 35.488281 73.332031 35.898438 C 73.332031 36.207031 73.484375 36.410156 73.675781 36.410156 C 74.109375 36.410156 75.011719 37.511719 75.289062 38.382812 C 75.914062 40.332031 74.796875 43.078125 73.375 43.078125 C 72.902344 43.078125 72.667969 42.871094 72.300781 42.078125 Z M 72.300781 42.078125 "/>
<path style=" stroke:none;fill-rule:nonzero;fill:rgb(81.960784%,81.568627%,81.960784%);fill-opacity:1;" d="M 77.203125 35.972656 C 76.453125 35.847656 75.890625 35.359375 75.632812 34.5625 C 75.546875 34.28125 75.269531 34.101562 74.902344 34.101562 C 73.914062 34.101562 73.675781 33.769531 73.828125 32.5625 C 73.890625 31.972656 74 31.4375 74.066406 31.359375 C 74.128906 31.28125 74.796875 31.207031 75.527344 31.179688 C 76.730469 31.152344 76.882812 31.207031 77.117188 31.769531 L 77.375 32.382812 L 77.460938 31.640625 C 77.527344 30.972656 77.613281 30.898438 78.410156 30.820312 L 79.3125 30.742188 L 79.332031 33.4375 L 79.355469 36.152344 L 78.644531 36.101562 C 78.28125 36.101562 77.613281 36.027344 77.203125 35.972656 Z M 77.203125 35.972656 "/>
<path style=" stroke:none;fill-rule:nonzero;fill:rgb(81.960784%,81.568627%,81.960784%);fill-opacity:1;" d="M 70.539062 32.050781 L 70.539062 30 L 71.398438 30 C 71.871094 30 72.257812 30.101562 72.257812 30.207031 C 72.257812 30.332031 72.496094 30.589844 72.796875 30.769531 C 73.246094 31.050781 73.332031 31.308594 73.332031 32.230469 C 73.332031 33.128906 73.269531 33.332031 72.925781 33.332031 C 72.710938 33.332031 72.410156 33.511719 72.257812 33.71875 C 72.109375 33.921875 71.65625 34.101562 71.269531 34.101562 L 70.539062 34.101562 Z M 70.539062 32.050781 "/>
<path style=" stroke:none;fill-rule:nonzero;fill:rgb(78.431373%,80%,81.960784%);fill-opacity:1;" d="M 76.988281 46.28125 C 77.226562 45.949219 77.160156 45.898438 76.710938 45.898438 C 75.914062 45.898438 75.484375 45.640625 75.484375 45.152344 C 75.484375 44.667969 74.710938 44 74.410156 44.230469 C 74.28125 44.332031 74.195312 44.257812 74.195312 44.128906 C 74.195312 43.972656 73.742188 43.847656 73.183594 43.847656 C 72 43.847656 70.859375 43.230469 70.28125 42.308594 C 69.375 40.820312 69.527344 37.820312 70.582031 36.5625 C 71.117188 35.921875 71.183594 35.71875 70.988281 35.332031 C 70.582031 34.539062 70.6875 32.460938 71.183594 31.921875 C 71.675781 31.410156 72 31.539062 71.570312 32.078125 C 71.417969 32.28125 71.246094 32.667969 71.226562 32.949219 C 71.140625 33.460938 71.160156 33.4375 71.65625 32.921875 C 71.914062 32.617188 72.28125 32.4375 72.429688 32.488281 C 72.558594 32.5625 72.6875 32.4375 72.6875 32.230469 C 72.6875 32 72.558594 31.769531 72.429688 31.71875 C 71.890625 31.460938 72.644531 31.539062 73.203125 31.792969 C 73.570312 31.949219 73.761719 32.230469 73.785156 32.617188 C 73.785156 32.949219 73.847656 33.050781 73.914062 32.898438 C 73.957031 32.71875 74.152344 32.5625 74.324219 32.5625 C 74.515625 32.5625 74.582031 32.691406 74.515625 32.820312 C 74.386719 33.078125 74.515625 33.128906 75.484375 33.179688 C 75.804688 33.207031 76.109375 33.460938 76.300781 33.847656 C 76.582031 34.460938 76.582031 34.308594 76.324219 33.101562 C 76.152344 32.359375 76.753906 32.589844 77.074219 33.382812 C 77.417969 34.179688 77.417969 34.257812 77.054688 34.539062 C 76.6875 34.871094 76.796875 34.972656 77.460938 34.898438 C 77.675781 34.871094 78.042969 34.972656 78.28125 35.128906 C 78.6875 35.382812 78.710938 35.359375 78.582031 34.691406 C 78.429688 34 78.429688 34 78.925781 34.382812 C 79.203125 34.617188 79.546875 35.179688 79.699219 35.667969 C 80.023438 36.691406 80.109375 42.820312 79.804688 42.820312 C 79.699219 42.820312 79.398438 43.332031 79.140625 43.949219 C 78.902344 44.5625 78.539062 45.152344 78.367188 45.230469 C 78.195312 45.308594 77.957031 45.667969 77.847656 46.027344 C 77.71875 46.4375 77.484375 46.667969 77.183594 46.667969 C 76.796875 46.667969 76.773438 46.617188 76.988281 46.28125 Z M 75.933594 41.488281 C 76.601562 40.359375 76.730469 39.230469 76.28125 38.308594 C 75.847656 37.4375 75.203125 36.539062 74.625 36.078125 C 74.109375 35.640625 72.6875 35.460938 72.667969 35.847656 C 72.667969 35.949219 72.625 36.539062 72.582031 37.179688 C 72.539062 37.792969 72.601562 38.460938 72.710938 38.617188 C 72.859375 38.847656 72.839844 39.101562 72.644531 39.460938 C 72.429688 39.898438 72.453125 40.128906 72.753906 40.921875 C 73.054688 41.667969 73.226562 41.820312 73.589844 41.71875 C 74.152344 41.539062 74.839844 41.949219 74.839844 42.460938 C 74.839844 43 75.183594 42.691406 75.933594 41.488281 Z M 75.933594 41.488281 "/>
<path style=" stroke:none;fill-rule:nonzero;fill:rgb(78.823529%,78.823529%,78.039216%);fill-opacity:1;" d="M 66.410156 60.972656 C 66.367188 50.488281 66.367188 32.488281 66.410156 20.972656 L 66.453125 0 L 80 0 L 80 18.742188 C 80 36.027344 79.976562 37.460938 79.632812 37.382812 C 79.269531 37.308594 78.710938 35.769531 78.601562 34.4375 C 78.558594 33.972656 78.453125 33.359375 78.386719 33.050781 C 78.257812 32.5625 78.195312 32.589844 77.699219 33.5625 C 77.417969 34.128906 77.054688 34.617188 76.925781 34.617188 C 76.582031 34.617188 76.128906 32.921875 76.386719 32.617188 C 76.496094 32.488281 76.453125 32.257812 76.28125 32.101562 C 75.847656 31.667969 74.6875 32 74.558594 32.589844 C 74.496094 32.847656 74.539062 33.078125 74.644531 33.078125 C 74.882812 33.078125 74.816406 33.640625 74.539062 33.871094 C 74.28125 34.128906 74.730469 34.972656 75.355469 35.382812 C 75.65625 35.5625 76.152344 36.308594 76.453125 37.027344 C 77.398438 39.257812 77.097656 41.640625 75.699219 43.152344 C 75.226562 43.667969 74.644531 44.152344 74.410156 44.230469 C 74.171875 44.332031 73.976562 44.460938 73.957031 44.5625 C 73.957031 44.667969 73.914062 45 73.847656 45.332031 C 73.804688 45.640625 73.871094 45.898438 73.976562 45.898438 C 74.128906 45.898438 74.128906 46.078125 73.976562 46.410156 C 73.785156 46.847656 73.804688 46.921875 74.195312 46.921875 C 74.429688 46.921875 74.625 46.792969 74.625 46.617188 C 74.625 46.382812 74.6875 46.382812 74.882812 46.617188 C 75.246094 47.050781 76.453125 47 76.796875 46.511719 C 76.945312 46.28125 77.117188 45.871094 77.140625 45.5625 C 77.183594 45.257812 77.503906 44.691406 77.847656 44.28125 C 78.195312 43.898438 78.582031 43.152344 78.710938 42.667969 C 78.839844 42.179688 79.054688 41.847656 79.160156 41.921875 C 79.269531 42.027344 79.355469 41.898438 79.355469 41.691406 C 79.355469 41.460938 79.503906 41.28125 79.675781 41.28125 C 79.957031 41.28125 80 43.617188 80 60.640625 L 80 80 L 66.453125 80 Z M 75.140625 51.871094 C 75.03125 51.742188 74.882812 51.5625 74.816406 51.460938 C 74.753906 51.332031 74.625 51.410156 74.558594 51.640625 C 74.453125 51.949219 74.558594 52.050781 74.882812 52.050781 C 75.140625 52.050781 75.246094 51.972656 75.140625 51.871094 Z M 73.011719 49.332031 C 73.847656 48.308594 72.730469 47.050781 71.460938 47.589844 C 70.796875 47.847656 70.558594 48.769531 70.96875 49.382812 C 71.332031 49.871094 72.582031 49.847656 73.011719 49.332031 Z M 76.988281 47.949219 C 76.988281 47.820312 76.839844 47.691406 76.667969 47.691406 C 76.496094 47.691406 76.34375 47.820312 76.34375 47.949219 C 76.34375 48.101562 76.496094 48.207031 76.667969 48.207031 C 76.839844 48.207031 76.988281 48.101562 76.988281 47.949219 Z M 68.730469 46.410156 C 69.699219 46.410156 70.128906 45.898438 70.066406 44.871094 C 70.023438 44.332031 70.128906 43.972656 70.386719 43.820312 C 70.582031 43.667969 70.753906 43.460938 70.753906 43.332031 C 70.753906 43.050781 69.613281 42.972656 69.375 43.257812 C 69.3125 43.359375 68.902344 43.5625 68.515625 43.71875 C 67.804688 44.027344 67.785156 44 67.65625 43.28125 C 67.484375 42.257812 67.160156 42.382812 67.269531 43.460938 C 67.332031 44 67.269531 44.359375 67.117188 44.359375 C 66.96875 44.359375 66.882812 44.871094 66.882812 45.640625 C 66.882812 46.898438 66.882812 46.898438 67.441406 46.667969 C 67.742188 46.511719 68.324219 46.410156 68.730469 46.410156 Z M 73.71875 43.078125 L 74.28125 43.078125 L 73.785156 42.511719 L 73.289062 41.972656 L 73.742188 41.667969 C 74 41.511719 74.128906 41.308594 74.066406 41.207031 C 73.976562 41.101562 74 41.027344 74.128906 41.027344 C 74.238281 41.027344 74.453125 40.742188 74.582031 40.382812 C 74.882812 39.617188 74.667969 38.820312 73.914062 37.847656 C 73.355469 37.128906 73.117188 37.207031 73.117188 38.050781 C 73.117188 38.359375 72.945312 38.898438 72.730469 39.28125 C 72.386719 39.921875 72.324219 39.921875 72.109375 39.539062 C 71.976562 39.28125 71.804688 38.589844 71.71875 38 C 71.589844 36.972656 71.570312 36.949219 71.097656 37.308594 C 70.515625 37.769531 70.109375 38.742188 70.109375 39.691406 C 70.109375 41.179688 72 43.589844 72.859375 43.207031 C 73.03125 43.128906 73.398438 43.078125 73.71875 43.078125 Z M 67.527344 36.257812 C 67.699219 35.71875 67.847656 35.640625 68.367188 35.71875 C 68.859375 35.820312 69.011719 35.742188 68.988281 35.4375 C 68.988281 35.179688 69.054688 34.617188 69.140625 34.179688 C 69.246094 33.617188 69.226562 33.332031 69.054688 33.332031 C 68.6875 33.332031 68.773438 32.617188 69.203125 32.332031 C 69.546875 32.101562 69.546875 32.078125 69.203125 31.921875 C 68.796875 31.71875 67.976562 32.179688 67.933594 32.640625 C 67.914062 32.820312 67.847656 32.617188 67.761719 32.179688 C 67.699219 31.742188 67.460938 31.382812 67.246094 31.332031 C 66.925781 31.257812 66.882812 31.488281 66.882812 33.207031 C 66.882812 34.460938 66.96875 35.101562 67.097656 35 C 67.246094 34.898438 67.269531 35.207031 67.183594 35.871094 C 67.03125 37.050781 67.203125 37.257812 67.527344 36.257812 Z M 73.117188 34.871094 C 73.527344 34.871094 73.503906 34.71875 72.773438 32.28125 C 72.710938 32.050781 72.410156 31.71875 72.128906 31.539062 C 71.847656 31.332031 71.613281 31.101562 71.613281 30.972656 C 71.613281 30.871094 71.527344 30.769531 71.398438 30.769531 C 71.289062 30.769531 71.183594 31 71.183594 31.28125 C 71.183594 31.617188 71.289062 31.742188 71.503906 31.640625 C 71.742188 31.511719 71.785156 31.589844 71.699219 31.898438 C 71.632812 32.128906 71.484375 32.308594 71.398438 32.308594 C 71.160156 32.308594 71.332031 33.820312 71.632812 34.539062 C 71.761719 34.847656 72.023438 35.027344 72.171875 34.949219 C 72.34375 34.871094 72.472656 34.972656 72.496094 35.152344 C 72.496094 35.4375 72.539062 35.4375 72.625 35.207031 C 72.667969 35.027344 72.902344 34.871094 73.117188 34.871094 Z M 73.117188 34.871094 "/>
<path style=" stroke:none;fill-rule:nonzero;fill:rgb(78.823529%,78.823529%,78.039216%);fill-opacity:1;" d="M 19.355469 48.207031 C 19.355469 48.078125 20 47.972656 20.859375 48 C 21.699219 48 22.324219 48.078125 22.28125 48.152344 C 22.066406 48.382812 19.355469 48.460938 19.355469 48.207031 Z M 19.355469 48.207031 "/>
<path style=" stroke:none;fill-rule:nonzero;fill:rgb(78.823529%,78.823529%,78.039216%);fill-opacity:1;" d="M 28.988281 48.027344 C 29.375 47.972656 29.957031 47.972656 30.28125 48.027344 C 30.601562 48.078125 30.28125 48.128906 29.570312 48.128906 C 28.859375 48.128906 28.601562 48.078125 28.988281 48.027344 Z M 28.988281 48.027344 "/>
<path style=" stroke:none;fill-rule:nonzero;fill:rgb(78.823529%,78.823529%,78.039216%);fill-opacity:1;" d="M 39.527344 48.027344 C 39.785156 47.972656 40.214844 47.972656 40.496094 48.027344 C 40.753906 48.078125 40.539062 48.128906 40 48.128906 C 39.460938 48.128906 39.246094 48.078125 39.527344 48.027344 Z M 39.527344 48.027344 "/>
<path style=" stroke:none;fill-rule:nonzero;fill:rgb(78.823529%,78.823529%,78.039216%);fill-opacity:1;" d="M 20.539062 45.617188 C 20.042969 45.488281 20.214844 45.4375 21.289062 45.382812 C 22.214844 45.332031 22.429688 45.257812 21.933594 45.207031 C 21.527344 45.128906 21.097656 44.921875 21.011719 44.71875 C 20.902344 44.488281 20.625 44.410156 20.300781 44.460938 C 19.847656 44.5625 19.785156 44.511719 19.890625 44.152344 C 19.976562 43.921875 20.109375 43.511719 20.152344 43.28125 C 20.214844 43.027344 20.410156 42.820312 20.558594 42.820312 C 20.730469 42.820312 20.839844 42.742188 20.816406 42.640625 C 20.773438 42.359375 21.570312 40.410156 21.785156 40.308594 C 21.871094 40.257812 21.890625 40.101562 21.804688 39.972656 C 21.742188 39.847656 21.804688 39.742188 21.914062 39.742188 C 22.042969 39.742188 22.128906 39.667969 22.109375 39.5625 C 22.023438 39.230469 22.667969 38.207031 22.925781 38.207031 C 23.054688 38.207031 23.289062 38.027344 23.441406 37.820312 C 23.65625 37.539062 23.65625 37.4375 23.441406 37.4375 C 23.3125 37.4375 23.226562 37.28125 23.289062 37.128906 C 23.332031 36.949219 23.503906 36.820312 23.65625 36.871094 C 23.847656 36.921875 23.890625 36.71875 23.804688 36.230469 C 23.65625 35.308594 23.976562 34.589844 24.472656 34.769531 C 24.710938 34.871094 24.753906 34.847656 24.582031 34.691406 C 24.386719 34.539062 24.410156 34.257812 24.667969 33.589844 C 25.117188 32.332031 25.847656 30.667969 26 30.511719 C 26.085938 30.4375 26.257812 30.050781 26.410156 29.667969 C 26.667969 28.972656 27.914062 27.898438 28.625 27.769531 C 28.839844 27.71875 29.203125 28.027344 29.460938 28.460938 C 29.71875 28.898438 29.847656 29.230469 29.761719 29.230469 C 29.675781 29.230469 29.785156 29.410156 30.023438 29.617188 C 30.238281 29.820312 30.34375 30 30.238281 30 C 30.128906 30 30.195312 30.207031 30.367188 30.460938 C 30.796875 31.027344 32.925781 35.847656 32.859375 36.101562 C 32.816406 36.257812 33.160156 36.972656 34.496094 39.488281 C 35.699219 41.71875 35.71875 41.769531 35.484375 42.308594 C 35.203125 42.921875 35.375 42.972656 35.828125 42.4375 C 36.128906 42.101562 36.195312 42.101562 36.472656 42.4375 C 36.882812 42.921875 37.117188 42.949219 36.796875 42.460938 C 36.601562 42.207031 36.625 42.078125 36.859375 41.972656 C 37.03125 41.898438 37.226562 41.949219 37.289062 42.128906 C 37.355469 42.308594 37.355469 42.152344 37.289062 41.820312 C 37.183594 41.382812 37.226562 41.28125 37.417969 41.410156 C 37.613281 41.5625 37.65625 41.511719 37.527344 41.308594 C 37.441406 41.101562 37.632812 40.667969 38.042969 40.152344 C 38.410156 39.71875 38.730469 39.101562 38.773438 38.820312 C 38.839844 38.179688 39.65625 36.921875 39.976562 36.921875 C 40.109375 36.921875 40.214844 36.820312 40.214844 36.691406 C 40.214844 36.078125 41.332031 37.207031 42.109375 38.589844 C 42.925781 40.078125 43.503906 41.257812 43.546875 41.539062 C 43.613281 42.078125 44.367188 43.308594 44.539062 43.179688 C 44.667969 43.101562 44.816406 43.257812 44.882812 43.5625 C 44.945312 43.871094 45.074219 44.101562 45.183594 44.101562 C 45.269531 44.101562 45.460938 44.359375 45.613281 44.640625 C 45.785156 45.027344 45.785156 45.128906 45.613281 45.027344 C 45.398438 44.871094 45.289062 45.179688 45.355469 45.71875 C 45.398438 45.972656 44.988281 45.949219 44.472656 45.617188 C 44.152344 45.410156 44.066406 45.410156 44.171875 45.617188 C 44.386719 46.027344 44.023438 45.972656 43.527344 45.511719 C 43.074219 45.101562 42.496094 45 42.667969 45.359375 C 42.796875 45.617188 41.742188 46 41.546875 45.769531 C 41.484375 45.691406 41.546875 45.640625 41.675781 45.640625 C 41.828125 45.640625 41.933594 45.539062 41.933594 45.382812 C 41.933594 45.257812 41.460938 45.128906 40.859375 45.128906 C 40.238281 45.128906 39.785156 45 39.785156 44.847656 C 39.785156 44.28125 40.257812 43.5625 40.773438 43.332031 C 41.226562 43.128906 41.289062 42.921875 41.289062 41.921875 C 41.289062 41.078125 41.203125 40.769531 40.96875 40.769531 C 40.796875 40.769531 40.644531 40.949219 40.644531 41.152344 C 40.644531 41.359375 40.558594 41.539062 40.429688 41.539062 C 40.324219 41.539062 40.214844 42 40.214844 42.5625 C 40.214844 43.382812 40.128906 43.589844 39.804688 43.589844 C 39.527344 43.589844 39.375 43.820312 39.289062 44.359375 C 39.160156 45.078125 39.074219 45.128906 38.195312 45.128906 C 37.140625 45.128906 36.816406 44.640625 37.097656 43.539062 C 37.226562 43.101562 37.183594 43.027344 36.882812 43.152344 C 36.6875 43.257812 36.429688 43.332031 36.324219 43.332031 C 36.214844 43.332031 36.152344 43.742188 36.195312 44.230469 C 36.257812 45.308594 36.410156 45.359375 39.097656 45.359375 C 40.214844 45.332031 41.160156 45.410156 41.226562 45.488281 C 41.3125 45.5625 40.796875 45.667969 40.085938 45.667969 C 39.398438 45.691406 38.300781 45.71875 37.675781 45.742188 C 36.988281 45.742188 36.429688 45.640625 36.300781 45.460938 C 36.152344 45.230469 35.269531 45.128906 33.3125 45.128906 C 31.613281 45.128906 30.539062 45.027344 30.539062 44.871094 C 30.539062 44.742188 30.257812 44.617188 29.890625 44.617188 C 29.527344 44.617188 29.246094 44.488281 29.246094 44.308594 C 29.246094 44.078125 29.160156 44.101562 29.03125 44.359375 C 28.6875 45 28.773438 45.078125 29.957031 45.332031 L 31.074219 45.589844 L 29.890625 45.640625 C 25.828125 45.847656 25.054688 45.742188 27.460938 45.382812 C 28.453125 45.230469 28.128906 45.207031 25.914062 45.179688 C 23.417969 45.179688 23.226562 45.207031 24.042969 45.460938 C 24.925781 45.769531 24.902344 45.769531 23.074219 45.792969 C 22.042969 45.792969 20.902344 45.71875 20.539062 45.617188 Z M 43.828125 43.667969 C 43.785156 43.410156 43.613281 43.230469 43.484375 43.28125 C 43.332031 43.308594 43.226562 43.179688 43.226562 42.972656 C 43.226562 42.769531 43.054688 42.539062 42.859375 42.4375 C 42.539062 42.308594 42.515625 42.332031 42.753906 42.589844 C 42.882812 42.769531 43.011719 43.128906 43.011719 43.359375 C 43.011719 43.769531 43.269531 44.027344 43.71875 44.078125 C 43.828125 44.101562 43.871094 43.898438 43.828125 43.667969 Z M 23.226562 41.511719 C 23.226562 40.820312 22.6875 40.898438 22.429688 41.617188 C 22.214844 42.179688 22.238281 42.207031 22.710938 42.101562 C 23.03125 42.027344 23.226562 41.820312 23.226562 41.511719 Z M 42.816406 41.820312 C 42.945312 42.078125 42.988281 42 42.945312 41.617188 C 42.925781 41.179688 42.859375 41.128906 42.644531 41.332031 C 42.496094 41.488281 42.367188 41.742188 42.386719 41.898438 C 42.386719 42.050781 42.453125 42.027344 42.515625 41.820312 C 42.625 41.539062 42.667969 41.539062 42.816406 41.820312 Z M 23.375 39.382812 C 22.945312 38.871094 22.644531 39.332031 23.03125 39.898438 C 23.203125 40.152344 23.375 40.179688 23.503906 40.027344 C 23.632812 39.871094 23.589844 39.640625 23.375 39.382812 Z M 40.601562 38.152344 C 40.085938 37.539062 39.65625 37.691406 39.527344 38.5625 C 39.398438 39.359375 39.71875 39.539062 40.453125 39.027344 C 41.011719 38.640625 41.011719 38.640625 40.601562 38.152344 Z M 32.238281 38.28125 C 32.238281 37.972656 32.195312 37.949219 32.109375 38.152344 C 32.023438 38.410156 31.933594 38.410156 31.65625 38.152344 C 31.332031 37.847656 31.3125 37.871094 31.589844 38.28125 C 31.742188 38.511719 31.957031 38.71875 32.066406 38.71875 C 32.171875 38.71875 32.257812 38.511719 32.238281 38.28125 Z M 32.238281 38.28125 "/>
<path style=" stroke:none;fill-rule:nonzero;fill:rgb(78.823529%,78.823529%,78.039216%);fill-opacity:1;" d="M 21.785156 30.511719 C 21.503906 30.382812 21.289062 30.128906 21.289062 29.972656 C 21.289062 29.792969 21.140625 29.4375 20.925781 29.179688 C 20.601562 28.742188 20.625 28.71875 21.246094 28.71875 C 22.109375 28.71875 22.128906 28.359375 21.289062 27.898438 C 20.539062 27.511719 20.496094 27.230469 21.074219 26.359375 C 21.289062 26 21.417969 25.617188 21.332031 25.511719 C 21.246094 25.410156 21.441406 25.511719 21.785156 25.769531 C 22.128906 26.027344 22.367188 26.101562 22.367188 25.921875 C 22.367188 25.769531 22.28125 25.640625 22.195312 25.640625 C 22.085938 25.640625 22 25.488281 22 25.308594 C 22 25.128906 22.195312 24.972656 22.410156 24.972656 C 22.625 24.972656 22.796875 25.078125 22.796875 25.179688 C 22.796875 25.28125 22.902344 25.359375 23.03125 25.308594 C 23.160156 25.28125 23.332031 25.410156 23.375 25.589844 C 23.441406 25.769531 23.160156 26.078125 22.710938 26.28125 C 22.28125 26.511719 21.933594 26.847656 21.933594 27.050781 C 21.933594 27.359375 22.042969 27.308594 22.367188 26.921875 C 22.625 26.617188 23.074219 26.410156 23.546875 26.410156 C 24.195312 26.410156 24.28125 26.488281 24.238281 26.972656 C 24.195312 27.257812 23.933594 27.742188 23.65625 28 C 23.117188 28.511719 23.160156 28.820312 23.742188 28.5625 C 23.933594 28.488281 24.023438 28.308594 23.957031 28.179688 C 23.890625 28.050781 23.976562 27.949219 24.152344 27.949219 C 24.300781 27.949219 24.453125 28.128906 24.453125 28.332031 C 24.453125 28.539062 24.300781 28.71875 24.109375 28.71875 C 23.871094 28.71875 23.871094 28.792969 24.214844 29.128906 C 24.429688 29.332031 24.496094 29.4375 24.324219 29.332031 C 24.085938 29.207031 24.042969 29.257812 24.152344 29.5625 C 24.300781 30.027344 24.085938 30.128906 23.761719 29.769531 C 23.632812 29.667969 23.203125 29.488281 22.796875 29.382812 L 22.042969 29.230469 L 22.644531 29.871094 C 22.96875 30.207031 23.226562 30.5625 23.226562 30.640625 C 23.226562 30.847656 22.324219 30.769531 21.785156 30.511719 Z M 21.785156 30.511719 "/>
<path style=" stroke:none;fill-rule:nonzero;fill:rgb(78.823529%,78.823529%,78.039216%);fill-opacity:1;" d="M 17.203125 22.308594 C 17.570312 22.050781 19.398438 22.027344 19.269531 22.28125 C 19.203125 22.410156 18.644531 22.511719 18.066406 22.488281 C 17.460938 22.488281 17.074219 22.410156 17.203125 22.308594 Z M 17.203125 22.308594 "/>
<path style=" stroke:none;fill-rule:nonzero;fill:rgb(78.823529%,78.823529%,78.039216%);fill-opacity:1;" d="M 23.761719 22.308594 L 23.332031 22.078125 L 23.761719 22.101562 C 24 22.101562 24.496094 22.207031 24.839844 22.308594 L 25.484375 22.511719 L 24.839844 22.511719 C 24.496094 22.511719 24 22.4375 23.761719 22.308594 Z M 23.761719 22.308594 "/>
<path style=" stroke:none;fill-rule:nonzero;fill:rgb(78.823529%,78.823529%,78.039216%);fill-opacity:1;" d="M 31.914062 22.257812 C 31.847656 22.152344 32.300781 22.050781 32.925781 22.050781 C 33.546875 22.050781 34 22.101562 33.933594 22.179688 C 33.761719 22.410156 32.023438 22.488281 31.914062 22.257812 Z M 31.914062 22.257812 "/>
<path style=" stroke:none;fill-rule:nonzero;fill:rgb(78.823529%,78.823529%,78.039216%);fill-opacity:1;" d="M 34.195312 22.308594 C 34.195312 22.152344 35.828125 22.050781 38.6875 22.050781 C 41.460938 22.050781 43.246094 22.152344 43.332031 22.308594 C 43.417969 22.488281 41.871094 22.5625 38.839844 22.5625 C 35.890625 22.5625 34.195312 22.460938 34.195312 22.308594 Z M 34.195312 22.308594 "/>
<path style=" stroke:none;fill-rule:nonzero;fill:rgb(78.823529%,78.823529%,78.039216%);fill-opacity:1;" d="M 29.3125 22.128906 C 29.503906 22.078125 29.847656 22.078125 30.066406 22.128906 C 30.257812 22.207031 30.085938 22.257812 29.675781 22.257812 C 29.269531 22.257812 29.097656 22.207031 29.3125 22.128906 Z M 29.3125 22.128906 "/>
<path style=" stroke:none;fill-rule:nonzero;fill:rgb(0%,0%,0%);fill-opacity:1;" d="M 71.871094 44.050781 C 70.34375 43.4375 69.03125 40.742188 69.355469 38.898438 C 69.785156 36.460938 71.355469 34.871094 73.3125 34.871094 C 75.613281 34.871094 77.203125 36.792969 77.269531 39.640625 C 77.289062 40.769531 77.183594 41.207031 76.667969 42.078125 C 76.300781 42.667969 75.761719 43.382812 75.460938 43.640625 C 74.796875 44.230469 72.859375 44.460938 71.871094 44.050781 Z M 74.773438 42.5625 C 76.152344 41.5625 76.601562 39.871094 75.957031 38.128906 C 74.882812 35.207031 71.226562 35.640625 70.515625 38.792969 C 69.871094 41.691406 72.625 44.128906 74.773438 42.5625 Z M 74.773438 42.5625 "/>
</g>
</svg>
