<?xml version="1.0" encoding="UTF-8"?>
<svg xmlns="http://www.w3.org/2000/svg" xmlns:xlink="http://www.w3.org/1999/xlink" width="80px" height="80px" viewBox="0 0 80 80" version="1.1">
<g id="surface1">
<path style=" stroke:none;fill-rule:nonzero;fill:rgb(96.862745%,96.862745%,96.862745%);fill-opacity:1;" d="M 0 34.117188 L 0 0 L 80 0 L 80 68.234375 L 40 68.234375 L 0 68.214844 Z M 55.21875 38.160156 C 55.21875 37.839844 49.042969 30.824219 48.890625 30.953125 C 48.804688 31.058594 48.261719 31.699219 47.675781 32.429688 C 45.261719 35.421875 44.914062 35.722656 43.957031 35.722656 C 42.957031 35.722656 43.652344 36.640625 37.109375 26.800781 C 35.542969 24.429688 34.195312 22.480469 34.128906 22.480469 C 34.066406 22.480469 32.695312 24.46875 31.085938 26.910156 C 29.476562 29.347656 27.109375 32.898438 25.824219 34.824219 L 23.5 38.289062 L 39.371094 38.289062 C 48.085938 38.289062 55.21875 38.222656 55.21875 38.160156 Z M 28.847656 25.132812 C 29.109375 24.941406 29.5 24.554688 29.695312 24.257812 C 30.042969 23.765625 30.042969 23.65625 29.71875 23.015625 C 29.5 22.546875 29.042969 22.140625 28.414062 21.839844 C 27.523438 21.410156 27.371094 21.390625 26.695312 21.667969 C 26.023438 21.945312 24.78125 23.144531 24.78125 23.488281 C 24.78125 23.570312 24.976562 23.957031 25.21875 24.34375 C 26 25.582031 27.585938 25.945312 28.847656 25.132812 Z M 28.847656 25.132812 "/>
<path style=" stroke:none;fill-rule:nonzero;fill:rgb(78.823529%,79.607843%,82.352941%);fill-opacity:1;" d="M 38.71875 79.59375 C 38.347656 78.953125 38.414062 77.21875 38.78125 77.21875 C 38.957031 77.21875 39.542969 76.792969 40.066406 76.257812 C 40.804688 75.550781 41.21875 75.292969 41.695312 75.292969 C 42.324219 75.292969 42.347656 75.316406 42.457031 76.640625 C 42.523438 77.367188 42.523438 78.394531 42.433594 78.929688 L 42.28125 79.894531 L 40.609375 79.957031 C 39.128906 80 38.914062 79.980469 38.71875 79.59375 Z M 38.71875 79.59375 "/>
<path style=" stroke:none;fill-rule:nonzero;fill:rgb(78.823529%,79.607843%,82.352941%);fill-opacity:1;" d="M 35.566406 75.765625 C 35.476562 74.886719 35.5 74.054688 35.652344 73.710938 C 35.761719 73.390625 35.871094 72.640625 35.871094 72.0625 L 35.871094 71.015625 L 36.71875 71.015625 C 37.523438 71.015625 37.566406 71.058594 37.695312 71.808594 C 37.914062 73.199219 37.847656 74.84375 37.5 75.65625 C 37.324219 76.0625 37.175781 76.597656 37.175781 76.8125 C 37.175781 77.132812 37.023438 77.21875 36.433594 77.21875 L 35.71875 77.21875 Z M 35.566406 75.765625 "/>
<path style=" stroke:none;fill-rule:nonzero;fill:rgb(78.823529%,79.607843%,82.352941%);fill-opacity:1;" d="M 38 70.867188 C 37.21875 70.78125 37.175781 70.738281 37.175781 70.054688 C 37.175781 69.667969 37.238281 69.199219 37.304688 69.003906 C 37.457031 68.597656 38.476562 68.554688 39.5 68.917969 C 40.152344 69.15625 40.21875 69.242188 40.21875 70.097656 C 40.21875 71.121094 40.28125 71.101562 38 70.867188 Z M 38 70.867188 "/>
<path style=" stroke:none;fill-rule:nonzero;fill:rgb(77.647059%,80.392157%,81.568627%);fill-opacity:1;" d="M 29.28125 76.855469 C 29.195312 76.792969 29.128906 76.34375 29.128906 75.894531 C 29.128906 75.144531 29.175781 75.082031 29.738281 75.082031 C 30.066406 75.082031 30.695312 75.144531 31.152344 75.207031 C 31.914062 75.335938 31.957031 75.378906 31.957031 76.171875 L 31.957031 77.003906 L 30.695312 77.003906 C 30 77.003906 29.347656 76.941406 29.28125 76.855469 Z M 29.28125 76.855469 "/>
<path style=" stroke:none;fill-rule:nonzero;fill:rgb(77.647059%,80.392157%,81.568627%);fill-opacity:1;" d="M 34.871094 76.429688 C 34.238281 75.53125 34.28125 72.554688 34.914062 71.722656 C 35.304688 71.230469 35.542969 71.121094 36.324219 71.121094 L 37.28125 71.121094 L 37.304688 72.40625 L 37.347656 73.691406 L 37.109375 72.683594 C 36.890625 71.65625 36.457031 71.207031 36.652344 72.148438 C 36.695312 72.429688 36.609375 73.132812 36.457031 73.710938 C 36.175781 74.800781 36.304688 76.191406 36.628906 75.464844 C 36.871094 74.867188 37.175781 75.015625 37.175781 75.699219 C 37.175781 76.769531 36.976562 77.003906 36.085938 77.003906 C 35.433594 77.003906 35.175781 76.878906 34.871094 76.429688 Z M 34.871094 76.429688 "/>
<path style=" stroke:none;fill-rule:nonzero;fill:rgb(77.647059%,80.392157%,81.568627%);fill-opacity:1;" d="M 41.738281 76.234375 C 41.738281 75.9375 41.675781 75.9375 41.414062 76.148438 C 41.128906 76.386719 41.085938 76.234375 41.128906 74.800781 C 41.195312 73.003906 40.890625 72.363281 39.609375 71.550781 C 38.890625 71.101562 38.585938 69.988281 39.238281 70.246094 C 39.433594 70.308594 39.566406 70.246094 39.566406 70.054688 C 39.566406 69.882812 39.414062 69.734375 39.238281 69.734375 C 39.066406 69.734375 38.914062 69.605469 38.914062 69.433594 C 38.914062 68.941406 39.933594 68.449219 40.957031 68.449219 C 41.847656 68.449219 42 68.535156 43.042969 69.667969 C 43.675781 70.332031 44.261719 71.101562 44.371094 71.378906 C 44.675781 72.191406 44.609375 75.65625 44.304688 75.871094 C 43.871094 76.148438 42.542969 76.578125 42.128906 76.578125 C 41.914062 76.578125 41.738281 76.429688 41.738281 76.234375 Z M 41.738281 76.234375 "/>
<path style=" stroke:none;fill-rule:nonzero;fill:rgb(77.647059%,80.392157%,81.568627%);fill-opacity:1;" d="M 35.914062 70.203125 C 35.761719 69.882812 35.566406 69.113281 35.5 68.511719 L 35.371094 67.378906 L 37.976562 67.378906 L 38.109375 68.277344 C 38.175781 68.769531 38.128906 69.367188 38 69.605469 C 37.824219 69.925781 37.824219 70.054688 38.023438 70.117188 C 38.152344 70.160156 38.261719 70.332031 38.261719 70.503906 C 38.261719 70.714844 37.976562 70.800781 37.238281 70.800781 C 36.324219 70.800781 36.152344 70.738281 35.914062 70.203125 Z M 35.914062 70.203125 "/>
<path style=" stroke:none;fill-rule:nonzero;fill:rgb(80.784314%,80%,77.647059%);fill-opacity:1;" d="M 26.957031 78.632812 C 26.957031 77.882812 27.023438 76.960938 27.085938 76.597656 C 27.21875 76 27.304688 75.9375 28.085938 75.9375 C 28.695312 75.9375 28.976562 76.042969 29.066406 76.320312 C 29.261719 76.792969 29.566406 77.089844 30.066406 77.285156 C 30.628906 77.496094 30.542969 78.695312 29.890625 79.421875 C 29.433594 79.914062 29.195312 80 28.152344 80 L 26.957031 80 Z M 26.957031 78.632812 "/>
<path style=" stroke:none;fill-rule:nonzero;fill:rgb(80.784314%,80%,77.647059%);fill-opacity:1;" d="M 35.085938 79.851562 C 34.628906 79.785156 34.347656 79.613281 34.28125 79.335938 C 34.21875 79.101562 33.976562 78.929688 33.738281 78.929688 C 33.476562 78.929688 33.21875 78.84375 33.152344 78.714844 C 33.085938 78.609375 32.847656 78.503906 32.652344 78.503906 C 31.914062 78.503906 31.71875 78.117188 31.390625 76.019531 C 31.175781 74.523438 31.109375 73.242188 31.21875 71.679688 C 31.371094 69.582031 31.414062 69.410156 32 68.835938 C 32.433594 68.40625 32.847656 68.234375 33.371094 68.234375 C 33.78125 68.234375 34.128906 68.320312 34.128906 68.429688 C 34.128906 68.535156 34.304688 68.792969 34.523438 69.003906 C 34.976562 69.476562 35.175781 72.363281 34.804688 73.410156 C 34.585938 74.011719 34.628906 74.246094 35.109375 75.144531 C 35.414062 75.722656 35.652344 76.429688 35.652344 76.707031 C 35.652344 77.15625 35.738281 77.21875 36.5 77.21875 C 37.414062 77.21875 37.609375 77.496094 37.609375 78.84375 C 37.609375 79.9375 37.195312 80.105469 35.085938 79.851562 Z M 35.085938 79.851562 "/>
<path style=" stroke:none;fill-rule:nonzero;fill:rgb(80.784314%,80%,77.647059%);fill-opacity:1;" d="M 38.476562 77.003906 C 38.476562 76.75 38.324219 76.578125 38.128906 76.578125 C 37.347656 76.578125 37.152344 76.042969 37.304688 74.140625 C 37.414062 72.8125 37.542969 72.300781 37.738281 72.300781 C 37.914062 72.300781 38.042969 72.105469 38.042969 71.871094 C 38.042969 71.359375 38.824219 71.121094 39.933594 71.292969 C 41.175781 71.507812 41.414062 71.871094 41.476562 73.859375 C 41.542969 75.402344 41.5 75.679688 41.109375 76.128906 C 40.847656 76.40625 40.652344 76.726562 40.652344 76.835938 C 40.652344 76.917969 40.5 77.003906 40.324219 77.003906 C 40.152344 77.003906 40 77.113281 40 77.21875 C 40 77.347656 39.652344 77.433594 39.238281 77.433594 C 38.628906 77.433594 38.476562 77.347656 38.476562 77.003906 Z M 38.476562 77.003906 "/>
<path style=" stroke:none;fill-rule:nonzero;fill:rgb(80.784314%,80%,77.647059%);fill-opacity:1;" d="M 41.414062 69.304688 C 41.347656 69.199219 41.109375 69.089844 40.871094 69.089844 C 40.457031 69.089844 40.21875 68.683594 40.21875 68 C 40.21875 67.699219 40.371094 67.59375 40.871094 67.59375 C 42.023438 67.59375 42.609375 68 42.609375 68.8125 C 42.609375 69.410156 42.542969 69.519531 42.085938 69.519531 C 41.78125 69.519531 41.476562 69.433594 41.414062 69.304688 Z M 41.414062 69.304688 "/>
<path style=" stroke:none;fill-rule:nonzero;fill:rgb(79.607843%,79.215686%,79.215686%);fill-opacity:1;" d="M 0 73.816406 L 0 67.613281 L 18.871094 67.550781 C 29.238281 67.507812 47.238281 67.507812 58.871094 67.550781 L 80 67.613281 L 80 80 L 41.476562 80 L 41.628906 79.207031 C 41.71875 78.757812 41.78125 77.859375 41.761719 77.199219 C 41.761719 76.019531 41.761719 75.980469 42.457031 75.722656 C 43.738281 75.25 43.804688 75.1875 43.871094 74.097656 C 43.914062 73.519531 43.890625 72.75 43.804688 72.386719 C 43.675781 71.636719 41.457031 69.089844 40.957031 69.089844 C 40.78125 69.089844 40.390625 69.242188 40.109375 69.433594 C 39.804688 69.625 39.371094 69.734375 39.128906 69.667969 C 38.847656 69.605469 38.695312 69.667969 38.695312 69.859375 C 38.695312 70.03125 38.847656 70.160156 39.023438 70.160156 C 39.195312 70.160156 39.347656 70.246094 39.347656 70.375 C 39.347656 70.480469 39.652344 70.714844 40 70.910156 C 40.5 71.164062 40.652344 71.378906 40.652344 71.851562 C 40.652344 72.46875 40.652344 72.46875 40.023438 72.171875 C 39.261719 71.808594 38.738281 71.957031 38.652344 72.578125 C 38.609375 72.835938 38.476562 73.027344 38.371094 73.003906 C 38.238281 72.984375 38.152344 73.453125 38.152344 74.054688 C 38.152344 74.632812 38.085938 75.164062 38 75.207031 C 37.652344 75.421875 38.457031 75.9375 39.109375 75.9375 C 39.5 75.9375 39.78125 76.042969 39.78125 76.214844 C 39.78125 76.386719 39.871094 76.363281 40 76.148438 C 40.304688 75.699219 40.261719 75.550781 39.847656 75.421875 C 39.628906 75.359375 39.71875 75.335938 40.042969 75.378906 C 40.457031 75.421875 40.675781 75.316406 40.824219 74.996094 C 41.023438 74.609375 41.066406 74.589844 41.066406 74.929688 C 41.085938 75.230469 41.195312 75.292969 41.523438 75.1875 C 41.871094 75.082031 41.933594 75.121094 41.804688 75.445312 C 41.628906 75.957031 39.738281 77.859375 39.414062 77.859375 C 39.023438 77.859375 39.066406 78.546875 39.457031 79.058594 C 40.175781 79.980469 40.085938 80 34.347656 80 L 28.914062 80 L 28.914062 79.53125 C 28.914062 79.273438 29.128906 78.84375 29.371094 78.566406 C 29.824219 78.097656 29.824219 78.074219 29.433594 77.925781 C 28.914062 77.734375 28.609375 77.433594 28.414062 76.960938 C 28.042969 75.957031 27.609375 77.027344 27.609375 78.953125 L 27.609375 80 L 0 80 Z M 36.824219 78.417969 C 36.628906 77.796875 36.628906 77.796875 36.085938 78.117188 C 35.695312 78.332031 35.566406 78.332031 35.5 78.140625 C 35.433594 77.988281 35.261719 77.859375 35.109375 77.859375 C 34.890625 77.859375 34.824219 77.605469 34.847656 77.003906 C 34.871094 76.085938 35.21875 75.914062 36.109375 76.363281 C 36.457031 76.554688 36.523438 76.511719 36.523438 76.148438 C 36.523438 75.894531 36.628906 75.507812 36.761719 75.273438 C 37.085938 74.671875 37.195312 73.625 37.042969 72.578125 C 36.890625 71.488281 36.347656 71.359375 35.566406 72.191406 C 35.28125 72.492188 34.871094 72.726562 34.628906 72.726562 C 34.28125 72.726562 34.21875 72.621094 34.304688 72.191406 C 34.347656 71.894531 34.304688 71.65625 34.175781 71.65625 C 33.933594 71.65625 33.933594 71.273438 34.21875 70.84375 C 34.304688 70.695312 34.28125 70.4375 34.152344 70.289062 C 34.023438 70.140625 34 69.945312 34.085938 69.839844 C 34.175781 69.753906 34.042969 69.710938 33.78125 69.777344 C 33.5 69.839844 33.324219 69.777344 33.324219 69.605469 C 33.324219 69.453125 33.414062 69.367188 33.523438 69.433594 C 33.609375 69.496094 33.628906 69.390625 33.566406 69.21875 C 33.5 69.046875 33.304688 68.960938 33.152344 69.003906 C 32.976562 69.070312 32.914062 69.285156 32.976562 69.476562 C 33.085938 69.710938 33.023438 69.777344 32.761719 69.667969 C 32.261719 69.476562 32 70.054688 32 71.230469 C 32 71.765625 31.957031 72.46875 31.890625 72.8125 C 31.71875 73.648438 32.324219 77.476562 32.652344 77.691406 C 32.804688 77.777344 33.085938 77.859375 33.28125 77.859375 C 33.457031 77.859375 33.695312 77.945312 33.824219 78.074219 C 33.933594 78.183594 34.371094 78.332031 34.78125 78.375 C 35.195312 78.4375 35.585938 78.480469 35.652344 78.503906 C 35.71875 78.503906 35.566406 78.671875 35.324219 78.867188 C 34.914062 79.1875 34.914062 79.1875 35.476562 79.058594 C 35.804688 78.996094 36.128906 79.039062 36.195312 79.144531 C 36.457031 79.550781 36.976562 78.929688 36.824219 78.417969 Z M 37.523438 69.496094 C 37.457031 69.132812 37.390625 68.640625 37.390625 68.429688 C 37.390625 68.105469 37.238281 68.019531 36.71875 68.019531 C 36.128906 68.019531 36.066406 68.085938 36.195312 68.511719 C 36.542969 69.648438 36.871094 70.160156 37.261719 70.160156 C 37.585938 70.160156 37.628906 70.054688 37.523438 69.496094 Z M 38.414062 69.734375 C 38.390625 69.496094 38.304688 69.304688 38.21875 69.304688 C 38.128906 69.304688 38.042969 69.347656 38.042969 69.390625 C 38.042969 69.433594 37.976562 69.625 37.914062 69.816406 C 37.824219 70.03125 37.890625 70.160156 38.109375 70.160156 C 38.324219 70.160156 38.433594 69.988281 38.414062 69.734375 Z M 38.414062 69.734375 "/>
<path style=" stroke:none;fill-rule:nonzero;fill:rgb(79.607843%,79.215686%,79.215686%);fill-opacity:1;" d="M 19.628906 41.113281 C 19.238281 40.878906 19.195312 18.824219 19.585938 18.589844 C 19.933594 18.394531 59.195312 18.394531 59.542969 18.589844 C 59.71875 18.695312 59.761719 21.753906 59.738281 29.96875 L 59.675781 41.175781 L 39.78125 41.21875 C 28.847656 41.261719 19.78125 41.199219 19.628906 41.113281 Z M 58.476562 37.21875 C 58.542969 35.636719 58.542969 31.015625 58.476562 26.953125 L 58.371094 19.570312 L 39.523438 19.507812 C 29.128906 19.488281 20.652344 19.53125 20.652344 19.613281 C 20.628906 20.019531 20.628906 39.488281 20.628906 39.722656 C 20.652344 39.851562 20.914062 40.019531 21.261719 40.0625 C 21.585938 40.105469 30.066406 40.148438 40.109375 40.128906 L 58.371094 40.105469 Z M 58.476562 37.21875 "/>
<path style=" stroke:none;fill-rule:nonzero;fill:rgb(79.607843%,79.215686%,79.215686%);fill-opacity:1;" d="M 22.304688 38.757812 C 22.261719 38.671875 23.175781 37.175781 24.324219 35.445312 C 25.5 33.710938 28.109375 29.796875 30.128906 26.738281 C 32.152344 23.679688 33.914062 21.15625 34.042969 21.089844 C 34.175781 21.046875 35.738281 23.1875 37.523438 25.839844 C 39.304688 28.492188 41.433594 31.65625 42.238281 32.878906 C 43.066406 34.097656 43.847656 35.082031 43.976562 35.082031 C 44.238281 35.082031 44.28125 35.039062 46.914062 31.894531 C 48.738281 29.710938 49.324219 29.347656 49.761719 30.117188 C 49.871094 30.308594 51.5 32.257812 53.347656 34.4375 C 55.21875 36.621094 56.738281 38.523438 56.738281 38.671875 C 56.738281 38.867188 53.175781 38.929688 39.585938 38.929688 C 30.128906 38.929688 22.371094 38.867188 22.304688 38.757812 Z M 22.304688 38.757812 "/>
<path style=" stroke:none;fill-rule:nonzero;fill:rgb(79.607843%,79.215686%,79.215686%);fill-opacity:1;" d="M 25.71875 25.988281 C 24.175781 25.328125 23.652344 23.273438 24.71875 22.011719 C 25.824219 20.707031 27.433594 20.429688 29.085938 21.199219 C 31.371094 22.289062 31.21875 25.199219 28.847656 26.074219 C 28 26.394531 26.566406 26.351562 25.71875 25.988281 Z M 25.71875 25.988281 "/>
<path style=" stroke:none;fill-rule:nonzero;fill:rgb(0%,0%,0%);fill-opacity:1;" d="M 36.78125 77.902344 C 35.390625 77.496094 33.914062 75.488281 33.914062 74.011719 C 33.914062 73.605469 34.128906 72.855469 34.371094 72.34375 C 35.390625 70.265625 38.238281 69.476562 40.085938 70.757812 C 41.542969 71.742188 41.847656 72.34375 41.847656 74.074219 C 41.847656 75.445312 41.78125 75.699219 41.238281 76.40625 C 40.195312 77.734375 38.390625 78.351562 36.78125 77.902344 Z M 39.28125 76.640625 C 40.261719 76.191406 40.871094 75.207031 40.871094 74.117188 C 40.871094 71.914062 38.78125 70.652344 36.628906 71.53125 C 34.585938 72.386719 34.5 75.53125 36.5 76.578125 C 37.476562 77.089844 38.304688 77.113281 39.28125 76.640625 Z M 39.28125 76.640625 "/>
</g>
</svg>
