<?xml version="1.0" encoding="UTF-8"?>
<svg xmlns="http://www.w3.org/2000/svg" xmlns:xlink="http://www.w3.org/1999/xlink" width="80px" height="80px" viewBox="0 0 80 80" version="1.1">
<g id="surface1">
<path style=" stroke:none;fill-rule:nonzero;fill:rgb(100%,100%,100%);fill-opacity:1;" d="M 12.757812 40 L 12.757812 0 L 80 0 L 80 80 L 12.757812 80 Z M 62.960938 47.6875 C 63.046875 47.53125 63.136719 41.664062 63.136719 34.625 C 63.136719 22.234375 63.113281 21.816406 62.722656 21.558594 C 62.441406 21.375 56.996094 21.296875 46.53125 21.296875 C 33.46875 21.296875 30.703125 21.351562 30.507812 21.664062 C 30.335938 21.894531 30.292969 25.609375 30.3125 34.960938 L 30.378906 47.921875 L 44.863281 48.050781 C 60.300781 48.183594 62.722656 48.128906 62.960938 47.6875 Z M 62.960938 47.6875 "/>
<path style=" stroke:none;fill-rule:nonzero;fill:rgb(100%,100%,100%);fill-opacity:1;" d="M 32.84375 47.609375 L 30.960938 47.507812 L 30.832031 46.703125 C 30.765625 46.257812 30.703125 40.492188 30.703125 33.871094 L 30.703125 21.816406 L 62.703125 21.816406 L 62.703125 47.53125 L 50.117188 47.53125 C 43.179688 47.53125 36.886719 47.585938 36.109375 47.636719 C 35.328125 47.6875 33.859375 47.664062 32.84375 47.609375 Z M 60 45.117188 C 60.109375 45.066406 59.914062 44.570312 59.546875 44 C 59.179688 43.453125 58.292969 41.949219 57.578125 40.648438 C 55.222656 36.390625 54.59375 35.324219 54.488281 35.351562 C 54.421875 35.351562 53.707031 36.625 52.863281 38.183594 L 51.351562 41.039062 L 50.378906 40.960938 L 49.40625 40.910156 L 47.890625 37.402344 C 47.046875 35.480469 46.03125 33.144531 45.601562 32.207031 C 44.066406 28.910156 43.09375 26.882812 42.660156 26 L 42.207031 25.144531 L 41.296875 27.117188 C 40.671875 28.519531 40.28125 29.089844 39.976562 29.089844 C 39.652344 29.089844 39.566406 29.273438 39.566406 30.078125 C 39.566406 30.753906 39.285156 31.609375 38.679688 32.855469 C 37.664062 34.933594 35.371094 39.972656 34.464844 42.078125 C 34.140625 42.855469 33.6875 43.816406 33.46875 44.207031 C 33.253906 44.570312 33.082031 44.988281 33.082031 45.117188 C 33.082031 45.296875 59.480469 45.296875 60 45.117188 Z M 37.859375 29.453125 C 37.988281 29.246094 38.292969 29.089844 38.507812 29.089844 C 38.8125 29.089844 38.917969 28.855469 38.960938 28 C 39.046875 26.46875 38.464844 25.039062 37.492188 24.492188 C 36.777344 24.078125 36.714844 24.078125 35.785156 24.625 C 35.003906 25.066406 34.789062 25.351562 34.574219 26.257812 C 34.335938 27.222656 34.335938 27.429688 34.722656 28.257812 C 35.4375 29.816406 37.144531 30.46875 37.859375 29.453125 Z M 37.859375 29.453125 "/>
<path style=" stroke:none;fill-rule:nonzero;fill:rgb(93.333333%,93.333333%,93.333333%);fill-opacity:1;" d="M 12.496094 64.882812 C 12.476562 56.546875 12.453125 47.765625 12.453125 45.324219 C 12.433594 40.933594 12.433594 40.910156 12.929688 40.832031 L 13.40625 40.753906 L 13.40625 60.363281 C 13.40625 79.816406 13.40625 80 12.972656 80 C 12.539062 80 12.539062 79.816406 12.496094 64.882812 Z M 12.496094 64.882812 "/>
<path style=" stroke:none;fill-rule:nonzero;fill:rgb(93.333333%,93.333333%,93.333333%);fill-opacity:1;" d="M 29.835938 48.726562 C 29.492188 48.3125 29.558594 21.222656 29.882812 20.832031 C 30.292969 20.335938 62.875 20.390625 63.460938 20.882812 C 63.890625 21.222656 63.890625 21.507812 63.785156 34.882812 C 63.71875 42.390625 63.609375 48.625 63.523438 48.726562 C 63.285156 49.011719 30.074219 49.011719 29.835938 48.726562 Z M 49.144531 46.753906 L 62.054688 46.753906 L 62.054688 22.597656 L 31.351562 22.597656 L 31.351562 33.871094 C 31.351562 40.050781 31.417969 45.480469 31.480469 45.921875 L 31.609375 46.726562 L 33.492188 46.832031 C 34.507812 46.882812 35.546875 46.882812 35.785156 46.832031 C 36.023438 46.804688 42.03125 46.753906 49.144531 46.753906 Z M 49.144531 46.753906 "/>
<path style=" stroke:none;fill-rule:nonzero;fill:rgb(93.333333%,93.333333%,93.333333%);fill-opacity:1;" d="M 32.214844 46.027344 C 31.828125 45.871094 31.976562 45.066406 32.605469 43.871094 C 32.929688 43.246094 33.492188 42.078125 33.816406 41.296875 C 34.789062 39.066406 37.058594 34.078125 38.03125 32.078125 C 38.984375 30.128906 39.136719 29.558594 38.550781 30.207031 C 38.054688 30.726562 36.757812 31.011719 35.914062 30.777344 C 34.960938 30.546875 34.03125 29.351562 33.730469 28.078125 C 33.535156 27.167969 33.558594 26.753906 33.835938 25.6875 C 34.164062 24.570312 34.335938 24.3125 35.265625 23.765625 C 36.519531 22.988281 36.800781 22.988281 37.988281 23.609375 C 39.15625 24.257812 39.890625 25.84375 39.71875 27.351562 C 39.566406 28.597656 39.609375 28.546875 40.84375 25.921875 C 41.382812 24.726562 41.988281 23.742188 42.183594 23.6875 C 42.421875 23.636719 42.746094 24.050781 43.136719 24.855469 C 45.816406 30.46875 46.789062 32.597656 48.539062 36.625 C 49.363281 38.546875 50.207031 40.15625 50.378906 40.183594 C 50.574219 40.234375 51.265625 39.167969 52.214844 37.402344 C 54.398438 33.296875 54.183594 33.585938 54.617188 33.921875 C 55.003906 34.183594 55.609375 35.195312 58.398438 40.128906 C 59.285156 41.714844 60.347656 43.53125 60.757812 44.234375 C 61.253906 45.066406 61.425781 45.53125 61.277344 45.714844 C 61.082031 45.949219 32.800781 46.257812 32.214844 46.027344 Z M 59.222656 44.414062 C 59.046875 44.128906 57.96875 42.207031 56.777344 40.128906 C 55.609375 38.050781 54.574219 36.363281 54.507812 36.363281 C 54.441406 36.363281 53.835938 37.324219 53.1875 38.46875 C 51.222656 41.921875 51.308594 41.816406 50.3125 41.816406 C 49.40625 41.816406 49.40625 41.816406 48.453125 39.792969 C 47.933594 38.703125 46.441406 35.402344 45.125 32.46875 C 43.828125 29.53125 42.636719 26.933594 42.488281 26.675781 C 42.164062 26.128906 42.207031 26.050781 39.957031 31.039062 C 38.3125 34.625 34.335938 43.480469 33.96875 44.363281 L 33.707031 44.933594 L 46.617188 44.933594 C 59.4375 44.933594 59.503906 44.933594 59.222656 44.414062 Z M 37.707031 28.855469 C 37.925781 28.625 38.25 28.105469 38.421875 27.714844 C 38.703125 27.066406 38.679688 26.910156 38.335938 26.15625 C 38.097656 25.714844 37.664062 25.167969 37.363281 24.933594 C 36.84375 24.597656 36.714844 24.597656 36 25.011719 C 34.574219 25.84375 34.488281 27.894531 35.847656 29.011719 C 36.605469 29.609375 37.015625 29.558594 37.707031 28.855469 Z M 37.707031 28.855469 "/>
<path style=" stroke:none;fill-rule:nonzero;fill:rgb(93.333333%,93.333333%,93.333333%);fill-opacity:1;" d="M 12.433594 36.570312 C 12.367188 35.53125 12.347656 33.039062 12.410156 31.039062 C 12.453125 29.039062 12.496094 21.246094 12.519531 13.714844 C 12.539062 0.183594 12.539062 0 12.972656 0 C 13.40625 0 13.40625 0.183594 13.40625 19.222656 C 13.40625 37.972656 13.40625 38.441406 12.996094 38.441406 C 12.628906 38.441406 12.5625 38.183594 12.433594 36.570312 Z M 12.433594 36.570312 "/>
<path style=" stroke:none;fill-rule:nonzero;fill:rgb(80%,79.607843%,81.568627%);fill-opacity:1;" d="M 12.238281 50.207031 C 12.066406 48.933594 12.066406 47.402344 12.238281 45.871094 C 12.347656 44.988281 12.476562 44.675781 12.757812 44.675781 C 13.082031 44.675781 13.125 45.039062 13.144531 47.921875 C 13.167969 50.882812 13.125 51.167969 12.777344 51.167969 C 12.496094 51.167969 12.347656 50.910156 12.238281 50.207031 Z M 12.238281 50.207031 "/>
<path style=" stroke:none;fill-rule:nonzero;fill:rgb(80%,79.607843%,81.568627%);fill-opacity:1;" d="M 60.324219 47.792969 C 60.324219 47.351562 60.476562 47.273438 61.1875 47.273438 C 61.902344 47.273438 62.054688 47.351562 62.054688 47.792969 C 62.054688 48.234375 61.902344 48.3125 61.1875 48.3125 C 60.476562 48.3125 60.324219 48.234375 60.324219 47.792969 Z M 60.324219 47.792969 "/>
<path style=" stroke:none;fill-rule:nonzero;fill:rgb(80%,79.607843%,81.568627%);fill-opacity:1;" d="M 30.054688 45.585938 C 30.054688 44.363281 30.117188 44.15625 30.464844 44.15625 C 30.8125 44.15625 30.898438 44.390625 30.960938 45.585938 C 31.027344 46.910156 31.003906 47.011719 30.550781 47.011719 C 30.097656 47.011719 30.054688 46.882812 30.054688 45.585938 Z M 30.054688 45.585938 "/>
<path style=" stroke:none;fill-rule:nonzero;fill:rgb(80%,79.607843%,81.568627%);fill-opacity:1;" d="M 8.496094 44.234375 C 8.109375 44.128906 8 43.949219 8 43.273438 C 8 42.777344 8.152344 42.257812 8.347656 42.078125 C 9.339844 41.066406 9.925781 38.882812 10.355469 34.414062 C 10.574219 32.363281 10.960938 31.429688 11.589844 31.429688 C 11.976562 31.429688 12.109375 31.246094 12.238281 30.519531 C 12.367188 29.664062 12.929688 29.222656 12.996094 29.949219 C 13.167969 31.742188 13.125 33.664062 12.929688 33.792969 C 12.691406 33.972656 12.496094 35.636719 12.152344 40.492188 C 12.023438 42.285156 11.871094 43.011719 11.609375 43.246094 C 11.417969 43.429688 11.242188 43.765625 11.242188 44 C 11.242188 44.335938 11.027344 44.414062 10.117188 44.390625 C 9.492188 44.363281 8.757812 44.285156 8.496094 44.234375 Z M 8.496094 44.234375 "/>
<path style=" stroke:none;fill-rule:nonzero;fill:rgb(80%,79.607843%,81.568627%);fill-opacity:1;" d="M 30.054688 42.988281 C 30.054688 42.257812 30.140625 42.078125 30.488281 42.078125 C 30.832031 42.078125 30.917969 42.257812 30.917969 42.988281 C 30.917969 43.714844 30.832031 43.894531 30.488281 43.894531 C 30.140625 43.894531 30.054688 43.714844 30.054688 42.988281 Z M 30.054688 42.988281 "/>
<path style=" stroke:none;fill-rule:nonzero;fill:rgb(80%,79.607843%,81.568627%);fill-opacity:1;" d="M 4.714844 39.816406 C 4.648438 39.453125 4.453125 39.375 3.71875 39.429688 C 2.832031 39.507812 2.8125 39.507812 2.8125 38.753906 C 2.8125 38.335938 3.003906 37.453125 3.242188 36.804688 C 3.742188 35.480469 4.648438 34.804688 5.925781 34.804688 C 6.679688 34.804688 6.703125 34.777344 6.703125 33.792969 C 6.703125 32.675781 6.917969 32.46875 8.085938 32.46875 C 9.058594 32.46875 9.511719 33.144531 9.511719 34.625 L 9.511719 35.84375 L 7.847656 35.84375 L 7.742188 37.117188 C 7.675781 37.816406 7.503906 38.570312 7.328125 38.777344 C 7.15625 38.988281 6.875 39.402344 6.703125 39.714844 C 6.292969 40.414062 4.820312 40.492188 4.714844 39.816406 Z M 4.714844 39.816406 "/>
<path style=" stroke:none;fill-rule:nonzero;fill:rgb(80%,79.607843%,81.568627%);fill-opacity:1;" d="M 30.054688 38.832031 C 30.054688 38.105469 30.140625 37.921875 30.488281 37.921875 C 30.832031 37.921875 30.917969 38.105469 30.917969 38.832031 C 30.917969 39.558594 30.832031 39.742188 30.488281 39.742188 C 30.140625 39.742188 30.054688 39.558594 30.054688 38.832031 Z M 30.054688 38.832031 "/>
<path style=" stroke:none;fill-rule:nonzero;fill:rgb(80%,79.607843%,81.568627%);fill-opacity:1;" d="M 30.054688 35.585938 C 30.054688 34.726562 30.117188 34.546875 30.488281 34.546875 C 30.855469 34.546875 30.917969 34.726562 30.917969 35.585938 C 30.917969 36.441406 30.855469 36.625 30.488281 36.625 C 30.117188 36.625 30.054688 36.441406 30.054688 35.585938 Z M 30.054688 35.585938 "/>
<path style=" stroke:none;fill-rule:nonzero;fill:rgb(80%,79.607843%,81.568627%);fill-opacity:1;" d="M 38.269531 27.144531 C 38.269531 26.335938 38.335938 26.234375 38.8125 26.234375 C 39.285156 26.234375 39.351562 26.335938 39.351562 27.144531 C 39.351562 27.949219 39.285156 28.050781 38.8125 28.050781 C 38.335938 28.050781 38.269531 27.949219 38.269531 27.144531 Z M 38.269531 27.144531 "/>
<path style=" stroke:none;fill-rule:nonzero;fill:rgb(80%,79.607843%,81.568627%);fill-opacity:1;" d="M 41.511719 25.507812 C 41.511719 25.402344 41.664062 25.039062 41.859375 24.726562 C 42.25 24.078125 42.679688 24.285156 42.875 25.195312 C 42.960938 25.636719 42.875 25.714844 42.25 25.714844 C 41.835938 25.714844 41.511719 25.636719 41.511719 25.507812 Z M 41.511719 25.507812 "/>
<path style=" stroke:none;fill-rule:nonzero;fill:rgb(80%,79.607843%,81.568627%);fill-opacity:1;" d="M 30.054688 22.988281 C 30.054688 22.207031 30.117188 22.078125 30.550781 22.078125 C 30.984375 22.078125 31.046875 22.183594 30.960938 22.988281 C 30.898438 23.664062 30.765625 23.894531 30.464844 23.894531 C 30.140625 23.894531 30.054688 23.714844 30.054688 22.988281 Z M 30.054688 22.988281 "/>
<path style=" stroke:none;fill-rule:nonzero;fill:rgb(80%,79.607843%,81.568627%);fill-opacity:1;" d="M 32.648438 21.558594 C 32.648438 21.089844 32.800781 21.039062 34.378906 21.039062 C 35.957031 21.039062 36.109375 21.089844 36.109375 21.558594 C 36.109375 22.027344 35.957031 22.078125 34.378906 22.078125 C 32.800781 22.078125 32.648438 22.027344 32.648438 21.558594 Z M 32.648438 21.558594 "/>
<path style=" stroke:none;fill-rule:nonzero;fill:rgb(80%,79.607843%,81.568627%);fill-opacity:1;" d="M 39.785156 21.558594 C 39.785156 21.144531 39.933594 21.039062 40.539062 21.039062 C 41.144531 21.039062 41.296875 21.144531 41.296875 21.558594 C 41.296875 21.972656 41.144531 22.078125 40.539062 22.078125 C 39.933594 22.078125 39.785156 21.972656 39.785156 21.558594 Z M 39.785156 21.558594 "/>
<path style=" stroke:none;fill-rule:nonzero;fill:rgb(80%,79.607843%,81.568627%);fill-opacity:1;" d="M 60.757812 21.558594 C 60.757812 21.144531 60.90625 21.039062 61.511719 21.039062 C 62.117188 21.039062 62.269531 21.144531 62.269531 21.558594 C 62.269531 21.972656 62.117188 22.078125 61.511719 22.078125 C 60.90625 22.078125 60.757812 21.972656 60.757812 21.558594 Z M 60.757812 21.558594 "/>
<path style=" stroke:none;fill-rule:nonzero;fill:rgb(79.607843%,80.392157%,80.784314%);fill-opacity:1;" d="M 0 40 L 0 0 L 13.210938 0 L 13.1875 15.558594 C 13.167969 24.128906 13.101562 31.195312 13.039062 31.273438 C 12.84375 31.507812 12.84375 32.960938 13.015625 32.832031 C 13.101562 32.753906 13.167969 33.429688 13.144531 34.335938 C 13.125 35.246094 13.1875 37.089844 13.296875 38.492188 C 13.382812 39.871094 13.382812 41.195312 13.296875 41.480469 C 13.125 41.949219 12.929688 45.894531 12.972656 48.050781 C 12.972656 48.703125 13.039062 56.15625 13.101562 64.625 L 13.210938 80 L 0 80 Z M 4.152344 44.15625 C 4.496094 44.15625 4.324219 42.882812 3.914062 42.546875 C 3.242188 41.972656 2.8125 40.625 2.8125 39.117188 C 2.8125 37.167969 3.09375 36.363281 3.785156 36.363281 C 4.257812 36.363281 4.300781 36.414062 4.109375 37.011719 C 3.957031 37.480469 3.976562 37.664062 4.171875 37.664062 C 4.582031 37.6875 5.664062 38.933594 5.511719 39.222656 C 5.449219 39.375 5.492188 39.480469 5.601562 39.480469 C 5.730469 39.480469 5.835938 39.296875 5.835938 39.066406 C 5.835938 38.855469 5.925781 38.726562 6.03125 38.804688 C 6.140625 38.882812 6.335938 38.648438 6.464844 38.234375 C 6.59375 37.84375 6.8125 37.324219 6.960938 37.089844 C 7.179688 36.726562 7.15625 36.546875 6.765625 36.105469 C 6.507812 35.816406 6.207031 35.585938 6.074219 35.585938 C 5.96875 35.585938 5.835938 35.480469 5.792969 35.375 C 5.773438 35.246094 5.296875 35.066406 4.757812 34.988281 C 3.828125 34.832031 3.742188 34.882812 3.308594 35.664062 C 2.984375 36.234375 2.507812 36.625 1.882812 36.832031 L 0.929688 37.167969 L 1.339844 39.011719 C 1.558594 40.027344 1.882812 41.167969 2.054688 41.585938 C 2.226562 41.972656 2.378906 42.832031 2.378906 43.453125 C 2.378906 44.441406 2.441406 44.597656 2.984375 44.832031 C 3.460938 45.066406 3.609375 45.011719 3.761719 44.625 C 3.871094 44.363281 4.042969 44.15625 4.152344 44.15625 Z M 10.59375 43.089844 C 10.59375 42.855469 10.746094 42.597656 10.917969 42.492188 C 11.09375 42.414062 11.242188 42.257812 11.222656 42.15625 C 11.199219 42.050781 11.222656 41.894531 11.242188 41.816406 C 11.265625 41.742188 11.328125 40.804688 11.394531 39.742188 C 11.460938 38.675781 11.632812 37.402344 11.804688 36.933594 C 12.109375 36.050781 12.195312 32.570312 11.914062 32.335938 C 11.632812 32.128906 11.027344 34 11.027344 35.117188 C 11.027344 35.6875 10.941406 36.597656 10.8125 37.117188 C 10.703125 37.636719 10.550781 38.492188 10.488281 39.039062 C 10.335938 40.15625 9.730469 40.414062 9.730469 39.351562 C 9.730469 38.648438 9.015625 36.777344 8.648438 36.492188 C 8.519531 36.390625 8.433594 36.648438 8.433594 37.089844 C 8.433594 38.183594 7.828125 39.765625 7.351562 39.921875 C 6.832031 40.078125 7.003906 40.625 7.699219 40.988281 C 7.976562 41.167969 8.214844 41.453125 8.214844 41.6875 C 8.214844 41.949219 8.433594 42.078125 8.90625 42.078125 L 9.578125 42.078125 L 9.058594 42.753906 C 8.734375 43.167969 8.671875 43.351562 8.90625 43.246094 C 9.101562 43.144531 9.320312 43.195312 9.382812 43.324219 C 9.601562 43.765625 10.59375 43.558594 10.59375 43.089844 Z M 8.863281 34.570312 C 8.863281 33.921875 8.152344 33.195312 7.699219 33.402344 C 7.242188 33.609375 7.265625 33.921875 7.742188 34.492188 C 8.238281 35.117188 8.863281 35.167969 8.863281 34.570312 Z M 8.863281 34.570312 "/>
<path style=" stroke:none;fill-rule:nonzero;fill:rgb(79.607843%,80.392157%,80.784314%);fill-opacity:1;" d="M 31.09375 48.363281 L 30.054688 48.285156 L 30.054688 21.011719 L 32.324219 21.066406 C 33.644531 21.089844 34.59375 21.222656 34.59375 21.375 C 34.59375 21.507812 34.722656 21.507812 34.875 21.324219 C 35.09375 21.117188 39.179688 21.066406 49.210938 21.117188 L 63.242188 21.167969 L 63.308594 34.625 C 63.351562 45.246094 63.308594 48.105469 63.09375 48.183594 C 62.789062 48.3125 32.691406 48.492188 31.09375 48.363281 Z M 61.40625 47.53125 C 61.40625 47.402344 61.601562 47.273438 61.835938 47.273438 C 62.097656 47.273438 62.3125 47.039062 62.378906 46.703125 C 62.441406 46.363281 62.464844 40.726562 62.441406 34.15625 L 62.378906 22.207031 L 46.832031 22.128906 C 38.269531 22.105469 31.199219 22.15625 31.09375 22.285156 C 30.789062 22.648438 30.855469 46.46875 31.15625 46.910156 C 31.371094 47.222656 33.621094 47.273438 46.3125 47.273438 C 56.195312 47.273438 61.167969 47.351562 61.082031 47.53125 C 61.015625 47.6875 61.058594 47.792969 61.167969 47.792969 C 61.296875 47.792969 61.40625 47.6875 61.40625 47.53125 Z M 61.40625 47.53125 "/>
<path style=" stroke:none;fill-rule:nonzero;fill:rgb(79.607843%,80.392157%,80.784314%);fill-opacity:1;" d="M 32.734375 45.375 C 32.671875 45.167969 33.707031 42.625 35.027344 39.714844 C 36.347656 36.804688 38.421875 32.234375 39.632812 29.558594 C 41.511719 25.402344 41.902344 24.703125 42.269531 24.804688 C 42.507812 24.882812 42.574219 24.855469 42.441406 24.777344 C 42.292969 24.703125 42.164062 24.492188 42.164062 24.335938 C 42.164062 23.894531 42.507812 24.414062 43.09375 25.714844 C 48.996094 38.960938 49.988281 41.066406 50.355469 40.988281 C 50.660156 40.910156 51.027344 40.335938 53.167969 36.546875 C 53.816406 35.429688 54.421875 34.570312 54.550781 34.625 C 54.960938 34.777344 60.800781 45.167969 60.628906 45.480469 C 60.5625 45.609375 54.8125 45.714844 46.679688 45.714844 C 35.371094 45.714844 32.820312 45.664062 32.734375 45.375 Z M 32.734375 45.375 "/>
<path style=" stroke:none;fill-rule:nonzero;fill:rgb(79.607843%,80.392157%,80.784314%);fill-opacity:1;" d="M 35.242188 29.816406 C 34.226562 28.988281 33.792969 27.402344 34.207031 25.921875 C 34.464844 24.988281 34.679688 24.703125 35.523438 24.207031 C 36.453125 23.636719 36.605469 23.609375 37.449219 23.949219 C 39.199219 24.597656 39.890625 27.011719 38.855469 28.855469 C 37.96875 30.46875 36.519531 30.832031 35.242188 29.816406 Z M 35.242188 29.816406 "/>
<path style=" stroke:none;fill-rule:nonzero;fill:rgb(81.568627%,80%,78.039216%);fill-opacity:1;" d="M 2.335938 45.636719 C 1.75 45.375 1.40625 44.285156 1.644531 43.53125 C 1.707031 43.324219 1.621094 42.804688 1.425781 42.390625 C 0.972656 41.324219 0.0234375 36.988281 0.195312 36.703125 C 0.324219 36.46875 1.6875 35.714844 1.988281 35.714844 C 2.074219 35.714844 2.441406 35.222656 2.8125 34.597656 C 3.328125 33.765625 3.632812 33.507812 4.109375 33.507812 C 4.453125 33.507812 4.757812 33.6875 4.84375 33.894531 C 4.90625 34.105469 5.167969 34.285156 5.40625 34.285156 C 5.988281 34.285156 5.988281 35.222656 5.40625 35.453125 C 4.671875 35.742188 3.761719 36.804688 3.351562 37.894531 C 3.136719 38.492188 2.8125 38.960938 2.636719 38.960938 C 2.441406 38.960938 2.378906 39.117188 2.464844 39.375 C 2.53125 39.609375 2.59375 39.84375 2.59375 39.894531 C 2.59375 39.949219 2.746094 40 2.917969 40 C 3.113281 40 3.328125 40.207031 3.394531 40.441406 C 3.566406 40.933594 4.367188 41.921875 5.144531 42.519531 C 5.6875 42.960938 5.792969 43.636719 5.296875 43.636719 C 5.101562 43.636719 4.972656 43.871094 4.972656 44.285156 C 4.972656 44.648438 4.886719 44.933594 4.777344 44.933594 C 4.671875 44.933594 4.496094 45.167969 4.433594 45.453125 C 4.28125 46.027344 3.351562 46.128906 2.335938 45.636719 Z M 2.335938 45.636719 "/>
<path style=" stroke:none;fill-rule:nonzero;fill:rgb(81.568627%,80%,78.039216%);fill-opacity:1;" d="M 7.113281 42.492188 L 7.632812 42.15625 L 7.136719 41.816406 C 6.097656 41.167969 5.816406 40.648438 6.03125 39.949219 C 6.140625 39.585938 6.441406 39.222656 6.679688 39.144531 C 7.15625 38.988281 7.871094 37.246094 7.699219 36.570312 C 7.632812 36.183594 7.761719 36.105469 8.519531 36.105469 C 9.664062 36.105469 9.945312 36.675781 9.945312 39.117188 C 9.945312 41.765625 9.253906 42.855469 7.566406 42.832031 C 6.636719 42.832031 6.617188 42.832031 7.113281 42.492188 Z M 7.113281 42.492188 "/>
<path style=" stroke:none;fill-rule:nonzero;fill:rgb(81.568627%,80%,78.039216%);fill-opacity:1;" d="M 12.023438 41.480469 C 11.699219 40.988281 11.652344 40.570312 11.761719 38.3125 C 11.828125 36.882812 11.890625 35.6875 11.890625 35.664062 C 11.890625 35.609375 12.085938 35.585938 12.324219 35.585938 C 12.734375 35.585938 12.757812 35.765625 12.757812 38.519531 C 12.757812 41.792969 12.628906 42.335938 12.023438 41.480469 Z M 12.023438 41.480469 "/>
<path style=" stroke:none;fill-rule:nonzero;fill:rgb(80.784314%,77.254902%,76.862745%);fill-opacity:1;" d="M 3.222656 42.050781 C 3.046875 41.84375 2.832031 41.453125 2.746094 41.222656 C 2.679688 40.988281 2.464844 40.777344 2.292969 40.777344 C 1.925781 40.777344 1.730469 40.207031 1.730469 39.066406 C 1.730469 38.492188 1.835938 38.183594 2.011719 38.183594 C 2.183594 38.183594 2.421875 37.894531 2.550781 37.53125 C 2.960938 36.46875 3.242188 36.777344 3.242188 38.285156 C 3.242188 39.039062 3.351562 40.027344 3.480469 40.46875 C 3.609375 40.910156 3.675781 41.53125 3.632812 41.871094 C 3.566406 42.414062 3.546875 42.441406 3.222656 42.050781 Z M 3.222656 42.050781 "/>
<path style=" stroke:none;fill-rule:nonzero;fill:rgb(80.784314%,77.254902%,76.862745%);fill-opacity:1;" d="M 8.996094 37.324219 C 8.863281 36.988281 8.671875 36.882812 8.300781 36.988281 C 7.933594 37.117188 7.785156 37.039062 7.785156 36.753906 C 7.785156 36.546875 7.589844 36.128906 7.351562 35.84375 C 6.765625 35.144531 6.789062 35.066406 7.652344 35.066406 C 8.734375 35.066406 9.363281 35.765625 9.253906 36.882812 C 9.1875 37.609375 9.125 37.6875 8.996094 37.324219 Z M 8.996094 37.324219 "/>
<path style=" stroke:none;fill-rule:nonzero;fill:rgb(80.784314%,77.254902%,76.862745%);fill-opacity:1;" d="M 11.914062 35.222656 C 12 33.949219 12.152344 33.144531 12.390625 32.855469 C 12.734375 32.46875 12.757812 32.570312 12.757812 34.726562 C 12.757812 36.234375 12.691406 36.882812 12.539062 36.625 C 12.367188 36.3125 12.324219 36.3125 12.195312 36.703125 C 11.890625 37.664062 11.785156 37.066406 11.914062 35.222656 Z M 11.914062 35.222656 "/>
<path style=" stroke:none;fill-rule:nonzero;fill:rgb(0%,0%,9.411765%);fill-opacity:1;" d="M 9.082031 41.949219 C 9.082031 41.742188 8.972656 41.558594 8.863281 41.558594 C 8.734375 41.558594 8.777344 41.222656 8.972656 40.777344 C 9.363281 39.871094 9.382812 38.46875 9.039062 37.53125 C 8.820312 36.960938 8.84375 36.804688 9.101562 36.597656 C 9.578125 36.234375 9.6875 36.3125 10.054688 37.144531 C 10.53125 38.257812 10.464844 40.128906 9.902344 41.324219 C 9.425781 42.363281 9.082031 42.625 9.082031 41.949219 Z M 9.082031 41.949219 "/>
<path style=" stroke:none;fill-rule:nonzero;fill:rgb(0%,0%,0%);fill-opacity:1;" d="M 5.058594 43.636719 C 3.976562 43.222656 2.855469 41.6875 2.574219 40.15625 C 1.96875 36.910156 3.742188 34.285156 6.53125 34.285156 C 7.804688 34.3125 9.144531 35.195312 9.707031 36.414062 C 9.988281 37.011719 9.988281 37.117188 9.644531 37.53125 C 9.234375 38.027344 9.253906 38.027344 8.886719 37.195312 C 8.519531 36.335938 7.371094 35.585938 6.488281 35.585938 C 4.929688 35.585938 3.460938 37.246094 3.460938 39.011719 C 3.460938 40.777344 4.953125 42.597656 6.378906 42.597656 C 7.15625 42.597656 8.800781 41.453125 8.972656 40.777344 C 9.101562 40.3125 9.144531 40.285156 9.449219 40.648438 C 10.703125 42.183594 7.328125 44.46875 5.058594 43.636719 Z M 5.058594 43.636719 "/>
</g>
</svg>
