<?xml version="1.0" encoding="UTF-8"?>
<svg xmlns="http://www.w3.org/2000/svg" xmlns:xlink="http://www.w3.org/1999/xlink" width="80px" height="80px" viewBox="0 0 80 80" version="1.1">
<g id="surface1">
<path style=" stroke:none;fill-rule:nonzero;fill:rgb(100%,100%,100%);fill-opacity:1;" d="M 63.121094 74.0625 C 63.121094 73.722656 62.984375 73.679688 62.082031 73.789062 C 61.0625 73.894531 61.039062 73.871094 61.039062 73.253906 C 61.039062 72.894531 61.109375 72.296875 61.179688 71.9375 C 61.316406 71.363281 61.410156 71.277344 62.105469 71.277344 C 62.542969 71.277344 62.890625 71.363281 62.890625 71.46875 C 62.890625 71.574219 63.167969 71.703125 63.539062 71.746094 C 64.023438 71.789062 64.183594 71.9375 64.230469 72.402344 C 64.277344 72.722656 64.417969 72.980469 64.53125 72.980469 C 64.648438 72.980469 64.738281 73.320312 64.738281 73.722656 C 64.738281 74.425781 64.695312 74.46875 63.929688 74.46875 C 63.285156 74.46875 63.121094 74.382812 63.121094 74.0625 Z M 63.121094 74.0625 "/>
<path style=" stroke:none;fill-rule:nonzero;fill:rgb(100%,100%,100%);fill-opacity:1;" d="M 32.140625 73.53125 C 32.140625 73.148438 32.207031 72.511719 32.277344 72.148438 C 32.417969 71.574219 32.53125 71.488281 33.203125 71.488281 C 34.148438 71.488281 34.683594 72.105469 34.683594 73.210938 C 34.683594 73.914062 34.613281 74 33.964844 74.128906 C 32.417969 74.402344 32.140625 74.320312 32.140625 73.53125 Z M 32.140625 73.53125 "/>
<path style=" stroke:none;fill-rule:nonzero;fill:rgb(100%,100%,100%);fill-opacity:1;" d="M 47.167969 73.105469 C 47.167969 72.128906 47.675781 71.703125 48.878906 71.703125 C 50.082031 71.703125 50.40625 71.980469 50.40625 73.019531 L 50.40625 73.828125 L 47.167969 73.828125 Z M 47.167969 73.105469 "/>
<path style=" stroke:none;fill-rule:nonzero;fill:rgb(100%,100%,100%);fill-opacity:1;" d="M 0 33.296875 L 0 0 L 80 0 L 80 66.597656 L 0 66.597656 Z M 35.328125 39.210938 C 32.925781 39.171875 29.039062 39.171875 26.660156 39.210938 C 24.253906 39.234375 26.21875 39.253906 30.984375 39.253906 C 35.746094 39.253906 37.710938 39.234375 35.328125 39.210938 Z M 54.035156 39.210938 C 52.160156 39.171875 49.109375 39.171875 47.214844 39.210938 C 45.339844 39.234375 46.890625 39.277344 50.636719 39.277344 C 54.382812 39.277344 55.929688 39.234375 54.035156 39.210938 Z M 17.570312 28.46875 L 17.457031 17.765625 L 17.386719 28.191406 C 17.339844 37.46875 17.386719 39.148438 17.617188 39.148438 C 17.664062 39.148438 17.640625 34.339844 17.570312 28.46875 Z M 59.421875 28.53125 C 59.421875 22.679688 59.351562 17.851562 59.261719 17.808594 C 59.144531 17.746094 59.074219 22.53125 59.074219 28.425781 C 59.074219 34.320312 59.144531 39.148438 59.261719 39.148438 C 59.351562 39.148438 59.421875 34.363281 59.421875 28.53125 Z M 55.492188 36.914062 C 55.492188 36.871094 54.429688 35.636719 53.132812 34.210938 C 51.816406 32.765625 50.242188 31 49.59375 30.277344 L 48.4375 28.9375 L 47.859375 29.636719 C 47.539062 30 46.519531 31.171875 45.59375 32.191406 C 43.976562 33.980469 43.859375 34.0625 43.050781 34 C 42.082031 33.914062 41.851562 33.636719 37.339844 27.234375 C 35.816406 25.0625 34.105469 22.679688 33.550781 21.957031 L 32.53125 20.597656 L 31.859375 21.636719 C 31.097656 22.828125 29.386719 25.234375 28.183594 26.851562 C 27.722656 27.46875 26.335938 29.425781 25.085938 31.171875 C 23.839844 32.9375 22.40625 34.914062 21.917969 35.597656 C 21.433594 36.277344 21.039062 36.871094 21.039062 36.9375 C 21.039062 36.980469 28.785156 37.019531 38.265625 37.019531 C 47.746094 37.019531 55.492188 36.980469 55.492188 36.914062 Z M 27.214844 23.765625 C 28.324219 23.0625 28.601562 22.320312 28.046875 21.445312 C 27.515625 20.617188 26.3125 19.9375 25.410156 19.957031 C 24.507812 19.980469 23.191406 20.746094 22.773438 21.511719 C 22.449219 22.042969 22.449219 22.210938 22.75 22.722656 C 23.699219 24.425781 25.503906 24.851562 27.214844 23.765625 Z M 27.214844 23.765625 "/>
<path style=" stroke:none;fill-rule:nonzero;fill:rgb(89.019608%,87.45098%,87.843137%);fill-opacity:1;" d="M 55.769531 76.128906 C 55.605469 75.980469 55.492188 75.746094 55.492188 75.597656 C 55.492188 75.445312 55.238281 75.320312 54.9375 75.320312 C 54.035156 75.320312 53.640625 75.085938 53.640625 74.574219 C 53.640625 73.789062 53.363281 72.765625 53.15625 72.765625 C 53.039062 72.765625 52.949219 72.914062 52.949219 73.085938 C 52.949219 73.296875 52.695312 73.402344 52.140625 73.402344 C 51.375 73.402344 51.328125 73.363281 51.328125 72.660156 C 51.328125 72.148438 51.445312 71.914062 51.675781 71.914062 C 51.859375 71.914062 52.023438 71.765625 52.023438 71.597656 C 52.023438 71.382812 52.277344 71.277344 52.832031 71.277344 C 53.480469 71.277344 53.640625 71.363281 53.640625 71.703125 C 53.640625 72.019531 53.78125 72.128906 54.289062 72.105469 C 54.636719 72.085938 54.75 72.042969 54.542969 71.980469 C 54.128906 71.894531 53.871094 71.296875 53.871094 70.382812 C 53.871094 69.851562 53.964844 69.789062 54.660156 69.789062 C 55.238281 69.789062 55.46875 69.894531 55.5625 70.210938 C 55.628906 70.511719 55.882812 70.636719 56.277344 70.636719 C 56.601562 70.636719 56.878906 70.554688 56.878906 70.425781 C 56.878906 70.105469 60.832031 70.210938 61.203125 70.53125 C 61.363281 70.703125 61.503906 71.253906 61.503906 71.789062 L 61.503906 72.765625 L 60.554688 72.765625 C 59.792969 72.765625 59.628906 72.828125 59.699219 73.148438 C 59.792969 73.636719 61.039062 73.789062 61.039062 73.296875 C 61.039062 73.105469 61.203125 72.957031 61.457031 73 C 62.613281 73.105469 63.605469 72.957031 63.515625 72.722656 C 63.46875 72.574219 63.285156 72.46875 63.144531 72.511719 C 63.003906 72.53125 62.890625 72.445312 62.890625 72.339844 C 62.890625 72.234375 63.261719 72.128906 63.699219 72.128906 L 64.53125 72.128906 L 64.460938 73.789062 L 64.394531 75.425781 L 62.542969 75.574219 C 61.527344 75.660156 60.253906 75.789062 59.722656 75.871094 C 59.050781 75.957031 58.726562 75.914062 58.726562 75.765625 C 58.726562 75.363281 58.3125 75.511719 58.148438 75.957031 C 58.035156 76.296875 57.804688 76.382812 57.015625 76.382812 C 56.484375 76.382812 55.929688 76.277344 55.769531 76.128906 Z M 55.769531 76.128906 "/>
<path style=" stroke:none;fill-rule:nonzero;fill:rgb(89.019608%,87.45098%,87.843137%);fill-opacity:1;" d="M 47.167969 75.445312 C 47.167969 75.171875 47.238281 74.636719 47.304688 74.277344 C 47.445312 73.679688 47.539062 73.617188 48.347656 73.617188 C 49.25 73.617188 49.25 73.617188 49.25 74.46875 C 49.25 74.9375 49.15625 75.320312 49.015625 75.320312 C 48.902344 75.320312 48.785156 75.46875 48.785156 75.636719 C 48.785156 75.851562 48.53125 75.957031 47.976562 75.957031 C 47.285156 75.957031 47.167969 75.894531 47.167969 75.445312 Z M 47.167969 75.445312 "/>
<path style=" stroke:none;fill-rule:nonzero;fill:rgb(89.019608%,87.45098%,87.843137%);fill-opacity:1;" d="M 39.074219 72.789062 L 39.074219 71.9375 L 40.324219 71.808594 C 41.015625 71.722656 41.6875 71.722656 41.828125 71.808594 C 41.964844 71.871094 42.082031 72.320312 42.082031 72.789062 L 42.082031 73.617188 L 39.074219 73.617188 Z M 39.074219 72.789062 "/>
<path style=" stroke:none;fill-rule:nonzero;fill:rgb(89.019608%,87.45098%,87.843137%);fill-opacity:1;" d="M 17.015625 39.722656 C 16.695312 39.488281 16.648438 38.253906 16.648438 28.425781 C 16.625 22.363281 16.714844 17.296875 16.808594 17.210938 C 17.0625 16.980469 59.675781 16.957031 59.929688 17.191406 C 60.023438 17.277344 60.09375 22.425781 60.070312 28.636719 L 60 39.894531 L 38.707031 39.9375 C 22.566406 39.957031 17.292969 39.914062 17.015625 39.722656 Z M 58.449219 29.253906 C 58.496094 24.210938 58.449219 19.703125 58.382812 19.210938 L 58.242188 18.296875 L 18.265625 18.296875 L 18.265625 28.253906 C 18.265625 33.746094 18.335938 38.296875 18.429688 38.363281 C 18.496094 38.445312 27.539062 38.488281 38.472656 38.46875 L 58.382812 38.402344 Z M 58.449219 29.253906 "/>
<path style=" stroke:none;fill-rule:nonzero;fill:rgb(89.019608%,87.45098%,87.843137%);fill-opacity:1;" d="M 20.046875 37.382812 C 19.675781 37.148438 19.699219 37.042969 20.4375 36.0625 C 20.878906 35.46875 22.472656 33.234375 24.023438 31.0625 C 25.550781 28.894531 27.238281 26.554688 27.746094 25.851562 C 28.832031 24.425781 31.003906 21.320312 31.675781 20.277344 C 32.601562 18.828125 32.183594 18.382812 40.417969 29.957031 C 43.304688 34 42.820312 33.871094 45.226562 31.148438 C 47.605469 28.46875 48.207031 27.871094 48.53125 27.871094 C 48.648438 27.871094 49.363281 28.574219 50.105469 29.425781 C 50.84375 30.253906 52.648438 32.277344 54.105469 33.894531 C 55.5625 35.53125 56.761719 37 56.761719 37.191406 C 56.761719 37.53125 55.304688 37.554688 38.589844 37.617188 C 24.253906 37.660156 20.347656 37.597656 20.046875 37.382812 Z M 54.636719 36.554688 C 54.496094 36.296875 53.710938 35.402344 49.710938 30.9375 C 49.132812 30.296875 48.601562 29.746094 48.53125 29.722656 C 48.4375 29.703125 47.675781 30.445312 46.820312 31.382812 C 43.953125 34.511719 44 34.46875 43.003906 34.46875 C 42.105469 34.46875 42.105469 34.46875 39.90625 31.46875 C 38.683594 29.828125 37.6875 28.425781 37.6875 28.363281 C 37.6875 28.320312 36.949219 27.234375 36.023438 26 C 35.121094 24.746094 34.011719 23.210938 33.550781 22.617188 C 33.109375 22 32.695312 21.488281 32.625 21.488281 C 32.484375 21.511719 30.707031 23.828125 28.925781 26.382812 C 28.324219 27.253906 26.496094 29.828125 24.878906 32.085938 C 23.261719 34.339844 21.894531 36.320312 21.804688 36.488281 C 21.710938 36.765625 23.816406 36.808594 38.265625 36.808594 C 51.445312 36.808594 54.796875 36.746094 54.636719 36.554688 Z M 54.636719 36.554688 "/>
<path style=" stroke:none;fill-rule:nonzero;fill:rgb(89.019608%,87.45098%,87.843137%);fill-opacity:1;" d="M 23.582031 24.722656 C 21.316406 23.679688 21.109375 21 23.214844 19.808594 C 25.203125 18.679688 27.792969 19.234375 28.855469 21 C 29.316406 21.789062 29.363281 22 29.132812 22.765625 C 28.996094 23.234375 28.648438 23.808594 28.371094 24.0625 C 27.167969 25.128906 25.0625 25.425781 23.582031 24.722656 Z M 27.351562 23.191406 C 27.859375 22.660156 27.976562 22.382812 27.859375 21.9375 C 27.699219 21.277344 26.726562 20.488281 25.851562 20.320312 C 24.996094 20.128906 23.652344 20.765625 23.214844 21.511719 C 22.914062 22.0625 22.914062 22.191406 23.238281 22.765625 C 24.046875 24.191406 26.148438 24.425781 27.351562 23.191406 Z M 27.351562 23.191406 "/>
<path style=" stroke:none;fill-rule:nonzero;fill:rgb(79.607843%,80%,80%);fill-opacity:1;" d="M 0 72.980469 L 0 65.957031 L 80 65.957031 L 80 80 L 0 80 Z M 57.480469 75.210938 C 57.570312 74.914062 57.570312 74.597656 57.480469 74.53125 C 57.410156 74.445312 57.339844 74.597656 57.339844 74.828125 C 57.339844 75.425781 57.132812 75.554688 56.554688 75.277344 C 56.117188 75.0625 56.09375 75.0625 56.394531 75.382812 C 56.855469 75.914062 57.316406 75.828125 57.480469 75.210938 Z M 60.117188 74.851562 C 60.117188 74.746094 59.90625 74.597656 59.652344 74.53125 C 59.421875 74.46875 59.121094 74.171875 58.984375 73.851562 L 58.773438 73.296875 L 58.75 73.914062 C 58.726562 74.253906 58.914062 74.703125 59.144531 74.894531 C 59.539062 75.253906 60.117188 75.234375 60.117188 74.851562 Z M 16.695312 73.46875 C 16.625 72.511719 16.507812 72.128906 16.277344 72.128906 C 16.09375 72.128906 15.953125 71.980469 15.953125 71.808594 C 15.953125 71.636719 15.816406 71.488281 15.628906 71.488281 C 15.285156 71.488281 14.890625 72.617188 15.003906 73.191406 C 15.050781 73.445312 16.695312 74.9375 16.785156 74.828125 C 16.808594 74.808594 16.761719 74.191406 16.695312 73.46875 Z M 63.839844 74.191406 C 63.976562 73.703125 63.929688 73.617188 63.515625 73.636719 C 63.238281 73.636719 63.144531 73.703125 63.304688 73.765625 C 63.699219 73.914062 63.652344 74.253906 63.238281 74.253906 C 63.050781 74.253906 62.890625 74.128906 62.890625 74 C 62.890625 73.851562 62.636719 73.722656 62.3125 73.722656 C 61.988281 73.722656 61.734375 73.746094 61.734375 73.765625 C 61.734375 73.789062 61.828125 74.042969 61.964844 74.339844 C 62.148438 74.789062 62.3125 74.871094 62.9375 74.828125 C 63.515625 74.789062 63.699219 74.660156 63.839844 74.191406 Z M 23.90625 74.128906 C 24.183594 73.46875 24.046875 72.679688 23.46875 71.765625 C 23.144531 71.277344 22.773438 70.851562 22.683594 70.851562 C 22.566406 70.851562 22.429688 71.210938 22.359375 71.660156 C 22.3125 72.085938 22.128906 72.746094 21.941406 73.128906 C 21.710938 73.679688 21.710938 73.851562 21.941406 74.128906 C 22.359375 74.574219 23.722656 74.574219 23.90625 74.128906 Z M 39.539062 73.488281 C 39.539062 72.636719 39.492188 72.554688 39.191406 72.851562 C 39.003906 73.019531 38.84375 73.445312 38.84375 73.808594 C 38.84375 74.253906 38.960938 74.46875 39.191406 74.46875 C 39.445312 74.46875 39.539062 74.210938 39.539062 73.488281 Z M 56.714844 74.171875 C 56.808594 73.957031 56.714844 73.914062 56.394531 73.980469 C 55.882812 74.105469 55.792969 74.46875 56.277344 74.46875 C 56.460938 74.46875 56.648438 74.339844 56.714844 74.171875 Z M 55.027344 73.617188 C 55.027344 73.511719 54.867188 73.402344 54.683594 73.402344 C 54.496094 73.402344 54.335938 73.511719 54.335938 73.617188 C 54.335938 73.746094 54.496094 73.828125 54.683594 73.828125 C 54.867188 73.828125 55.027344 73.746094 55.027344 73.617188 Z M 33.988281 73.191406 C 33.988281 73.105469 33.78125 72.808594 33.503906 72.53125 L 33.015625 72.019531 L 33.132812 72.511719 C 33.203125 72.765625 33.15625 72.980469 33.039062 72.980469 C 32.925781 72.980469 32.832031 73.105469 32.832031 73.277344 C 32.832031 73.46875 33.015625 73.53125 33.410156 73.445312 C 33.734375 73.402344 33.988281 73.277344 33.988281 73.191406 Z M 49.710938 72.980469 C 49.710938 72.339844 48.277344 72.234375 48.023438 72.851562 C 47.929688 73.042969 48.160156 73.128906 48.808594 73.128906 C 49.292969 73.128906 49.710938 73.0625 49.710938 72.980469 Z M 58.21875 72.703125 C 58.265625 72.488281 58.148438 72.339844 57.964844 72.339844 C 57.59375 72.339844 57.273438 72.851562 57.527344 73.0625 C 57.757812 73.277344 58.148438 73.085938 58.21875 72.703125 Z M 63.699219 73 C 64.023438 72.957031 63.421875 72.488281 62.960938 72.425781 C 62.542969 72.363281 61.734375 72.703125 61.734375 72.9375 C 61.734375 73.0625 62.796875 73.105469 63.699219 73 Z M 40.460938 72.765625 C 40.460938 72.660156 40.300781 72.554688 40.117188 72.554688 C 39.929688 72.554688 39.769531 72.660156 39.769531 72.765625 C 39.769531 72.894531 39.929688 72.980469 40.117188 72.980469 C 40.300781 72.980469 40.460938 72.894531 40.460938 72.765625 Z M 56.808594 71.980469 C 56.738281 71.253906 56.183594 71.0625 56.183594 71.765625 C 56.183594 72.0625 56.324219 72.363281 56.484375 72.402344 C 56.625 72.46875 56.785156 72.53125 56.808594 72.53125 C 56.832031 72.554688 56.832031 72.296875 56.808594 71.980469 Z M 58.265625 71.382812 C 58.265625 71.042969 58.128906 70.851562 57.917969 70.851562 C 57.734375 70.851562 57.570312 70.9375 57.570312 71.042969 C 57.570312 71.148438 57.503906 71.382812 57.433594 71.574219 C 57.339844 71.828125 57.433594 71.914062 57.78125 71.914062 C 58.148438 71.914062 58.265625 71.789062 58.265625 71.382812 Z M 18.265625 69.808594 C 18.265625 69.597656 18.058594 69.253906 17.804688 69.042969 C 17.339844 68.660156 17.339844 68.679688 17.339844 69.210938 C 17.339844 69.53125 17.457031 69.789062 17.570312 69.789062 C 17.710938 69.789062 17.804688 69.9375 17.804688 70.128906 C 17.804688 70.296875 17.917969 70.382812 18.035156 70.320312 C 18.171875 70.253906 18.265625 70.019531 18.265625 69.808594 Z M 18.265625 69.808594 "/>
<path style=" stroke:none;fill-rule:nonzero;fill:rgb(79.607843%,80%,80%);fill-opacity:1;" d="M 17.109375 39.148438 C 16.925781 38.851562 16.878906 35.382812 16.925781 28.019531 L 16.996094 17.339844 L 59.769531 17.339844 L 59.746094 25.53125 C 59.722656 30.042969 59.699219 35.042969 59.675781 36.660156 L 59.652344 39.574219 L 38.496094 39.574219 C 17.527344 39.574219 17.363281 39.574219 17.109375 39.148438 Z M 58.613281 28.402344 L 58.613281 18.191406 L 38.335938 18.128906 L 18.035156 18.085938 L 18.035156 28.253906 C 18.035156 33.851562 18.105469 38.511719 18.195312 38.574219 C 18.265625 38.660156 27.398438 38.703125 38.472656 38.679688 L 58.613281 38.617188 Z M 58.613281 28.402344 "/>
<path style=" stroke:none;fill-rule:nonzero;fill:rgb(79.607843%,80%,80%);fill-opacity:1;" d="M 20.761719 37.296875 C 20.53125 37.253906 20.347656 37.105469 20.347656 37 C 20.347656 36.894531 21.871094 34.679688 23.722656 32.0625 C 25.59375 29.46875 27.582031 26.679688 28.160156 25.851562 C 28.738281 25.042969 29.527344 23.9375 29.917969 23.402344 C 30.3125 22.871094 31.027344 21.894531 31.515625 21.234375 C 32 20.554688 32.507812 20 32.601562 20 C 32.714844 20 33.273438 20.636719 33.851562 21.425781 C 37.527344 26.46875 38.382812 27.636719 38.382812 27.746094 C 38.382812 27.957031 42.796875 33.828125 42.960938 33.828125 C 43.285156 33.828125 43.628906 33.46875 45.894531 31 C 47.144531 29.636719 48.300781 28.511719 48.484375 28.511719 C 48.785156 28.511719 48.972656 28.679688 50.566406 30.46875 C 55.304688 35.808594 56.394531 37.105469 56.277344 37.253906 C 56.160156 37.445312 21.527344 37.488281 20.761719 37.296875 Z M 20.761719 37.296875 "/>
<path style=" stroke:none;fill-rule:nonzero;fill:rgb(79.607843%,80%,80%);fill-opacity:1;" d="M 23.882812 24.488281 C 22.359375 23.828125 21.757812 22.253906 22.542969 20.871094 C 23.605469 18.957031 27.90625 19.277344 28.578125 21.320312 C 29.109375 22.914062 28.183594 24.296875 26.3125 24.660156 C 24.902344 24.957031 25.039062 24.957031 23.882812 24.488281 Z M 23.882812 24.488281 "/>
<path style=" stroke:none;fill-rule:nonzero;fill:rgb(81.568627%,79.607843%,77.254902%);fill-opacity:1;" d="M 18.359375 76.746094 C 17.988281 76.636719 17.570312 76.363281 17.433594 76.105469 C 17.316406 75.851562 16.949219 75.597656 16.625 75.53125 C 16.300781 75.46875 15.652344 75.128906 15.191406 74.765625 C 14.105469 73.9375 13.894531 73.019531 14.449219 71.511719 C 14.867188 70.339844 15.003906 70.296875 16.484375 70.828125 C 16.972656 71 17.109375 71 17.109375 70.765625 C 17.109375 70.597656 16.996094 70.425781 16.832031 70.382812 C 16.554688 70.296875 16.484375 68.488281 16.761719 68.105469 C 17.15625 67.488281 18.960938 68.363281 18.960938 69.148438 C 18.960938 69.425781 19.074219 69.511719 19.304688 69.445312 C 19.882812 69.234375 19.722656 70.128906 19.097656 70.511719 C 17.433594 71.488281 16.785156 72.828125 17.316406 74.148438 C 17.457031 74.511719 17.570312 74.980469 17.570312 75.171875 C 17.570312 75.363281 17.6875 75.53125 17.804688 75.53125 C 17.941406 75.53125 18.035156 75.425781 18.035156 75.320312 C 18.035156 75.191406 18.40625 75.320312 18.84375 75.574219 C 19.628906 76.042969 19.882812 76.382812 19.445312 76.382812 C 19.328125 76.382812 19.191406 76.511719 19.144531 76.660156 C 19.097656 76.871094 18.890625 76.894531 18.359375 76.746094 Z M 18.359375 76.746094 "/>
<path style=" stroke:none;fill-rule:nonzero;fill:rgb(81.568627%,79.607843%,77.254902%);fill-opacity:1;" d="M 21.503906 76.253906 C 21.503906 76.171875 21.6875 75.980469 21.894531 75.828125 C 22.289062 75.597656 22.265625 75.53125 21.664062 75.105469 C 21.132812 74.722656 21.039062 74.488281 21.039062 73.660156 C 21.0625 73.105469 21.203125 72.425781 21.386719 72.128906 C 21.59375 71.746094 21.617188 71.511719 21.457031 71.339844 C 21.292969 71.148438 21.292969 71.0625 21.457031 71.0625 C 21.59375 71.0625 21.664062 70.914062 21.59375 70.746094 C 21.503906 70.574219 21.316406 70.425781 21.132812 70.425781 C 20.949219 70.425781 20.808594 70.339844 20.808594 70.210938 C 20.808594 70.105469 21.25 70 21.804688 70 C 22.519531 70 22.9375 70.128906 23.398438 70.53125 C 25.339844 72.191406 24.53125 76.363281 22.265625 76.382812 C 21.851562 76.382812 21.503906 76.320312 21.503906 76.253906 Z M 21.503906 76.253906 "/>
<path style=" stroke:none;fill-rule:nonzero;fill:rgb(81.568627%,79.607843%,77.254902%);fill-opacity:1;" d="M 31.398438 75.191406 C 31.328125 75.128906 31.375 74.746094 31.515625 74.320312 C 31.722656 73.722656 31.722656 73.53125 31.492188 73.445312 C 31.328125 73.402344 31.214844 73.210938 31.214844 73.019531 C 31.214844 72.53125 32.300781 70.425781 32.53125 70.425781 C 33.292969 70.46875 34.449219 72.320312 34.449219 73.53125 C 34.449219 73.957031 34.335938 74.042969 33.6875 74.042969 C 33.179688 74.042969 32.855469 74.191406 32.625 74.488281 C 32.394531 74.871094 32.277344 74.894531 32.117188 74.660156 C 31.953125 74.425781 31.90625 74.425781 31.90625 74.722656 C 31.90625 75.105469 31.582031 75.382812 31.398438 75.191406 Z M 33.988281 73.296875 C 33.988281 73.191406 33.804688 72.828125 33.570312 72.511719 L 33.15625 71.914062 L 32.761719 72.660156 C 32.554688 73.085938 32.371094 73.46875 32.371094 73.511719 C 32.371094 73.554688 32.738281 73.574219 33.179688 73.554688 C 33.617188 73.53125 33.988281 73.425781 33.988281 73.296875 Z M 33.988281 73.296875 "/>
<path style=" stroke:none;fill-rule:nonzero;fill:rgb(81.568627%,79.607843%,77.254902%);fill-opacity:1;" d="M 38.011719 73.894531 C 38.128906 72.488281 38.105469 72.445312 37.039062 72.488281 C 36.878906 72.511719 36.785156 72.402344 36.832031 72.253906 C 36.949219 71.9375 37.871094 71.828125 38.21875 72.085938 C 38.429688 72.253906 38.519531 72.019531 38.566406 71.210938 C 38.613281 70.597656 38.773438 70 38.9375 69.894531 C 39.097656 69.765625 39.328125 69.363281 39.398438 68.980469 C 39.492188 68.617188 39.675781 68.296875 39.792969 68.296875 C 40.207031 68.296875 40.300781 68.980469 40.046875 70 C 39.769531 71.128906 39.90625 71.914062 40.371094 71.914062 C 40.855469 71.914062 40.761719 72.296875 40.230469 72.445312 C 39.515625 72.660156 39.675781 72.851562 40.925781 73.339844 C 42.171875 73.828125 42.40625 74.339844 41.6875 74.957031 C 41.363281 75.210938 40.832031 75.277344 39.582031 75.253906 L 37.894531 75.210938 Z M 38.011719 73.894531 "/>
<path style=" stroke:none;fill-rule:nonzero;fill:rgb(81.568627%,79.607843%,77.254902%);fill-opacity:1;" d="M 55.074219 74.789062 C 54.9375 74.488281 54.660156 74.253906 54.449219 74.253906 C 54.21875 74.253906 54.105469 74.042969 54.105469 73.617188 C 54.105469 73.191406 54.21875 72.980469 54.449219 72.980469 C 54.867188 72.980469 54.914062 72.617188 54.519531 72.488281 C 54.3125 72.425781 54.382812 72.253906 54.726562 71.9375 C 55.421875 71.339844 55.5625 71.617188 55.5625 73.554688 C 55.5625 75.296875 55.445312 75.574219 55.074219 74.789062 Z M 55.027344 73.617188 C 55.027344 73.511719 54.867188 73.402344 54.683594 73.402344 C 54.496094 73.402344 54.335938 73.511719 54.335938 73.617188 C 54.335938 73.746094 54.496094 73.828125 54.683594 73.828125 C 54.867188 73.828125 55.027344 73.746094 55.027344 73.617188 Z M 55.027344 73.617188 "/>
<path style=" stroke:none;fill-rule:nonzero;fill:rgb(81.568627%,79.607843%,77.254902%);fill-opacity:1;" d="M 58.914062 75.171875 C 58.707031 75.105469 58.472656 74.914062 58.40625 74.722656 C 58.289062 74.339844 58.195312 72.382812 58.242188 71.554688 C 58.265625 71.019531 58.726562 70.871094 58.726562 71.382812 C 58.726562 71.574219 58.867188 71.765625 59.050781 71.828125 C 59.214844 71.894531 59.375 72.171875 59.375 72.46875 C 59.375 73 59.074219 73.171875 58.914062 72.722656 C 58.84375 72.574219 58.796875 72.9375 58.773438 73.554688 C 58.726562 74.402344 58.820312 74.703125 59.121094 74.871094 C 59.605469 75.105469 59.492188 75.277344 58.914062 75.171875 Z M 58.914062 75.171875 "/>
<path style=" stroke:none;fill-rule:nonzero;fill:rgb(81.568627%,79.607843%,77.254902%);fill-opacity:1;" d="M 60.117188 75 C 60.117188 74.808594 59.929688 74.597656 59.722656 74.53125 C 59.191406 74.363281 58.960938 74.042969 58.984375 73.511719 C 58.984375 73.171875 59.050781 73.210938 59.238281 73.679688 C 59.539062 74.46875 60.117188 74.425781 60.117188 73.617188 C 60.117188 73.277344 60.230469 72.980469 60.347656 72.980469 C 60.484375 72.980469 60.578125 73.210938 60.578125 73.488281 C 60.578125 73.765625 60.714844 74.0625 60.878906 74.105469 C 61.109375 74.191406 61.109375 74.234375 60.878906 74.234375 C 60.714844 74.253906 60.578125 74.488281 60.578125 74.789062 C 60.578125 75.085938 60.484375 75.320312 60.347656 75.320312 C 60.230469 75.320312 60.117188 75.171875 60.117188 75 Z M 60.117188 75 "/>
<path style=" stroke:none;fill-rule:nonzero;fill:rgb(81.568627%,79.607843%,77.254902%);fill-opacity:1;" d="M 61.734375 75 C 61.570312 74.828125 61.273438 74.679688 61.0625 74.679688 C 60.761719 74.679688 60.738281 74.636719 61.015625 74.488281 C 61.292969 74.320312 61.292969 74.234375 61.0625 73.957031 C 60.855469 73.722656 60.832031 73.617188 61.015625 73.617188 C 61.15625 73.617188 61.273438 73.46875 61.273438 73.277344 C 61.273438 72.617188 61.851562 73.128906 61.871094 73.828125 C 61.894531 74.234375 62.082031 74.660156 62.289062 74.789062 C 62.496094 74.9375 62.660156 75.105469 62.660156 75.191406 C 62.660156 75.445312 62.011719 75.320312 61.734375 75 Z M 61.734375 75 "/>
<path style=" stroke:none;fill-rule:nonzero;fill:rgb(81.568627%,79.607843%,77.254902%);fill-opacity:1;" d="M 27.652344 74.425781 C 27.351562 73.382812 27.582031 71.382812 27.976562 71.597656 C 28.253906 71.746094 28.507812 73.914062 28.324219 74.445312 C 28.140625 75.019531 27.839844 75.019531 27.652344 74.425781 Z M 27.652344 74.425781 "/>
<path style=" stroke:none;fill-rule:nonzero;fill:rgb(81.568627%,79.607843%,77.254902%);fill-opacity:1;" d="M 43.050781 74 C 42.542969 72.277344 42.472656 71.914062 42.75 71.914062 C 42.890625 71.914062 43.003906 72.085938 43.027344 72.296875 C 43.027344 72.488281 43.144531 72.363281 43.261719 71.980469 L 43.46875 71.296875 L 44.253906 71.722656 C 44.972656 72.105469 45.292969 72.636719 45.316406 73.363281 C 45.316406 73.746094 44.902344 73.660156 44.785156 73.253906 C 44.738281 73.019531 44.578125 73.277344 44.394531 73.894531 C 44.023438 75.210938 43.445312 75.253906 43.050781 74 Z M 43.050781 74 "/>
<path style=" stroke:none;fill-rule:nonzero;fill:rgb(81.568627%,79.607843%,77.254902%);fill-opacity:1;" d="M 47.285156 74.0625 C 47.214844 73.851562 47.214844 73.511719 47.304688 73.320312 C 47.421875 73.042969 47.351562 73 47.027344 73.128906 C 46.773438 73.210938 46.449219 73.425781 46.289062 73.597656 C 46.035156 73.894531 46.011719 73.851562 46.148438 73.402344 C 46.566406 72.019531 46.660156 71.914062 47.261719 72.128906 C 47.628906 72.253906 47.882812 72.253906 47.976562 72.128906 C 48.160156 71.851562 49.25 71.851562 49.25 72.128906 C 49.25 72.320312 48.785156 72.425781 48.300781 72.382812 C 48.207031 72.363281 48.09375 72.554688 48.023438 72.789062 C 47.953125 73.019531 48 73.191406 48.160156 73.171875 C 48.785156 73.105469 49.25 73.210938 49.25 73.402344 C 49.25 73.53125 48.972656 73.617188 48.648438 73.617188 C 48.253906 73.617188 48 73.746094 47.929688 74.042969 C 47.769531 74.574219 47.46875 74.597656 47.285156 74.0625 Z M 47.285156 74.0625 "/>
<path style=" stroke:none;fill-rule:nonzero;fill:rgb(81.568627%,79.607843%,77.254902%);fill-opacity:1;" d="M 60.046875 72.105469 C 59.90625 71.597656 60.070312 71.0625 60.371094 71.0625 C 60.484375 71.0625 60.578125 71.402344 60.578125 71.808594 C 60.578125 72.617188 60.253906 72.808594 60.046875 72.105469 Z M 60.046875 72.105469 "/>
<path style=" stroke:none;fill-rule:nonzero;fill:rgb(81.568627%,79.607843%,77.254902%);fill-opacity:1;" d="M 34.105469 70.445312 C 33.964844 70.210938 34.3125 69.957031 34.542969 70.148438 C 34.75 70.339844 34.707031 70.636719 34.472656 70.636719 C 34.335938 70.636719 34.195312 70.554688 34.105469 70.445312 Z M 34.105469 70.445312 "/>
<path style=" stroke:none;fill-rule:nonzero;fill:rgb(81.568627%,79.607843%,77.254902%);fill-opacity:1;" d="M 26.890625 69.425781 C 26.542969 69.296875 26.496094 68.511719 26.820312 68.511719 C 27.097656 68.511719 27.375 69.042969 27.238281 69.320312 C 27.214844 69.425781 27.027344 69.46875 26.890625 69.425781 Z M 26.890625 69.425781 "/>
<path style=" stroke:none;fill-rule:nonzero;fill:rgb(0%,0%,0%);fill-opacity:1;" d="M 18.84375 76.828125 C 17.292969 76.191406 16.183594 74.617188 16.183594 73.0625 C 16.183594 72.191406 17.292969 70.554688 18.3125 69.9375 C 20.300781 68.746094 23.097656 69.382812 24.253906 71.277344 C 25.480469 73.296875 24.671875 75.703125 22.429688 76.765625 C 21.203125 77.339844 20.09375 77.363281 18.84375 76.828125 Z M 22.40625 75.574219 C 23.582031 74.789062 23.976562 73.296875 23.398438 72 C 22.707031 70.554688 20.4375 69.980469 18.960938 70.894531 C 17.941406 71.511719 17.25 72.765625 17.457031 73.574219 C 17.6875 74.554688 18.449219 75.53125 19.261719 75.871094 C 20.183594 76.253906 21.617188 76.128906 22.40625 75.574219 Z M 22.40625 75.574219 "/>
<path style=" stroke:none;fill-rule:nonzero;fill:rgb(0%,0%,0%);fill-opacity:1;" d="M 31.328125 74.957031 C 31.421875 74.746094 31.816406 73.789062 32.183594 72.828125 C 33.15625 70.445312 33.457031 70.46875 34.472656 73.019531 C 34.914062 74.105469 35.285156 75.0625 35.328125 75.148438 C 35.375 75.253906 35.261719 75.320312 35.074219 75.320312 C 34.867188 75.320312 34.660156 75.042969 34.566406 74.679688 C 34.429688 74.085938 34.359375 74.042969 33.292969 74.042969 C 32.277344 74.042969 32.160156 74.085938 31.929688 74.679688 C 31.816406 75.042969 31.582031 75.320312 31.421875 75.320312 C 31.261719 75.320312 31.238281 75.171875 31.328125 74.957031 Z M 33.988281 73.425781 C 33.988281 73.320312 33.828125 72.871094 33.617188 72.445312 L 33.25 71.636719 L 32.808594 72.53125 C 32.578125 73.042969 32.371094 73.488281 32.371094 73.53125 C 32.371094 73.574219 32.738281 73.617188 33.179688 73.617188 C 33.617188 73.617188 33.988281 73.53125 33.988281 73.425781 Z M 33.988281 73.425781 "/>
<path style=" stroke:none;fill-rule:nonzero;fill:rgb(0%,0%,0%);fill-opacity:1;" d="M 36.070312 73.660156 L 36.070312 72 L 37.085938 71.957031 C 37.664062 71.9375 38.195312 72.042969 38.335938 72.191406 C 38.707031 72.597656 38.773438 75.148438 38.449219 75.253906 C 38.21875 75.339844 38.148438 74.980469 38.148438 73.980469 C 38.148438 72.765625 38.082031 72.574219 37.6875 72.445312 C 36.878906 72.210938 36.53125 72.703125 36.53125 74.0625 C 36.53125 74.765625 36.4375 75.320312 36.300781 75.320312 C 36.160156 75.320312 36.070312 74.617188 36.070312 73.660156 Z M 36.070312 73.660156 "/>
<path style=" stroke:none;fill-rule:nonzero;fill:rgb(0%,0%,0%);fill-opacity:1;" d="M 39.539062 74.894531 C 39.261719 74.402344 39.375 74.363281 40.046875 74.703125 C 40.554688 74.957031 41.617188 74.789062 41.617188 74.46875 C 41.617188 74.363281 41.15625 74.085938 40.601562 73.851562 C 39.46875 73.363281 39.191406 72.9375 39.605469 72.339844 C 39.929688 71.828125 41.203125 71.765625 41.617188 72.234375 C 42.011719 72.660156 41.734375 72.914062 41.273438 72.554688 C 40.925781 72.296875 39.769531 72.425781 39.769531 72.722656 C 39.769531 72.828125 40.300781 73.105469 40.925781 73.339844 C 41.734375 73.660156 42.082031 73.914062 42.082031 74.210938 C 42.082031 75.210938 40.046875 75.765625 39.539062 74.894531 Z M 39.539062 74.894531 "/>
<path style=" stroke:none;fill-rule:nonzero;fill:rgb(0%,0%,0%);fill-opacity:1;" d="M 43.375 75.0625 C 43.328125 74.914062 43.167969 74.363281 43.003906 73.828125 C 42.84375 73.296875 42.636719 72.660156 42.519531 72.402344 C 42.382812 72.042969 42.40625 71.914062 42.660156 71.914062 C 42.867188 71.914062 43.074219 72.339844 43.238281 73.085938 C 43.375 73.722656 43.582031 74.253906 43.699219 74.253906 C 43.816406 74.253906 44.023438 73.722656 44.160156 73.0625 C 44.484375 71.617188 44.878906 71.660156 45.25 73.171875 C 45.386719 73.789062 45.550781 74.339844 45.617188 74.382812 C 45.6875 74.445312 45.917969 73.980469 46.128906 73.363281 C 46.359375 72.746094 46.613281 72.148438 46.726562 72.042969 C 47.074219 71.703125 46.984375 72.128906 46.359375 73.722656 C 45.828125 75.171875 45.316406 75.746094 45.316406 74.957031 C 45.316406 74.746094 45.179688 74.148438 44.996094 73.636719 L 44.695312 72.679688 L 44.371094 73.9375 C 44.046875 75.128906 43.5625 75.679688 43.375 75.0625 Z M 43.375 75.0625 "/>
<path style=" stroke:none;fill-rule:nonzero;fill:rgb(0%,0%,0%);fill-opacity:1;" d="M 47.722656 74.871094 C 47.167969 74.320312 47.191406 72.914062 47.746094 72.339844 C 48.578125 71.511719 50.171875 72.042969 50.171875 73.148438 C 50.171875 73.574219 50.058594 73.617188 49.015625 73.617188 C 48.070312 73.617188 47.859375 73.679688 47.859375 74 C 47.859375 74.789062 49.039062 75.210938 49.664062 74.636719 C 49.804688 74.511719 50.011719 74.445312 50.105469 74.53125 C 50.359375 74.765625 49.433594 75.296875 48.761719 75.320312 C 48.4375 75.320312 47.976562 75.128906 47.722656 74.871094 Z M 49.828125 73 C 49.988281 72.746094 49.226562 72.339844 48.578125 72.339844 C 48.300781 72.339844 48.09375 72.382812 48.09375 72.425781 C 48.09375 72.46875 48.023438 72.660156 47.953125 72.851562 C 47.839844 73.128906 48 73.191406 48.738281 73.191406 C 49.273438 73.191406 49.734375 73.105469 49.828125 73 Z M 49.828125 73 "/>
<path style=" stroke:none;fill-rule:nonzero;fill:rgb(0%,0%,0%);fill-opacity:1;" d="M 51.050781 73.746094 L 50.984375 72.148438 L 51.652344 72.042969 C 52.554688 71.871094 52.714844 71.871094 52.714844 72.128906 C 52.714844 72.253906 52.554688 72.339844 52.371094 72.339844 C 51.859375 72.339844 51.515625 73.128906 51.582031 74.191406 C 51.628906 74.789062 51.5625 75.210938 51.398438 75.253906 C 51.214844 75.320312 51.121094 74.808594 51.050781 73.746094 Z M 51.050781 73.746094 "/>
<path style=" stroke:none;fill-rule:nonzero;fill:rgb(0%,0%,0%);fill-opacity:1;" d="M 55.167969 74.980469 C 55.097656 74.789062 55.027344 74.128906 55.027344 73.511719 C 55.027344 72.808594 54.914062 72.320312 54.75 72.253906 C 54.519531 72.148438 54.519531 72.105469 54.75 72 C 54.890625 71.9375 55.027344 71.679688 55.027344 71.445312 C 55.027344 71.210938 55.144531 71.0625 55.328125 71.128906 C 55.46875 71.171875 55.582031 71.363281 55.539062 71.574219 C 55.492188 71.789062 55.628906 71.914062 55.882812 71.914062 C 56.277344 71.9375 56.277344 71.9375 55.90625 72.210938 C 55.351562 72.574219 55.304688 74.636719 55.839844 74.808594 C 56.324219 75 56.277344 75.320312 55.746094 75.320312 C 55.515625 75.320312 55.238281 75.171875 55.167969 74.980469 Z M 55.167969 74.980469 "/>
<path style=" stroke:none;fill-rule:nonzero;fill:rgb(0%,0%,0%);fill-opacity:1;" d="M 56.878906 73.617188 C 56.878906 72.617188 56.972656 71.914062 57.109375 71.914062 C 57.339844 71.914062 57.410156 72.53125 57.386719 73.9375 C 57.363281 75.171875 57.339844 75.320312 57.109375 75.320312 C 56.972656 75.320312 56.878906 74.617188 56.878906 73.617188 Z M 56.878906 73.617188 "/>
<path style=" stroke:none;fill-rule:nonzero;fill:rgb(0%,0%,0%);fill-opacity:1;" d="M 58.40625 74.980469 C 58.335938 74.789062 58.265625 74.128906 58.265625 73.511719 C 58.265625 72.808594 58.148438 72.320312 57.988281 72.253906 C 57.757812 72.148438 57.757812 72.105469 57.988281 72 C 58.128906 71.9375 58.265625 71.703125 58.265625 71.46875 C 58.265625 71.253906 58.382812 71.0625 58.496094 71.0625 C 58.636719 71.0625 58.726562 71.253906 58.726562 71.488281 C 58.726562 71.722656 58.890625 71.914062 59.074219 71.914062 C 59.261719 71.914062 59.421875 72.019531 59.421875 72.128906 C 59.421875 72.253906 59.261719 72.339844 59.074219 72.339844 C 58.796875 72.339844 58.726562 72.617188 58.726562 73.511719 C 58.726562 74.363281 58.820312 74.722656 59.074219 74.808594 C 59.5625 75 59.515625 75.320312 58.984375 75.320312 C 58.75 75.320312 58.472656 75.171875 58.40625 74.980469 Z M 58.40625 74.980469 "/>
<path style=" stroke:none;fill-rule:nonzero;fill:rgb(0%,0%,0%);fill-opacity:1;" d="M 60.117188 73.191406 C 60.117188 71.914062 60.207031 71.0625 60.347656 71.0625 C 60.484375 71.0625 60.578125 71.914062 60.578125 73.191406 C 60.578125 74.46875 60.484375 75.320312 60.347656 75.320312 C 60.207031 75.320312 60.117188 74.46875 60.117188 73.191406 Z M 60.117188 73.191406 "/>
<path style=" stroke:none;fill-rule:nonzero;fill:rgb(0%,0%,0%);fill-opacity:1;" d="M 61.640625 74.765625 C 61.109375 74.085938 61.25 72.660156 61.894531 72.234375 C 62.867188 71.554688 64.277344 72.148438 64.277344 73.234375 C 64.277344 73.554688 64.070312 73.617188 63.003906 73.617188 C 62.3125 73.617188 61.734375 73.660156 61.734375 73.703125 C 61.734375 73.765625 61.828125 74.042969 61.964844 74.339844 C 62.128906 74.765625 62.359375 74.894531 62.84375 74.894531 C 63.191406 74.894531 63.605469 74.789062 63.769531 74.636719 C 63.90625 74.511719 64.117188 74.445312 64.207031 74.53125 C 64.460938 74.789062 63.515625 75.296875 62.773438 75.296875 C 62.289062 75.296875 61.941406 75.128906 61.640625 74.765625 Z M 63.675781 73 C 63.746094 72.894531 63.652344 72.679688 63.445312 72.53125 C 63.050781 72.234375 61.941406 72.488281 61.78125 72.9375 C 61.6875 73.234375 63.46875 73.320312 63.675781 73 Z M 63.675781 73 "/>
</g>
</svg>
