<?xml version="1.0" encoding="UTF-8"?>
<svg xmlns="http://www.w3.org/2000/svg" xmlns:xlink="http://www.w3.org/1999/xlink" width="80px" height="80px" viewBox="0 0 80 80" version="1.1">
<g id="surface1">
<path style=" stroke:none;fill-rule:nonzero;fill:rgb(100%,100%,100%);fill-opacity:1;" d="M 0 45.542969 L 0 11.085938 L 80 11.085938 L 80 80 L 0 80 Z M 54.988281 50.652344 C 54.441406 50 52.945312 48.195312 51.671875 46.675781 L 49.339844 43.890625 L 48.792969 44.523438 C 48.484375 44.890625 47.558594 46.023438 46.726562 47.042969 C 45.253906 48.847656 45.164062 48.914062 44.285156 48.914062 L 43.363281 48.914062 L 38.878906 42.195312 C 36.417969 38.5 34.351562 35.457031 34.285156 35.457031 C 34.21875 35.457031 33.648438 36.304688 33.011719 37.347656 C 32.351562 38.390625 31.011719 40.433594 30 41.890625 C 28.988281 43.347656 27.207031 46 26.042969 47.761719 C 24.902344 49.523438 23.78125 51.195312 23.605469 51.457031 L 23.273438 51.914062 L 39.605469 51.890625 L 55.957031 51.847656 Z M 19.933594 37.238281 C 19.910156 34.523438 19.890625 36.695312 19.890625 42.066406 C 19.890625 47.457031 19.910156 49.675781 19.933594 47.023438 C 19.976562 44.371094 19.976562 39.976562 19.933594 37.238281 Z M 28.746094 38.609375 C 29.078125 38.433594 29.582031 37.976562 29.867188 37.609375 C 30.375 36.933594 30.375 36.871094 30.023438 36.152344 C 29.671875 35.414062 28.285156 34.585938 27.382812 34.566406 C 26.679688 34.566406 25.320312 35.476562 25.03125 36.128906 C 24.308594 37.871094 26.835938 39.585938 28.746094 38.609375 Z M 28.746094 38.609375 "/>
<path style=" stroke:none;fill-rule:nonzero;fill:rgb(82.745098%,82.352941%,82.352941%);fill-opacity:1;" d="M 19.230469 54.523438 C 19.164062 54.371094 19.144531 49.152344 19.164062 42.933594 L 19.230469 31.628906 L 60.328125 31.628906 L 60.328125 54.675781 L 39.824219 54.738281 C 23.539062 54.78125 19.296875 54.738281 19.230469 54.523438 Z M 56.679688 53.476562 C 58.59375 53.476562 58.921875 53.433594 58.835938 53.152344 C 58.746094 52.976562 58.769531 52.804688 58.855469 52.738281 C 59.078125 52.609375 59.207031 35.433594 59.011719 33.890625 L 58.855469 32.71875 L 39.824219 32.78125 C 29.363281 32.804688 20.769531 32.847656 20.746094 32.890625 C 20.703125 32.933594 20.660156 37.542969 20.636719 43.152344 L 20.617188 53.371094 L 22.792969 53.476562 C 23.976562 53.542969 31.558594 53.566406 39.671875 53.523438 C 47.78125 53.5 55.429688 53.476562 56.679688 53.476562 Z M 56.679688 53.476562 "/>
<path style=" stroke:none;fill-rule:nonzero;fill:rgb(82.745098%,82.352941%,82.352941%);fill-opacity:1;" d="M 22.285156 52.28125 C 22.152344 51.976562 22.96875 50.695312 28.484375 42.542969 C 29.910156 40.414062 31.734375 37.628906 32.527344 36.390625 C 33.40625 34.976562 34.089844 34.152344 34.285156 34.175781 C 34.460938 34.21875 36.703125 37.371094 39.273438 41.195312 C 41.847656 45.023438 44.089844 48.175781 44.242188 48.21875 C 44.394531 48.238281 45.207031 47.433594 46.066406 46.390625 C 48.394531 43.523438 49.03125 42.824219 49.363281 42.824219 C 49.515625 42.824219 50.902344 44.324219 52.417969 46.152344 C 53.933594 47.957031 55.671875 50.023438 56.285156 50.71875 C 56.878906 51.414062 57.363281 52.109375 57.363281 52.261719 C 57.363281 52.476562 53.757812 52.542969 39.890625 52.566406 C 24.855469 52.585938 22.375 52.542969 22.285156 52.28125 Z M 39.320312 46.871094 C 39.515625 46.628906 39.496094 46.542969 39.1875 46.476562 C 38.617188 46.324219 38.242188 46.5 38.394531 46.871094 C 38.550781 47.261719 38.988281 47.261719 39.320312 46.871094 Z M 31.648438 42.933594 C 31.648438 42.738281 31.515625 42.675781 31.320312 42.738281 C 31.144531 42.824219 30.988281 42.957031 30.988281 43.066406 C 30.988281 43.175781 31.144531 43.261719 31.320312 43.261719 C 31.496094 43.261719 31.648438 43.109375 31.648438 42.933594 Z M 31.648438 42.933594 "/>
<path style=" stroke:none;fill-rule:nonzero;fill:rgb(82.745098%,82.352941%,82.352941%);fill-opacity:1;" d="M 26.484375 39.585938 C 25.449219 39.324219 24.835938 38.871094 24.375 38 C 23.867188 37 23.847656 36.542969 24.328125 35.542969 C 24.59375 35 25.03125 34.628906 25.800781 34.238281 C 27.144531 33.585938 27.339844 33.566406 28.902344 34.152344 C 30.945312 34.914062 31.625 36.804688 30.417969 38.371094 C 29.539062 39.523438 28.089844 39.957031 26.484375 39.585938 Z M 29.011719 36.738281 C 29.097656 36.675781 29.011719 36.390625 28.769531 36.109375 L 28.351562 35.609375 L 28.351562 36.128906 C 28.351562 36.609375 28.21875 36.695312 27.097656 36.890625 L 25.824219 37.109375 L 26.96875 37.152344 C 27.867188 37.175781 28.199219 37.261719 28.394531 37.609375 C 28.679688 38.042969 28.679688 38.042969 28.746094 37.457031 C 28.792969 37.128906 28.902344 36.804688 29.011719 36.738281 Z M 29.011719 36.738281 "/>
<path style=" stroke:none;fill-rule:nonzero;fill:rgb(82.745098%,82.352941%,82.352941%);fill-opacity:1;" d="M 0 5.871094 L 0 0 L 15.800781 0 C 30.679688 0 31.625 0.0234375 31.714844 0.390625 C 31.800781 0.738281 31.824219 0.738281 31.847656 0.390625 C 31.867188 0.0234375 32.242188 0 36.375 0 L 40.878906 0 L 40.878906 1.195312 C 40.878906 2.371094 40.855469 2.390625 40.242188 2.390625 C 39.890625 2.390625 39.253906 2.238281 38.835938 2.066406 C 38.394531 1.890625 37.800781 1.761719 37.539062 1.761719 C 37.164062 1.78125 37.144531 1.804688 37.429688 1.890625 C 37.890625 2.023438 37.957031 3.371094 37.496094 3.628906 C 37.339844 3.71875 37.121094 4.023438 37.054688 4.304688 C 36.902344 4.738281 36.96875 4.78125 37.714844 4.78125 L 38.527344 4.78125 L 38.375 5.933594 C 38.308594 6.542969 38.242188 7.28125 38.242188 7.566406 C 38.242188 7.976562 38.132812 8.042969 37.382812 8.042969 C 36.089844 8.042969 35.824219 7.871094 35.824219 7.042969 C 35.824219 6.457031 35.910156 6.304688 36.242188 6.304688 C 36.484375 6.304688 36.746094 6.21875 36.8125 6.085938 C 36.902344 5.957031 36.636719 5.871094 36.175781 5.871094 L 35.382812 5.871094 L 35.382812 4.28125 C 35.382812 3.347656 35.496094 2.585938 35.648438 2.433594 C 35.847656 2.238281 35.824219 2.175781 35.539062 2.175781 C 35.296875 2.175781 35.164062 2 35.164062 1.71875 C 35.164062 1.371094 35.054688 1.28125 34.570312 1.347656 C 34.042969 1.390625 33.933594 1.523438 33.890625 2.128906 C 33.824219 2.847656 33.78125 2.871094 32.945312 2.78125 C 32.242188 2.71875 32.089844 2.78125 32.089844 3.085938 C 32.089844 3.304688 32 3.476562 31.867188 3.476562 C 31.757812 3.476562 31.648438 3.871094 31.648438 4.324219 C 31.648438 5.390625 32.21875 5.871094 33.472656 5.871094 L 34.328125 5.871094 L 34.175781 7.476562 C 34.066406 8.566406 34.089844 9.128906 34.265625 9.21875 C 34.417969 9.304688 34.503906 9.195312 34.503906 8.933594 C 34.503906 8.28125 35.824219 8.085938 37.144531 8.566406 C 38.066406 8.890625 38.21875 8.890625 38.8125 8.585938 C 39.648438 8.152344 40.792969 8.152344 40.96875 8.609375 C 41.03125 8.804688 41.097656 9.238281 41.097656 9.585938 C 41.097656 10.195312 41.078125 10.21875 39.957031 10.21875 C 38.617188 10.21875 37.800781 10.390625 37.800781 10.675781 C 37.800781 10.78125 39.03125 10.871094 40.550781 10.871094 L 43.296875 10.871094 L 43.296875 9.695312 C 43.296875 8.976562 43.40625 8.433594 43.558594 8.347656 C 43.757812 8.21875 43.671875 8.128906 43.296875 8.042969 C 42.769531 7.914062 42.746094 7.871094 42.679688 5.695312 L 42.617188 3.476562 L 43.207031 3.476562 C 43.734375 3.476562 43.78125 3.414062 43.648438 2.890625 C 43.582031 2.542969 43.449219 1.761719 43.382812 1.128906 L 43.230469 0 L 80 0 L 80 11.738281 L 0 11.738281 Z M 29.671875 10.433594 C 29.671875 9.976562 29.339844 9.890625 27.910156 10 C 27.496094 10.023438 27.121094 10.128906 27.078125 10.238281 C 27.03125 10.347656 26.855469 10.433594 26.679688 10.433594 C 26.503906 10.433594 26.375 10.542969 26.375 10.652344 C 26.375 10.78125 27.078125 10.871094 28.023438 10.871094 C 29.515625 10.871094 29.671875 10.824219 29.671875 10.433594 Z M 30.199219 3.652344 C 30.484375 3.324219 30.441406 3.28125 29.648438 3.152344 C 29.011719 3.042969 28.792969 2.914062 28.792969 2.585938 C 28.792969 2.371094 28.636719 2.175781 28.460938 2.175781 C 28.199219 2.175781 28.152344 2.390625 28.265625 3.371094 C 28.417969 4.542969 28.394531 4.566406 27.824219 4.566406 C 27.40625 4.566406 27.253906 4.675781 27.253906 5 C 27.253906 5.28125 27.40625 5.433594 27.691406 5.433594 C 27.933594 5.433594 28.132812 5.542969 28.132812 5.675781 C 28.132812 5.890625 28.617188 5.414062 30.199219 3.652344 Z M 30.199219 3.652344 "/>
<path style=" stroke:none;fill-rule:nonzero;fill:rgb(82.745098%,82.352941%,82.352941%);fill-opacity:1;" d="M 38.679688 6.738281 C 38.679688 5.890625 38.703125 5.871094 39.449219 5.871094 C 40.199219 5.871094 40.21875 5.890625 40.21875 6.738281 C 40.21875 7.585938 40.199219 7.609375 39.449219 7.609375 C 38.703125 7.609375 38.679688 7.585938 38.679688 6.738281 Z M 38.679688 6.738281 "/>
<path style=" stroke:none;fill-rule:nonzero;fill:rgb(82.745098%,82.352941%,82.352941%);fill-opacity:1;" d="M 38.679688 4.238281 L 38.679688 2.824219 L 40.21875 2.824219 L 40.21875 5.652344 L 38.679688 5.652344 Z M 38.679688 4.238281 "/>
<path style=" stroke:none;fill-rule:nonzero;fill:rgb(81.176471%,79.607843%,77.647059%);fill-opacity:1;" d="M 26.8125 10.933594 C 26.8125 10.042969 27.207031 8.761719 27.605469 8.371094 C 28.152344 7.824219 29.320312 7.957031 30.042969 8.652344 C 30.394531 8.976562 30.703125 9.390625 30.726562 9.566406 C 30.746094 9.738281 30.835938 10.261719 30.902344 10.71875 L 31.03125 11.523438 L 26.8125 11.523438 Z M 28.375 8.738281 C 28.242188 8.695312 28.199219 8.566406 28.265625 8.433594 C 28.351562 8.304688 28.21875 8.324219 27.933594 8.457031 C 27.691406 8.609375 27.472656 8.847656 27.472656 9.023438 C 27.472656 9.28125 27.582031 9.304688 28.042969 9.085938 C 28.375 8.933594 28.503906 8.78125 28.375 8.738281 Z M 28.375 8.738281 "/>
<path style=" stroke:none;fill-rule:nonzero;fill:rgb(81.176471%,79.607843%,77.647059%);fill-opacity:1;" d="M 36.617188 11.304688 C 36.945312 11.175781 37.078125 10.957031 37.03125 10.5 C 37.011719 10.175781 37.097656 9.824219 37.230469 9.738281 C 37.363281 9.652344 37.1875 9.476562 36.8125 9.347656 C 36.351562 9.175781 36.152344 9.175781 36.042969 9.371094 C 35.910156 9.542969 35.847656 9.542969 35.734375 9.371094 C 35.648438 9.238281 35.496094 9.128906 35.363281 9.128906 C 35.121094 9.128906 35.207031 9.914062 35.496094 10.152344 C 35.582031 10.261719 35.605469 10.195312 35.515625 10.066406 C 35.40625 9.871094 35.472656 9.824219 35.691406 9.914062 C 35.867188 9.976562 35.957031 10.175781 35.890625 10.347656 C 35.734375 10.738281 35.496094 10.738281 35.078125 10.324219 C 34.902344 10.152344 34.503906 10 34.199219 10 C 33.734375 10 33.449219 9.738281 32.855469 8.804688 C 32.441406 8.152344 32.089844 7.433594 32.089844 7.21875 C 32.089844 7 31.78125 6.476562 31.40625 6.109375 C 30.878906 5.542969 30.746094 5.261719 30.8125 4.738281 C 30.921875 4.128906 30.902344 4.109375 30.617188 4.476562 C 30.460938 4.695312 30.375 5 30.417969 5.152344 C 30.484375 5.304688 30.441406 5.476562 30.328125 5.542969 C 30.199219 5.628906 30.109375 5.128906 30.109375 4.347656 C 30.109375 3.109375 30.152344 3 30.769531 2.652344 C 31.121094 2.457031 31.429688 2.195312 31.429688 2.085938 C 31.429688 1.976562 31.273438 2.023438 31.097656 2.175781 C 30.921875 2.324219 30.769531 2.371094 30.769531 2.261719 C 30.792969 2.152344 31.1875 1.804688 31.648438 1.476562 C 32.308594 1.023438 32.527344 0.957031 32.527344 1.195312 C 32.527344 1.371094 32.636719 1.523438 32.769531 1.523438 C 32.902344 1.523438 32.96875 1.371094 32.878906 1.195312 C 32.8125 1 32.878906 0.871094 33.078125 0.871094 C 33.230469 0.871094 33.449219 0.78125 33.515625 0.652344 C 33.605469 0.523438 33.496094 0.5 33.253906 0.585938 C 32.921875 0.695312 32.902344 0.652344 33.121094 0.433594 C 33.515625 0.0234375 34.023438 -0.0234375 34.152344 0.347656 C 34.308594 0.761719 34.726562 0.738281 34.726562 0.324219 C 34.726562 0.109375 34.945312 0 35.382812 0 C 35.757812 0 36.042969 0.109375 36.042969 0.21875 C 36.042969 0.371094 36.175781 0.371094 36.484375 0.21875 C 36.878906 0 36.921875 0.0429688 36.921875 0.847656 C 36.921875 1.324219 36.835938 1.78125 36.703125 1.847656 C 36.285156 2.109375 36.484375 2.390625 37.121094 2.390625 C 37.691406 2.390625 37.78125 2.5 38 3.347656 C 38.328125 4.652344 38.308594 7.238281 37.976562 7.566406 C 37.648438 7.890625 36.59375 7.914062 36.023438 7.609375 C 35.671875 7.414062 35.605469 7.152344 35.625 5.695312 C 35.625 4.78125 35.714844 3.824219 35.824219 3.585938 C 35.933594 3.347656 36.023438 3.28125 36.023438 3.433594 C 36.042969 3.566406 36.132812 3.695312 36.265625 3.695312 C 36.375 3.695312 36.460938 3.609375 36.417969 3.5 C 36.394531 3.390625 36.570312 3.128906 36.8125 2.933594 C 37.253906 2.585938 37.253906 2.585938 36.769531 2.804688 C 36.417969 2.976562 36.265625 2.976562 36.199219 2.761719 C 36 2.21875 34.617188 4.128906 34.503906 5.109375 C 34.417969 5.871094 34.484375 6.023438 35.296875 7.085938 C 35.824219 7.78125 36.042969 8.261719 35.976562 8.609375 C 35.910156 9.042969 35.957031 9.085938 36.285156 8.914062 C 36.726562 8.675781 39.78125 8.609375 39.78125 8.824219 C 39.78125 8.914062 39.605469 9.109375 39.40625 9.261719 C 39.054688 9.523438 39.097656 9.542969 39.78125 9.566406 C 40.351562 9.566406 40.460938 9.5 40.21875 9.347656 C 39.933594 9.175781 39.933594 9.128906 40.242188 9.128906 C 40.617188 9.128906 40.878906 9.933594 40.878906 11 C 40.878906 11.523438 40.855469 11.523438 38.527344 11.5 C 36.988281 11.5 36.308594 11.433594 36.617188 11.304688 Z M 33.1875 7.847656 C 32.96875 7.414062 32.527344 7.042969 32.527344 7.28125 C 32.527344 7.523438 33.078125 8.261719 33.253906 8.261719 C 33.339844 8.261719 33.320312 8.066406 33.1875 7.847656 Z M 37.582031 7.023438 C 37.582031 6.738281 37.515625 6.71875 37.339844 6.890625 C 37.207031 7.023438 36.921875 7.085938 36.726562 7.023438 C 36.417969 6.933594 36.417969 6.957031 36.703125 7.152344 C 37.1875 7.5 37.582031 7.433594 37.582031 7.023438 Z M 37.582031 7.023438 "/>
<path style=" stroke:none;fill-rule:nonzero;fill:rgb(81.176471%,79.607843%,77.647059%);fill-opacity:1;" d="M 32.109375 9.390625 C 31.976562 9.128906 31.867188 8.804688 31.867188 8.652344 C 31.890625 8.5 32.042969 8.652344 32.21875 8.976562 C 32.417969 9.324219 32.503906 9.652344 32.460938 9.71875 C 32.394531 9.761719 32.242188 9.628906 32.109375 9.390625 Z M 32.109375 9.390625 "/>
<path style=" stroke:none;fill-rule:nonzero;fill:rgb(81.176471%,79.607843%,77.647059%);fill-opacity:1;" d="M 38.792969 7.175781 C 38.703125 6.585938 38.703125 5.261719 38.792969 4.238281 L 38.945312 2.371094 L 39.867188 2.433594 C 41.144531 2.523438 41.582031 3.414062 41.496094 5.585938 C 41.40625 7.457031 40.855469 8.261719 39.648438 8.261719 C 38.96875 8.261719 38.945312 8.21875 38.792969 7.175781 Z M 39.496094 3.871094 C 39.449219 3.585938 39.40625 3.761719 39.40625 4.238281 C 39.382812 4.71875 39.429688 4.933594 39.496094 4.738281 C 39.539062 4.523438 39.539062 4.128906 39.496094 3.871094 Z M 39.496094 3.871094 "/>
<path style=" stroke:none;fill-rule:nonzero;fill:rgb(81.176471%,79.607843%,77.647059%);fill-opacity:1;" d="M 39.339844 0.976562 C 39.164062 0.78125 38.855469 0.71875 38.441406 0.804688 C 37.734375 0.933594 37.625 0.78125 38.109375 0.304688 C 38.527344 -0.109375 39.097656 -0.0859375 39.273438 0.347656 C 39.339844 0.523438 39.539062 0.628906 39.691406 0.566406 C 39.890625 0.5 40 0.609375 40 0.871094 C 40 1.390625 39.714844 1.433594 39.339844 0.976562 Z M 39.339844 0.976562 "/>
<path style=" stroke:none;fill-rule:nonzero;fill:rgb(81.176471%,79.607843%,77.647059%);fill-opacity:1;" d="M 28.460938 0.433594 C 28.265625 0.109375 28.441406 -0.0664062 28.921875 0.0429688 C 29.253906 0.109375 29.273438 0.128906 28.945312 0.390625 C 28.703125 0.585938 28.570312 0.609375 28.460938 0.433594 Z M 28.460938 0.433594 "/>
<path style=" stroke:none;fill-rule:nonzero;fill:rgb(76.862745%,80%,81.568627%);fill-opacity:1;" d="M 40.089844 11.324219 C 40.375 10.890625 39.957031 9.804688 39.472656 9.71875 C 39.1875 9.652344 39.296875 9.609375 39.78125 9.585938 C 40.199219 9.542969 40.417969 9.476562 40.265625 9.414062 C 40.132812 9.371094 40.042969 9.21875 40.132812 9.109375 C 40.199219 9 40 9 39.691406 9.128906 C 39.164062 9.324219 39.121094 9.28125 39.121094 8.804688 C 39.121094 8.5 39.230469 8.261719 39.339844 8.261719 C 39.691406 8.261719 40.570312 7.175781 41.011719 6.238281 C 41.320312 5.566406 41.339844 5.304688 41.144531 4.609375 C 40.988281 4.175781 40.703125 3.566406 40.484375 3.304688 C 40.089844 2.804688 40.066406 2.804688 39.691406 3.175781 C 39.363281 3.476562 39.320312 3.871094 39.363281 5.523438 L 39.429688 7.5 L 38.503906 7.566406 L 37.582031 7.628906 L 37.605469 6.261719 C 37.605469 5.5 37.472656 4.433594 37.296875 3.871094 C 37.121094 3.304688 37.03125 2.78125 37.121094 2.695312 C 37.1875 2.585938 37.011719 2.675781 36.726562 2.847656 C 36.132812 3.21875 35.867188 3.695312 36.242188 3.695312 C 36.375 3.695312 36.460938 3.585938 36.417969 3.457031 C 36.394531 3.324219 36.503906 3.152344 36.660156 3.109375 C 36.8125 3.042969 36.921875 3.195312 36.921875 3.457031 C 36.921875 3.71875 36.8125 3.914062 36.660156 3.914062 C 36.527344 3.914062 36.484375 3.976562 36.550781 4.042969 C 36.617188 4.128906 36.550781 4.371094 36.394531 4.585938 C 36.066406 5.066406 36.265625 7 36.679688 7.128906 C 36.8125 7.175781 36.921875 7.457031 36.921875 7.738281 C 36.921875 8.238281 36.855469 8.28125 36.109375 8.21875 C 35.097656 8.128906 34.484375 7.347656 34.351562 5.933594 C 34.21875 4.738281 34.570312 3.21875 35.078125 2.71875 C 35.253906 2.542969 35.648438 2.390625 35.910156 2.390625 C 36.199219 2.390625 36.550781 2.238281 36.703125 2.066406 C 37.03125 1.675781 38.921875 1.609375 39.582031 1.957031 C 39.800781 2.085938 40 2.109375 40.023438 2.023438 C 40.042969 1.628906 40.242188 0.738281 40.328125 0.5 C 40.375 0.324219 40.8125 0.21875 41.363281 0.21875 L 42.308594 0.21875 L 42.703125 2.152344 C 43.03125 3.847656 43.054688 4.390625 42.8125 6.761719 C 42.660156 8.542969 42.460938 9.542969 42.265625 9.71875 C 42.042969 9.871094 42.023438 10 42.175781 10.109375 C 42.308594 10.175781 42.417969 10.523438 42.417969 10.890625 C 42.417969 11.523438 42.394531 11.523438 41.1875 11.523438 C 40.527344 11.523438 40.023438 11.433594 40.089844 11.324219 Z M 40.089844 11.324219 "/>
<path style=" stroke:none;fill-rule:nonzero;fill:rgb(76.862745%,80%,81.568627%);fill-opacity:1;" d="M 28.792969 3.695312 L 28.792969 2.609375 L 30.328125 2.609375 L 30.328125 4.78125 L 28.792969 4.78125 Z M 28.792969 3.695312 "/>
<path style=" stroke:none;fill-rule:nonzero;fill:rgb(78.431373%,79.215686%,80%);fill-opacity:1;" d="M 19.78125 54.152344 C 19.78125 54.042969 19.847656 53.804688 19.910156 53.609375 C 20.023438 53.324219 20.089844 53.324219 20.351562 53.585938 C 20.792969 54.023438 20.726562 54.347656 20.21875 54.347656 C 19.976562 54.347656 19.78125 54.261719 19.78125 54.152344 Z M 19.78125 54.152344 "/>
<path style=" stroke:none;fill-rule:nonzero;fill:rgb(78.431373%,79.215686%,80%);fill-opacity:1;" d="M 29.605469 54.21875 C 29.582031 54.195312 27.691406 54.128906 25.40625 54.042969 C 23.121094 53.976562 21.230469 53.890625 21.1875 53.871094 C 21.164062 53.824219 29.515625 53.804688 39.734375 53.804688 C 49.976562 53.804688 57.757812 53.890625 57.03125 53.976562 C 55.976562 54.109375 29.757812 54.324219 29.605469 54.21875 Z M 29.605469 54.21875 "/>
<path style=" stroke:none;fill-rule:nonzero;fill:rgb(78.431373%,79.215686%,80%);fill-opacity:1;" d="M 20.023438 42.738281 C 20.023438 37.023438 20.089844 32.21875 20.152344 32.042969 C 20.375 31.5 20.703125 31.71875 20.570312 32.304688 C 20.484375 32.628906 20.417969 37.304688 20.417969 42.695312 C 20.441406 48.914062 20.351562 52.609375 20.21875 52.824219 C 20.066406 53.042969 20 49.78125 20.023438 42.738281 Z M 20.023438 42.738281 "/>
<path style=" stroke:none;fill-rule:nonzero;fill:rgb(78.431373%,79.215686%,80%);fill-opacity:1;" d="M 59.121094 42.890625 C 59.121094 37.304688 59.054688 32.5 58.988281 32.238281 C 58.855469 31.738281 59.1875 31.542969 59.449219 31.957031 C 59.515625 32.066406 59.558594 36.109375 59.539062 40.914062 C 59.472656 50.457031 59.496094 51.824219 59.671875 52.566406 C 59.757812 52.890625 59.691406 53.042969 59.472656 53.042969 C 59.207031 53.042969 59.144531 51.585938 59.121094 42.890625 Z M 59.121094 42.890625 "/>
<path style=" stroke:none;fill-rule:nonzero;fill:rgb(78.431373%,79.215686%,80%);fill-opacity:1;" d="M 24.503906 51.761719 C 24.441406 51.628906 24.175781 51.523438 23.933594 51.523438 C 23.714844 51.523438 23.515625 51.414062 23.515625 51.28125 C 23.515625 51.175781 23.625 51.128906 23.734375 51.195312 C 23.867188 51.261719 23.957031 51.152344 23.957031 50.933594 C 23.976562 50.128906 24.441406 49.847656 25.339844 50.109375 C 25.800781 50.238281 26.109375 50.414062 26.023438 50.5 C 25.933594 50.585938 26.023438 50.652344 26.242188 50.652344 C 26.441406 50.652344 26.550781 50.566406 26.484375 50.433594 C 26.417969 50.324219 26.503906 50.21875 26.703125 50.21875 C 26.902344 50.21875 26.988281 50.324219 26.921875 50.433594 C 26.855469 50.566406 26.945312 50.652344 27.144531 50.652344 C 27.339844 50.652344 27.429688 50.566406 27.363281 50.433594 C 27.296875 50.324219 27.339844 50.21875 27.449219 50.21875 C 27.582031 50.21875 27.691406 50.324219 27.691406 50.433594 C 27.691406 50.566406 27.847656 50.652344 28.042969 50.652344 C 28.21875 50.652344 28.308594 50.566406 28.242188 50.433594 C 28.175781 50.324219 28.21875 50.21875 28.328125 50.21875 C 28.460938 50.21875 28.570312 50.324219 28.570312 50.433594 C 28.570312 50.566406 28.746094 50.652344 28.96875 50.652344 C 29.273438 50.652344 29.296875 50.609375 29.011719 50.433594 C 28.769531 50.28125 29.097656 50.21875 30.066406 50.21875 C 30.945312 50.21875 31.40625 50.304688 31.320312 50.433594 C 31.253906 50.566406 31.339844 50.652344 31.539062 50.652344 C 31.734375 50.652344 31.824219 50.566406 31.757812 50.433594 C 31.671875 50.304688 31.910156 50.21875 32.285156 50.21875 C 32.660156 50.21875 32.96875 50.324219 32.96875 50.433594 C 32.96875 50.566406 33.121094 50.652344 33.320312 50.652344 C 33.496094 50.652344 33.582031 50.566406 33.515625 50.433594 C 33.429688 50.304688 34 50.21875 35.054688 50.21875 C 36.109375 50.21875 36.679688 50.304688 36.59375 50.433594 C 36.527344 50.566406 36.617188 50.652344 36.792969 50.652344 C 36.988281 50.652344 37.078125 50.5 37.03125 50.21875 C 36.96875 49.933594 37.078125 49.78125 37.320312 49.761719 C 37.625 49.761719 37.605469 49.71875 37.253906 49.566406 C 36.902344 49.414062 36.945312 49.371094 37.582031 49.371094 C 38.152344 49.347656 38.265625 49.414062 38.023438 49.566406 C 37.757812 49.738281 37.847656 49.78125 38.351562 49.804688 C 38.945312 49.847656 38.902344 49.871094 38.132812 50 L 37.253906 50.152344 L 38.308594 50.195312 C 38.945312 50.195312 39.320312 50.304688 39.230469 50.433594 C 39.164062 50.566406 39.230469 50.652344 39.429688 50.652344 C 39.605469 50.652344 39.800781 50.523438 39.847656 50.390625 C 39.933594 50.175781 39.976562 50.175781 39.976562 50.390625 C 40.023438 50.914062 40.570312 50.652344 40.570312 50.109375 C 40.570312 49.804688 40.460938 49.566406 40.328125 49.566406 C 40.175781 49.566406 40.089844 49.304688 40.132812 48.976562 C 40.152344 48.628906 40.175781 48.261719 40.199219 48.109375 C 40.21875 47.976562 40.484375 47.824219 40.8125 47.78125 C 41.1875 47.738281 41.449219 47.566406 41.496094 47.347656 C 41.605469 46.738281 40.617188 46.847656 40 47.5 C 39.253906 48.28125 37.515625 49.085938 37.910156 48.476562 C 37.976562 48.371094 37.890625 48.261719 37.691406 48.261719 C 37.496094 48.261719 37.40625 48.371094 37.472656 48.476562 C 37.539062 48.609375 37.449219 48.695312 37.253906 48.695312 C 37.054688 48.695312 36.96875 48.609375 37.03125 48.476562 C 37.097656 48.347656 36.902344 48.238281 36.550781 48.21875 C 36.21875 48.195312 36.484375 48.128906 37.144531 48.042969 C 38.132812 47.914062 38.21875 47.890625 37.582031 47.847656 C 36.855469 47.78125 36.855469 47.761719 37.363281 47.609375 L 37.910156 47.433594 L 37.363281 47.390625 C 36.855469 47.371094 36.855469 47.347656 37.253906 47.175781 L 37.691406 46.976562 L 37.253906 46.957031 L 36.8125 46.933594 L 37.253906 46.738281 C 37.605469 46.585938 37.558594 46.542969 36.921875 46.542969 C 36.394531 46.523438 36.242188 46.457031 36.460938 46.324219 C 36.703125 46.175781 36.679688 46.109375 36.351562 46.023438 C 36.132812 45.976562 36.441406 45.890625 37.03125 45.871094 C 37.890625 45.824219 38.023438 45.78125 37.582031 45.675781 L 37.03125 45.523438 L 37.539062 45.347656 C 37.867188 45.238281 38 45.066406 37.933594 44.871094 C 37.847656 44.652344 37.976562 44.566406 38.417969 44.585938 C 38.746094 44.585938 38.878906 44.652344 38.746094 44.71875 C 38.265625 44.890625 38.441406 45.175781 38.945312 45.042969 C 39.230469 44.976562 39.363281 45.023438 39.273438 45.152344 C 39.078125 45.457031 39.691406 45.957031 40 45.761719 C 40.109375 45.695312 40.21875 45.347656 40.21875 44.976562 C 40.21875 44.152344 40.570312 44.175781 40.945312 45.066406 C 41.121094 45.433594 41.429688 45.890625 41.625 46.066406 C 42.109375 46.457031 42.945312 48.042969 42.660156 48.042969 C 42.550781 48.042969 42.417969 47.933594 42.375 47.78125 C 42.308594 47.628906 42.21875 47.609375 42.152344 47.71875 C 42.089844 47.847656 42.175781 48.238281 42.328125 48.585938 L 42.59375 49.238281 L 42.835938 48.695312 C 43.03125 48.21875 43.054688 48.195312 43.054688 48.609375 C 43.078125 48.871094 42.855469 49.175781 42.527344 49.347656 C 42.21875 49.5 41.976562 49.71875 41.976562 49.824219 C 41.976562 49.914062 41.714844 50.023438 41.382812 50.023438 C 40.855469 50.066406 40.835938 50.066406 41.273438 50.152344 C 41.539062 50.195312 41.757812 50.347656 41.757812 50.457031 C 41.757812 50.566406 41.910156 50.652344 42.109375 50.652344 C 42.285156 50.652344 42.375 50.566406 42.308594 50.433594 C 42.242188 50.324219 42.285156 50.21875 42.394531 50.21875 C 42.527344 50.21875 42.636719 50.324219 42.636719 50.433594 C 42.636719 50.566406 42.792969 50.652344 42.988281 50.652344 C 43.164062 50.652344 43.253906 50.566406 43.1875 50.433594 C 43.121094 50.324219 43.207031 50.21875 43.40625 50.21875 C 43.605469 50.21875 43.691406 50.324219 43.625 50.433594 C 43.558594 50.566406 43.648438 50.652344 43.847656 50.652344 C 44.042969 50.652344 44.152344 50.566406 44.089844 50.476562 C 44.023438 50.371094 44.109375 50.28125 44.285156 50.28125 C 44.460938 50.28125 44.550781 50.371094 44.484375 50.476562 C 44.417969 50.566406 44.460938 50.652344 44.59375 50.652344 C 44.703125 50.652344 44.835938 50.566406 44.878906 50.457031 C 44.988281 50.128906 46.265625 50.066406 46.21875 50.390625 C 46.175781 50.523438 46.308594 50.652344 46.503906 50.652344 C 46.679688 50.652344 46.769531 50.566406 46.703125 50.433594 C 46.636719 50.324219 46.726562 50.21875 46.902344 50.21875 C 47.097656 50.21875 47.253906 50.324219 47.253906 50.433594 C 47.253906 50.566406 47.363281 50.652344 47.496094 50.652344 C 47.605469 50.652344 47.648438 50.566406 47.582031 50.433594 C 47.515625 50.324219 47.539062 50.21875 47.671875 50.21875 C 47.78125 50.21875 47.933594 50.347656 47.976562 50.5 C 48.066406 50.695312 48.152344 50.675781 48.351562 50.433594 C 48.550781 50.195312 48.636719 50.175781 48.726562 50.390625 C 48.769531 50.523438 48.96875 50.652344 49.144531 50.652344 C 49.339844 50.652344 49.40625 50.566406 49.339844 50.433594 C 49.273438 50.324219 49.363281 50.21875 49.558594 50.21875 C 49.757812 50.21875 49.847656 50.324219 49.78125 50.433594 C 49.691406 50.566406 49.957031 50.652344 50.441406 50.652344 C 50.921875 50.652344 51.1875 50.566406 51.097656 50.433594 C 51.03125 50.324219 51.121094 50.21875 51.320312 50.21875 C 51.515625 50.21875 51.625 50.304688 51.558594 50.414062 C 51.472656 50.523438 51.558594 50.675781 51.691406 50.71875 C 51.847656 50.78125 46.042969 50.871094 38.792969 50.914062 C 26.460938 50.957031 26.109375 50.976562 33.296875 51.085938 L 40.988281 51.195312 L 33.144531 51.261719 C 27.1875 51.28125 25.296875 51.371094 25.339844 51.566406 C 25.40625 51.890625 24.703125 52.066406 24.503906 51.761719 Z M 24.503906 51.761719 "/>
<path style=" stroke:none;fill-rule:nonzero;fill:rgb(78.431373%,79.215686%,80%);fill-opacity:1;" d="M 55.648438 51.304688 C 55.496094 51.066406 55.449219 50.871094 55.558594 50.871094 C 55.648438 50.871094 55.847656 51.066406 56 51.304688 C 56.152344 51.542969 56.199219 51.738281 56.089844 51.738281 C 56 51.738281 55.800781 51.542969 55.648438 51.304688 Z M 55.648438 51.304688 "/>
<path style=" stroke:none;fill-rule:nonzero;fill:rgb(78.431373%,79.215686%,80%);fill-opacity:1;" d="M 44.351562 51.152344 C 44.746094 51.109375 45.339844 51.109375 45.671875 51.152344 C 46 51.195312 45.671875 51.238281 44.945312 51.238281 C 44.21875 51.238281 43.957031 51.195312 44.351562 51.152344 Z M 44.351562 51.152344 "/>
<path style=" stroke:none;fill-rule:nonzero;fill:rgb(78.431373%,79.215686%,80%);fill-opacity:1;" d="M 48.527344 51.152344 C 48.792969 51.109375 49.1875 51.109375 49.40625 51.152344 C 49.605469 51.21875 49.382812 51.261719 48.902344 51.238281 C 48.417969 51.238281 48.242188 51.195312 48.527344 51.152344 Z M 48.527344 51.152344 "/>
<path style=" stroke:none;fill-rule:nonzero;fill:rgb(78.431373%,79.215686%,80%);fill-opacity:1;" d="M 50.285156 51.152344 C 50.550781 51.109375 50.945312 51.109375 51.164062 51.152344 C 51.363281 51.21875 51.144531 51.261719 50.660156 51.238281 C 50.175781 51.238281 50 51.195312 50.285156 51.152344 Z M 50.285156 51.152344 "/>
<path style=" stroke:none;fill-rule:nonzero;fill:rgb(78.431373%,79.215686%,80%);fill-opacity:1;" d="M 54.441406 50.5 C 54.175781 50.261719 54.265625 50 54.59375 50 C 54.746094 50 55.011719 50.152344 55.164062 50.324219 C 55.382812 50.585938 55.363281 50.652344 55.011719 50.652344 C 54.769531 50.652344 54.503906 50.585938 54.441406 50.5 Z M 54.441406 50.5 "/>
<path style=" stroke:none;fill-rule:nonzero;fill:rgb(78.431373%,79.215686%,80%);fill-opacity:1;" d="M 26.441406 49.78125 C 26.351562 49.675781 26.089844 49.566406 25.890625 49.523438 C 25.558594 49.476562 25.605469 49.347656 26.152344 48.71875 C 26.878906 47.914062 26.921875 47.761719 26.617188 47.21875 C 26.460938 46.933594 26.617188 46.523438 27.1875 45.585938 C 27.867188 44.457031 27.976562 44.371094 28.417969 44.585938 C 28.769531 44.78125 29.03125 44.761719 29.605469 44.457031 C 30.132812 44.175781 30.265625 44 30.066406 43.871094 C 29.847656 43.738281 29.847656 43.695312 30.089844 43.695312 C 30.328125 43.695312 30.308594 43.585938 30.023438 43.152344 C 29.824219 42.871094 29.671875 42.457031 29.671875 42.238281 C 29.671875 41.914062 29.714844 41.914062 29.867188 42.152344 C 30.042969 42.414062 30.152344 42.414062 30.617188 42.109375 C 30.902344 41.933594 31.296875 41.628906 31.449219 41.476562 C 31.933594 41.066406 32.703125 40.652344 33.011719 40.675781 C 33.164062 40.675781 33.097656 40.761719 32.855469 40.871094 C 32.484375 41.023438 32.503906 41.066406 33.078125 41.085938 C 33.496094 41.109375 33.625 41.175781 33.40625 41.261719 C 33.230469 41.347656 33.054688 41.542969 33.011719 41.695312 C 32.988281 41.871094 33.320312 41.957031 34.109375 41.976562 C 34.746094 41.976562 35.144531 42.042969 35.011719 42.109375 C 34.460938 42.304688 34.703125 42.824219 35.339844 42.824219 C 35.800781 42.824219 35.867188 42.78125 35.605469 42.609375 C 35.320312 42.414062 35.320312 42.347656 35.605469 42.109375 C 36.042969 41.761719 36.550781 40.5 36.570312 39.675781 C 36.59375 39.023438 36.59375 39.023438 35.449219 39.085938 C 34.351562 39.128906 34.308594 39.128906 34.417969 38.585938 C 34.460938 38.28125 34.417969 38.042969 34.308594 38.042969 C 34 38.042969 33.582031 36.804688 33.734375 36.324219 C 33.933594 35.675781 34.175781 35.761719 34.703125 36.652344 C 34.988281 37.109375 35.296875 37.390625 35.472656 37.324219 C 35.625 37.261719 35.847656 37.28125 35.957031 37.347656 C 36.375 37.628906 38.703125 41.085938 39.144531 42.066406 C 39.558594 43 39.558594 43.109375 39.253906 43.457031 C 39.054688 43.675781 38.902344 43.957031 38.902344 44.109375 C 38.902344 44.28125 38.792969 44.304688 38.484375 44.128906 C 38.242188 44.023438 37.867188 43.914062 37.648438 43.933594 C 37.363281 43.957031 37.40625 44 37.800781 44.128906 C 38.242188 44.261719 38.109375 44.304688 37.253906 44.304688 C 36.394531 44.304688 36.265625 44.261719 36.703125 44.128906 C 37.121094 44 36.855469 43.933594 35.714844 43.890625 C 34.21875 43.847656 34.199219 43.847656 35.253906 43.71875 C 36.265625 43.585938 36.308594 43.566406 35.933594 43.261719 C 35.691406 43.066406 35.582031 43.042969 35.691406 43.21875 C 35.78125 43.371094 35.714844 43.476562 35.496094 43.476562 C 35.296875 43.476562 35.207031 43.390625 35.273438 43.261719 C 35.363281 43.128906 34.988281 43.042969 34.351562 43.023438 C 33.582031 43 33.449219 42.957031 33.847656 42.847656 C 34.746094 42.628906 34.617188 42.175781 33.691406 42.195312 C 32.855469 42.21875 32.855469 42.21875 33.515625 42.390625 C 34.175781 42.566406 34.175781 42.566406 33.363281 42.585938 C 32.855469 42.609375 32.527344 42.5 32.527344 42.347656 C 32.527344 42.21875 32.460938 42.175781 32.394531 42.238281 C 32.308594 42.324219 32.375 42.523438 32.527344 42.71875 C 32.746094 42.976562 32.746094 43.042969 32.527344 43.042969 C 32.375 43.042969 32.308594 43.21875 32.375 43.476562 C 32.460938 43.824219 32.375 43.914062 31.933594 43.914062 C 31.648438 43.914062 31.253906 44.066406 31.078125 44.238281 C 30.878906 44.414062 30.8125 44.566406 30.902344 44.566406 C 30.988281 44.566406 30.902344 44.738281 30.726562 44.957031 C 30.550781 45.152344 30.417969 45.695312 30.441406 46.152344 C 30.460938 46.890625 30.417969 46.957031 29.847656 46.957031 C 29.515625 46.957031 29.230469 46.871094 29.230469 46.738281 C 29.230469 46.628906 29.078125 46.523438 28.878906 46.523438 C 28.703125 46.523438 28.59375 46.433594 28.660156 46.324219 C 28.8125 46.109375 27.824219 45.871094 27.515625 46.066406 C 27.296875 46.21875 27.714844 48.128906 27.933594 48 C 28 47.957031 28.242188 48.085938 28.460938 48.261719 C 28.703125 48.457031 28.8125 48.476562 28.703125 48.324219 C 28.617188 48.175781 28.660156 48.042969 28.769531 48.042969 C 29.097656 48.042969 29.078125 48.695312 28.746094 48.738281 C 28.59375 48.738281 28.96875 48.824219 29.558594 48.914062 L 30.660156 49.066406 L 29.625 49.085938 C 28.726562 49.128906 28.617188 49.175781 28.726562 49.566406 C 28.8125 49.871094 28.726562 50 28.484375 50 C 28.265625 50 28.175781 49.914062 28.242188 49.78125 C 28.308594 49.675781 28.265625 49.566406 28.152344 49.566406 C 28.023438 49.566406 27.910156 49.628906 27.910156 49.738281 C 27.910156 49.957031 26.679688 50 26.441406 49.78125 Z M 37.890625 42.128906 C 37.78125 41.976562 37.847656 41.933594 38.066406 42.023438 C 38.351562 42.128906 38.375 42.042969 38.175781 41.390625 C 37.890625 40.457031 37.496094 40.542969 37.40625 41.585938 C 37.339844 42.21875 37.40625 42.390625 37.691406 42.390625 C 37.910156 42.390625 37.976562 42.28125 37.890625 42.128906 Z M 37.890625 42.128906 "/>
<path style=" stroke:none;fill-rule:nonzero;fill:rgb(78.431373%,79.215686%,80%);fill-opacity:1;" d="M 47.144531 49.78125 C 47.207031 49.675781 47.121094 49.566406 46.945312 49.566406 C 46.417969 49.566406 46.527344 48.957031 47.164062 48.324219 L 47.734375 47.761719 L 48.175781 48.476562 L 48.617188 49.195312 L 49.03125 48.566406 C 49.253906 48.21875 49.449219 47.824219 49.449219 47.695312 C 49.449219 47.566406 49.605469 47.304688 49.800781 47.152344 C 50.109375 46.914062 50.199219 46.933594 50.460938 47.261719 C 50.636719 47.5 50.703125 47.914062 50.636719 48.195312 C 50.503906 48.675781 50.550781 48.695312 51.054688 48.585938 C 51.472656 48.476562 51.671875 48.542969 51.847656 48.871094 C 52.152344 49.457031 51.933594 50 51.382812 50 C 50.96875 50 50.96875 49.976562 51.449219 49.566406 C 51.734375 49.347656 51.847656 49.152344 51.714844 49.128906 C 51.558594 49.128906 51.429688 49.238281 51.429688 49.347656 C 51.429688 49.476562 51.273438 49.566406 51.097656 49.566406 C 50.921875 49.566406 50.769531 49.675781 50.769531 49.78125 C 50.769531 50.109375 49.078125 50.042969 48.945312 49.738281 C 48.878906 49.523438 48.746094 49.523438 48.351562 49.738281 C 48.089844 49.914062 47.933594 49.933594 48 49.824219 C 48.066406 49.695312 47.976562 49.566406 47.800781 49.476562 C 47.605469 49.414062 47.472656 49.476562 47.472656 49.675781 C 47.472656 49.847656 47.363281 50 47.230469 50 C 47.121094 50 47.078125 49.914062 47.144531 49.78125 Z M 47.144531 49.78125 "/>
<path style=" stroke:none;fill-rule:nonzero;fill:rgb(78.431373%,79.215686%,80%);fill-opacity:1;" d="M 45.1875 49.371094 C 45.121094 49.28125 44.792969 49.238281 44.484375 49.304688 C 44.042969 49.371094 43.933594 49.347656 44.066406 49.152344 C 44.152344 49 44.351562 48.933594 44.527344 49 C 44.703125 49.066406 44.945312 48.914062 45.078125 48.628906 C 45.40625 48.023438 48.703125 44 49.054688 43.78125 C 49.207031 43.695312 49.847656 44.21875 50.703125 45.128906 C 52.460938 47 52.835938 47.523438 52.636719 47.824219 C 52.441406 48.152344 51.757812 47.566406 51.078125 46.476562 C 50.769531 46.023438 50.394531 45.652344 50.21875 45.652344 C 50.042969 45.652344 49.800781 45.457031 49.671875 45.21875 C 49.539062 44.976562 49.363281 44.78125 49.253906 44.78125 C 48.902344 44.78125 46.617188 47.238281 46.066406 48.238281 C 45.957031 48.433594 45.757812 48.675781 45.625 48.761719 C 45.472656 48.890625 45.515625 48.914062 45.757812 48.847656 C 46.242188 48.695312 46.417969 48.914062 46.132812 49.28125 C 45.847656 49.609375 45.363281 49.652344 45.1875 49.371094 Z M 45.1875 49.371094 "/>
<path style=" stroke:none;fill-rule:nonzero;fill:rgb(78.431373%,79.215686%,80%);fill-opacity:1;" d="M 36.550781 48.976562 C 36.878906 48.933594 37.363281 48.933594 37.648438 48.976562 C 37.910156 49.023438 37.648438 49.066406 37.03125 49.066406 C 36.441406 49.066406 36.199219 49.023438 36.550781 48.976562 Z M 36.550781 48.976562 "/>
<path style=" stroke:none;fill-rule:nonzero;fill:rgb(78.431373%,79.215686%,80%);fill-opacity:1;" d="M 29.515625 48.109375 C 29.714844 48.066406 30.066406 48.066406 30.285156 48.109375 C 30.484375 48.175781 30.308594 48.21875 29.890625 48.21875 C 29.472656 48.21875 29.296875 48.175781 29.515625 48.109375 Z M 29.515625 48.109375 "/>
<path style=" stroke:none;fill-rule:nonzero;fill:rgb(78.431373%,79.215686%,80%);fill-opacity:1;" d="M 29.867188 47.628906 C 30.109375 47.476562 30.109375 47.433594 29.867188 47.324219 C 29.691406 47.261719 30.199219 47.21875 30.988281 47.21875 L 32.417969 47.238281 L 31.320312 47.371094 C 30.460938 47.476562 30.351562 47.542969 30.769531 47.652344 C 31.1875 47.738281 31.121094 47.78125 30.441406 47.78125 C 29.867188 47.804688 29.671875 47.761719 29.867188 47.628906 Z M 29.867188 47.628906 "/>
<path style=" stroke:none;fill-rule:nonzero;fill:rgb(78.431373%,79.215686%,80%);fill-opacity:1;" d="M 48.570312 46.5 C 48.570312 46.390625 48.792969 46.304688 49.054688 46.304688 C 49.320312 46.304688 49.449219 46.371094 49.363281 46.457031 C 49.144531 46.695312 48.570312 46.71875 48.570312 46.5 Z M 48.570312 46.5 "/>
<path style=" stroke:none;fill-rule:nonzero;fill:rgb(78.431373%,79.215686%,80%);fill-opacity:1;" d="M 35.78125 44.628906 C 36.175781 44.585938 36.769531 44.585938 37.097656 44.628906 C 37.429688 44.675781 37.097656 44.71875 36.375 44.71875 C 35.648438 44.71875 35.382812 44.675781 35.78125 44.628906 Z M 35.78125 44.628906 "/>
<path style=" stroke:none;fill-rule:nonzero;fill:rgb(78.431373%,79.215686%,80%);fill-opacity:1;" d="M 33.800781 41.585938 C 34.066406 41.542969 34.460938 41.542969 34.679688 41.585938 C 34.878906 41.652344 34.660156 41.695312 34.175781 41.675781 C 33.691406 41.675781 33.515625 41.628906 33.800781 41.585938 Z M 33.800781 41.585938 "/>
<path style=" stroke:none;fill-rule:nonzero;fill:rgb(78.431373%,79.215686%,80%);fill-opacity:1;" d="M 30.328125 40.738281 C 30.328125 40.675781 30.503906 40.347656 30.726562 40.042969 C 30.945312 39.71875 31.207031 39.28125 31.273438 39.085938 C 31.363281 38.871094 31.539062 38.695312 31.691406 38.695312 C 31.867188 38.695312 32.152344 38.5 32.375 38.261719 C 32.921875 37.609375 33.253906 37.933594 33.097656 38.933594 C 32.96875 39.695312 33.011719 39.761719 33.558594 39.847656 C 33.976562 39.914062 33.847656 39.957031 33.1875 39.976562 C 32.460938 40 32.285156 40.066406 32.527344 40.21875 C 32.8125 40.390625 32.792969 40.433594 32.484375 40.433594 C 32.265625 40.433594 32.089844 40.542969 32.089844 40.652344 C 32.089844 40.78125 31.933594 40.871094 31.734375 40.871094 C 31.515625 40.871094 31.429688 40.761719 31.515625 40.542969 C 31.625 40.238281 31.605469 40.238281 31.164062 40.542969 C 30.660156 40.890625 30.328125 40.957031 30.328125 40.738281 Z M 30.328125 40.738281 "/>
<path style=" stroke:none;fill-rule:nonzero;fill:rgb(78.431373%,79.215686%,80%);fill-opacity:1;" d="M 25.671875 38.628906 C 24.988281 38 24.617188 37.347656 24.617188 36.804688 C 24.617188 36.195312 25.910156 34.566406 26.394531 34.566406 C 26.878906 34.566406 26.902344 34.71875 26.484375 35.433594 C 26.042969 36.195312 26.066406 36.21875 26.945312 36.128906 C 27.734375 36.042969 27.734375 36.023438 27.605469 35.195312 C 27.472656 34.433594 27.515625 34.347656 27.933594 34.347656 C 28.550781 34.347656 30.394531 36.261719 30.199219 36.71875 C 30.109375 36.914062 30 37.347656 29.933594 37.675781 C 29.691406 39.066406 26.835938 39.695312 25.671875 38.628906 Z M 27.910156 38.523438 C 27.910156 38.21875 27.40625 37.824219 26.988281 37.824219 C 26.59375 37.824219 26.441406 38.261719 26.746094 38.542969 C 26.945312 38.761719 27.910156 38.738281 27.910156 38.523438 Z M 27.910156 38.523438 "/>
<path style=" stroke:none;fill-rule:nonzero;fill:rgb(78.431373%,79.215686%,80%);fill-opacity:1;" d="M 57.757812 32.5 C 57.691406 32.433594 53.011719 32.371094 47.339844 32.347656 C 37.496094 32.324219 33.933594 32.175781 37.03125 31.914062 C 37.757812 31.871094 42.835938 31.804688 48.308594 31.78125 C 58.066406 31.761719 58.242188 31.761719 58.242188 32.175781 C 58.242188 32.585938 58 32.738281 57.757812 32.5 Z M 57.757812 32.5 "/>
<path style=" stroke:none;fill-rule:nonzero;fill:rgb(78.431373%,79.215686%,80%);fill-opacity:1;" d="M 20.878906 32.175781 C 20.878906 31.933594 20.902344 31.933594 23.296875 31.914062 C 26.175781 31.914062 26.8125 31.957031 26.8125 32.152344 C 26.8125 32.28125 25.539062 32.371094 23.847656 32.371094 C 22.023438 32.390625 20.878906 32.304688 20.878906 32.175781 Z M 20.878906 32.175781 "/>
<path style=" stroke:none;fill-rule:nonzero;fill:rgb(78.431373%,79.215686%,80%);fill-opacity:1;" d="M 27.582031 32.175781 C 28.550781 31.871094 34.96875 31.804688 34.660156 32.085938 C 34.59375 32.152344 32.8125 32.261719 30.726562 32.304688 C 28.175781 32.347656 27.144531 32.304688 27.582031 32.175781 Z M 27.582031 32.175781 "/>
<path style=" stroke:none;fill-rule:nonzero;fill:rgb(78.431373%,79.215686%,80%);fill-opacity:1;" d="M 0.0429688 10.433594 L 0.109375 9.347656 L 12.023438 9.347656 C 21.339844 9.347656 23.933594 9.28125 24.023438 9.085938 C 24.109375 8.871094 24.152344 8.871094 24.152344 9.085938 C 24.175781 9.21875 24.375 9.347656 24.617188 9.347656 C 24.855469 9.347656 25.054688 9.457031 25.054688 9.566406 C 25.054688 9.695312 25.230469 9.78125 25.449219 9.78125 C 25.757812 9.78125 25.78125 9.738281 25.496094 9.566406 C 25.207031 9.390625 25.230469 9.347656 25.558594 9.347656 C 25.757812 9.347656 25.933594 9.457031 25.933594 9.566406 C 25.933594 9.695312 26.042969 9.78125 26.199219 9.78125 C 26.328125 9.78125 26.394531 9.71875 26.308594 9.652344 C 26.242188 9.566406 26.308594 9.238281 26.503906 8.890625 L 26.835938 8.261719 L 26.109375 8.238281 C 25.382812 8.195312 25.382812 8.195312 26.023438 8.109375 C 26.375 8.042969 26.792969 7.871094 26.96875 7.695312 C 27.144531 7.523438 27.382812 7.433594 27.496094 7.5 C 27.605469 7.585938 27.691406 7.523438 27.691406 7.414062 C 27.691406 7.28125 27.800781 7.175781 27.933594 7.175781 C 28.042969 7.175781 28.089844 7.28125 28.023438 7.390625 C 27.957031 7.523438 28 7.609375 28.109375 7.609375 C 28.242188 7.609375 28.351562 7.5 28.351562 7.390625 C 28.351562 7.261719 28.484375 7.28125 28.660156 7.433594 C 28.835938 7.585938 28.921875 7.804688 28.855469 7.890625 C 28.792969 8 29.1875 8.023438 29.734375 7.933594 L 30.726562 7.78125 L 30.703125 8.914062 C 30.703125 10.238281 30.988281 10.585938 32.175781 10.738281 C 32.636719 10.804688 33.121094 10.933594 33.230469 11.042969 C 33.363281 11.175781 33.714844 11.195312 34.089844 11.085938 C 34.460938 10.976562 34.726562 10.976562 34.726562 11.109375 C 34.726562 11.21875 34.878906 11.304688 35.054688 11.304688 C 35.429688 11.304688 35.429688 10.652344 35.054688 10.390625 C 34.921875 10.28125 34.945312 10.152344 35.144531 10.023438 C 35.582031 9.738281 36.042969 9.976562 35.890625 10.390625 C 35.78125 10.628906 35.847656 10.695312 36.109375 10.585938 C 36.308594 10.523438 36.527344 10.542969 36.59375 10.628906 C 36.636719 10.738281 36.484375 10.890625 36.199219 11 C 35.867188 11.109375 36.441406 11.195312 37.890625 11.238281 C 39.078125 11.28125 40.109375 11.28125 40.175781 11.21875 C 40.21875 11.152344 40.199219 10.933594 40.109375 10.71875 C 40 10.5 39.957031 10.21875 39.976562 10.066406 C 40 9.933594 39.78125 9.761719 39.515625 9.71875 C 39.164062 9.652344 39.253906 9.609375 39.78125 9.585938 C 40.265625 9.566406 40.441406 9.5 40.265625 9.390625 C 40.066406 9.261719 40.152344 9.128906 40.570312 8.933594 C 41.097656 8.695312 41.144531 8.71875 40.878906 9 C 40.660156 9.28125 40.660156 9.347656 40.96875 9.347656 C 41.164062 9.347656 41.320312 9.238281 41.320312 9.128906 C 41.320312 9 41.429688 8.933594 41.558594 8.957031 C 41.691406 9 41.867188 8.890625 41.910156 8.761719 C 41.976562 8.609375 41.910156 8.476562 41.800781 8.476562 C 41.691406 8.476562 41.734375 8 41.890625 7.371094 C 42.199219 6.21875 42.308594 4.128906 42.132812 3.371094 C 42.066406 3.128906 41.933594 2.457031 41.847656 1.890625 C 41.734375 1.109375 41.605469 0.871094 41.363281 0.914062 C 40.726562 1.042969 40.703125 2 41.296875 2.890625 C 42.066406 4.066406 42.199219 5.933594 41.558594 7.085938 C 40.921875 8.28125 40.441406 8.78125 39.582031 9.128906 C 38.679688 9.476562 36.96875 9.5 36.308594 9.152344 C 35.890625 8.933594 35.847656 8.957031 35.976562 9.28125 C 36.109375 9.652344 36.089844 9.628906 35.648438 9.261719 C 35.382812 9.042969 35.230469 8.78125 35.273438 8.695312 C 35.339844 8.609375 35.230469 8.390625 35.03125 8.238281 C 34.855469 8.085938 34.441406 7.542969 34.132812 7.023438 C 33.671875 6.238281 33.605469 5.890625 33.714844 5.085938 C 33.933594 3.5 34.636719 2.433594 36.042969 1.5 C 36.503906 1.195312 36.550781 1.085938 36.308594 0.804688 C 36.066406 0.523438 36.089844 0.433594 36.460938 0.238281 C 37.054688 -0.0859375 37.734375 -0.0664062 37.867188 0.28125 C 37.957031 0.476562 38.042969 0.476562 38.199219 0.261719 C 38.351562 0.0234375 38.417969 0.0664062 38.527344 0.414062 C 38.617188 0.78125 38.527344 0.871094 38.066406 0.890625 C 37.648438 0.914062 37.734375 0.976562 38.394531 1.085938 C 38.902344 1.195312 39.539062 1.390625 39.824219 1.523438 C 40.199219 1.71875 40.175781 1.652344 39.691406 1.238281 L 39.03125 0.71875 L 39.625 0.566406 C 39.957031 0.5 40.21875 0.324219 40.21875 0.21875 C 40.21875 -0.0429688 43.1875 -0.0429688 44.617188 0.195312 C 45.496094 0.371094 45.515625 0.390625 44.878906 0.414062 C 44.484375 0.414062 44.199219 0.523438 44.265625 0.628906 C 44.351562 0.738281 44.265625 0.890625 44.132812 0.933594 C 43.976562 1 44.152344 1.066406 44.503906 1.085938 C 45.164062 1.128906 45.164062 1.128906 44.617188 1.304688 C 44.308594 1.390625 44.21875 1.5 44.394531 1.5 C 44.679688 1.523438 44.679688 1.542969 44.394531 1.738281 C 44.132812 1.914062 44.175781 1.957031 44.617188 1.976562 C 45.121094 1.976562 45.121094 2 44.726562 2.175781 C 44.351562 2.324219 44.375 2.371094 44.945312 2.390625 L 45.605469 2.433594 L 44.945312 2.609375 L 44.285156 2.78125 L 44.945312 2.824219 C 45.582031 2.871094 45.582031 2.890625 45.054688 3.023438 C 44.066406 3.261719 44.308594 3.695312 45.429688 3.71875 C 46.375 3.738281 46.417969 3.761719 45.824219 3.914062 C 45.472656 4 45.273438 4.085938 45.382812 4.128906 C 45.515625 4.152344 45.40625 4.238281 45.164062 4.347656 C 44.8125 4.5 44.902344 4.542969 45.605469 4.585938 L 46.484375 4.628906 L 45.382812 4.78125 C 44.550781 4.890625 44.441406 4.957031 44.945312 5 L 45.605469 5.066406 L 44.835938 5.21875 C 44.109375 5.371094 44.152344 5.390625 45.273438 5.433594 L 46.484375 5.5 L 45.382812 5.652344 L 44.285156 5.804688 L 45.273438 5.871094 L 46.265625 5.933594 L 45.273438 6.085938 L 44.285156 6.238281 L 45.382812 6.304688 C 46.375 6.347656 46.417969 6.371094 45.824219 6.523438 C 45.207031 6.675781 45.1875 6.695312 45.714844 6.738281 L 46.265625 6.78125 L 45.714844 6.957031 L 45.164062 7.109375 L 45.824219 7.21875 L 46.484375 7.324219 L 45.867188 7.371094 C 45.515625 7.371094 45.320312 7.476562 45.382812 7.609375 C 45.449219 7.738281 45.363281 7.824219 45.164062 7.824219 C 44.96875 7.824219 44.878906 7.71875 44.945312 7.609375 C 45.011719 7.476562 44.945312 7.390625 44.769531 7.390625 C 44.617188 7.390625 44.460938 7.542969 44.460938 7.71875 C 44.460938 7.957031 44.746094 8.042969 45.472656 8.066406 C 46.089844 8.085938 46.265625 8.152344 45.933594 8.195312 C 45.625 8.261719 45.253906 8.414062 45.078125 8.542969 C 44.8125 8.738281 44.792969 8.738281 44.921875 8.523438 C 45.011719 8.371094 44.96875 8.261719 44.792969 8.261719 C 44.636719 8.261719 44.394531 8.5 44.242188 8.804688 L 44 9.347656 L 62.042969 9.347656 C 73.800781 9.347656 80 9.433594 79.78125 9.566406 C 79.558594 9.695312 79.539062 9.78125 79.734375 9.78125 C 79.890625 9.78125 80 10.109375 80 10.652344 L 80 11.523438 L -0.0234375 11.523438 Z M 30.132812 11.023438 C 30.308594 10.761719 30.109375 9.78125 29.867188 9.78125 C 29.757812 9.78125 29.671875 9.628906 29.671875 9.433594 C 29.671875 9.261719 29.582031 9.175781 29.449219 9.238281 C 29.339844 9.304688 29.230469 9.21875 29.230469 9.042969 C 29.230469 8.847656 29.164062 8.71875 29.078125 8.71875 C 28.550781 8.804688 28.132812 8.675781 28.265625 8.457031 C 28.351562 8.28125 28.265625 8.28125 27.933594 8.457031 C 27.429688 8.738281 27.273438 9.414062 27.78125 9.21875 C 28.042969 9.109375 28.042969 9.21875 27.800781 9.933594 C 27.515625 10.738281 27.539062 10.761719 28.089844 11.023438 C 28.746094 11.304688 29.933594 11.304688 30.132812 11.023438 Z M 36.132812 6.371094 C 36.066406 5.175781 36.089844 5.175781 36.242188 6.042969 C 36.527344 7.628906 37.582031 7.933594 37.605469 6.476562 L 37.625 5.542969 L 37.933594 6.261719 C 38.460938 7.457031 38.855469 7.152344 39.121094 5.347656 L 39.296875 4.238281 L 39.320312 5.542969 C 39.363281 6.261719 39.449219 7.023438 39.539062 7.261719 C 39.671875 7.628906 39.757812 7.609375 40.265625 6.976562 C 40.921875 6.21875 41.097656 6.152344 41.097656 6.675781 C 41.097656 7.238281 41.253906 6.933594 41.40625 6.042969 C 41.515625 5.414062 41.496094 5.21875 41.253906 5.21875 C 41.078125 5.21875 40.835938 4.847656 40.703125 4.371094 C 40.394531 3.371094 39.847656 2.804688 39.582031 3.238281 C 39.449219 3.433594 39.363281 3.390625 39.273438 3.066406 C 39.164062 2.585938 38.242188 2.261719 37.648438 2.5 C 37.429688 2.566406 37.230469 2.628906 37.1875 2.609375 C 37.054688 2.566406 35.691406 3.347656 35.539062 3.566406 C 35.144531 4.152344 34.921875 5.5 35.144531 6.085938 C 35.296875 6.542969 35.273438 6.738281 35.097656 6.824219 C 34.945312 6.871094 34.988281 6.933594 35.1875 6.933594 C 35.382812 6.957031 35.671875 7.109375 35.824219 7.28125 C 35.976562 7.457031 36.109375 7.609375 36.152344 7.609375 C 36.175781 7.609375 36.152344 7.042969 36.132812 6.371094 Z M 44.988281 6.847656 C 44.988281 6.675781 44.855469 6.523438 44.726562 6.523438 C 44.59375 6.523438 44.460938 6.675781 44.460938 6.847656 C 44.460938 7.023438 44.59375 7.175781 44.726562 7.175781 C 44.855469 7.175781 44.988281 7.023438 44.988281 6.847656 Z M 43.605469 5.28125 C 43.472656 3.871094 43.296875 3.824219 43.296875 5.175781 C 43.296875 5.804688 43.382812 6.304688 43.496094 6.304688 C 43.605469 6.304688 43.671875 5.847656 43.605469 5.28125 Z M 43.605469 5.28125 "/>
<path style=" stroke:none;fill-rule:nonzero;fill:rgb(78.431373%,79.215686%,80%);fill-opacity:1;" d="M 37.363281 4.195312 C 37.164062 3.371094 37.03125 3.109375 36.96875 3.433594 C 36.921875 3.695312 36.792969 3.914062 36.679688 3.914062 C 36.550781 3.914062 36.503906 3.976562 36.570312 4.085938 C 36.617188 4.175781 36.527344 4.433594 36.351562 4.675781 C 36.042969 5.066406 36.042969 5.066406 36.042969 4.628906 C 36.042969 4.371094 35.976562 4 35.910156 3.824219 C 35.800781 3.566406 35.867188 3.5 36.175781 3.628906 C 36.417969 3.71875 36.503906 3.695312 36.394531 3.523438 C 36.21875 3.238281 36.902344 2.847656 37.320312 2.976562 C 37.449219 3.042969 37.582031 3.261719 37.582031 3.476562 C 37.582031 3.695312 37.671875 3.933594 37.757812 4 C 38 4.128906 38.066406 5.433594 37.847656 5.433594 C 37.734375 5.433594 37.515625 4.871094 37.363281 4.195312 Z M 37.363281 4.195312 "/>
<path style=" stroke:none;fill-rule:nonzero;fill:rgb(78.431373%,79.215686%,80%);fill-opacity:1;" d="M 32.089844 9.628906 C 31.957031 9.238281 31.691406 8.914062 31.539062 8.914062 C 31.164062 8.914062 30.945312 8 31.273438 7.78125 C 31.605469 7.585938 32.59375 9.414062 32.460938 9.957031 C 32.394531 10.21875 32.285156 10.109375 32.089844 9.628906 Z M 32.089844 9.628906 "/>
<path style=" stroke:none;fill-rule:nonzero;fill:rgb(78.431373%,79.215686%,80%);fill-opacity:1;" d="M 32.242188 7.914062 C 32.152344 7.824219 32.089844 7.609375 32.089844 7.414062 C 32.089844 7.175781 32.152344 7.152344 32.328125 7.324219 C 32.460938 7.457031 32.550781 7.675781 32.484375 7.824219 C 32.441406 7.957031 32.328125 8 32.242188 7.914062 Z M 32.242188 7.914062 "/>
<path style=" stroke:none;fill-rule:nonzero;fill:rgb(78.431373%,79.215686%,80%);fill-opacity:1;" d="M 30.550781 7.390625 C 30.96875 7.109375 31.207031 7.109375 31.207031 7.390625 C 31.207031 7.523438 30.988281 7.609375 30.726562 7.609375 C 30.308594 7.609375 30.285156 7.566406 30.550781 7.390625 Z M 30.550781 7.390625 "/>
<path style=" stroke:none;fill-rule:nonzero;fill:rgb(78.431373%,79.215686%,80%);fill-opacity:1;" d="M 26.484375 6.738281 C 26.550781 6.609375 26.351562 6.5 26 6.5 C 25.515625 6.457031 25.558594 6.433594 26.265625 6.304688 C 26.746094 6.21875 26.96875 6.128906 26.746094 6.109375 C 26.527344 6.109375 26.417969 6 26.484375 5.871094 C 26.570312 5.738281 26.351562 5.628906 26 5.628906 C 25.382812 5.609375 25.382812 5.609375 25.933594 5.457031 C 26.636719 5.28125 26.746094 4.78125 26.109375 4.761719 C 25.625 4.738281 25.625 4.738281 26.152344 4.566406 C 26.617188 4.414062 26.636719 4.390625 26.265625 4.371094 C 25.910156 4.347656 25.890625 4.304688 26.132812 4.152344 C 26.375 4 26.328125 3.933594 25.910156 3.847656 C 25.40625 3.761719 25.429688 3.761719 26 3.71875 C 26.726562 3.695312 26.703125 3.195312 25.933594 3.023438 C 25.382812 2.871094 25.382812 2.871094 26 2.847656 C 26.351562 2.847656 26.570312 2.738281 26.484375 2.609375 C 26.394531 2.476562 26.617188 2.371094 26.96875 2.371094 C 27.339844 2.347656 27.429688 2.304688 27.207031 2.238281 C 26.96875 2.175781 26.8125 1.933594 26.8125 1.652344 C 26.8125 1.390625 26.746094 1.085938 26.660156 1 C 26.570312 0.933594 26.503906 0.652344 26.484375 0.414062 C 26.417969 -0.347656 27.296875 -0.0234375 27.515625 0.824219 C 27.691406 1.457031 27.78125 1.523438 28.527344 1.523438 C 28.988281 1.523438 29.472656 1.414062 29.625 1.261719 C 29.824219 1.066406 29.890625 1.066406 29.890625 1.261719 C 29.890625 1.824219 30.503906 1.476562 30.679688 0.824219 L 30.902344 0.109375 L 32.460938 0.0859375 C 33.558594 0.0664062 34.066406 0.128906 34.152344 0.324219 C 34.265625 0.609375 32.636719 2.21875 32.441406 2.023438 C 32.394531 1.957031 32.21875 2.109375 32.066406 2.347656 C 31.910156 2.585938 31.648438 2.738281 31.496094 2.675781 C 31.339844 2.609375 31.207031 2.695312 31.207031 2.871094 C 31.207031 3.042969 31.011719 3.585938 30.769531 4.085938 C 30.503906 4.609375 30.375 5.109375 30.441406 5.21875 C 30.503906 5.324219 30.460938 5.457031 30.328125 5.542969 C 30.21875 5.609375 30.109375 5.566406 30.109375 5.414062 C 30.109375 5.261719 29.824219 5.476562 29.449219 5.871094 C 29.097656 6.261719 28.792969 6.675781 28.792969 6.78125 C 28.792969 6.871094 28.242188 6.957031 27.558594 6.957031 C 26.8125 6.957031 26.394531 6.871094 26.484375 6.738281 Z M 31.078125 2.476562 C 31.273438 2.414062 31.429688 2.238281 31.429688 2.128906 C 31.429688 1.976562 31.320312 2 31.144531 2.152344 C 30.945312 2.28125 30.769531 2.304688 30.636719 2.175781 C 30.527344 2.066406 30.175781 2.042969 29.890625 2.109375 L 29.339844 2.261719 L 29.890625 2.414062 C 30.636719 2.628906 30.679688 2.628906 31.078125 2.476562 Z M 32.878906 1.195312 C 32.8125 1 32.878906 0.871094 33.078125 0.871094 C 33.230469 0.871094 33.429688 0.78125 33.496094 0.695312 C 33.558594 0.585938 33.382812 0.523438 33.121094 0.542969 C 32.617188 0.585938 32.265625 1.523438 32.746094 1.523438 C 32.902344 1.523438 32.96875 1.371094 32.878906 1.195312 Z M 32.878906 1.195312 "/>
<path style=" stroke:none;fill-rule:nonzero;fill:rgb(0%,0%,0%);fill-opacity:1;" d="M 36.679688 9.128906 C 35.121094 8.675781 33.847656 6.957031 33.847656 5.324219 C 33.847656 4.128906 34.636719 2.675781 35.671875 1.933594 C 36.417969 1.390625 36.746094 1.304688 37.933594 1.304688 C 39.144531 1.304688 39.40625 1.390625 40.265625 2.023438 C 41.449219 2.914062 41.976562 3.933594 41.976562 5.347656 C 41.976562 8.023438 39.320312 9.933594 36.679688 9.128906 Z M 39.691406 7.71875 C 41.054688 6.847656 41.253906 4.390625 40.042969 3.195312 C 39.144531 2.304688 37.40625 2.128906 36.308594 2.824219 C 35.011719 3.628906 34.59375 5.390625 35.382812 6.695312 C 36.308594 8.195312 38.242188 8.675781 39.691406 7.71875 Z M 39.691406 7.71875 "/>
</g>
</svg>
